<mxfile host="65bd71144e">
    <diagram id="XB-zLlqN9AO9jNxr1Lnt" name="PÃ¡gina-1">
        <mxGraphModel dx="999" dy="1641" grid="0" gridSize="10" guides="1" tooltips="1" connect="1" arrows="1" fold="1" page="1" pageScale="1" pageWidth="827" pageHeight="1169" math="0" shadow="0">
            <root>
                <mxCell id="0"/>
                <mxCell id="1" parent="0"/>
                <mxCell id="2" value="" style="shape=image;verticalLabelPosition=bottom;labelBackgroundColor=#ffffff;verticalAlign=top;aspect=fixed;imageAspect=0;image=data:image/png,iVBORw0KGgoAAAANSUhEUgAAAggAAAG4CAYAAAAg3h+LAAAAAXNSR0IArs4c6QAAIABJREFUeF7sXQd4FNUW/mc3PYQeegdRpFcRUSmCvaKi2MBeEFCKIL03BUURsff2VGzYkSq9V0VBegJJSO/Zmfedc2d2J0sCC6RtcvY9hGxmbvnvnTn/PVWLij5hhAQHQXNoMAwAGgD6m/9j/WD9m76n7+zXqR/z/I5vp3sNaNZ9tsutf3J3uRrJ48fcF3mG5u7DPbI8elBfGTQWzRz/acbjwSD3CK078+0gVx+nudqNsR23M+NkrUq+WOW3Lmr2Z1wH92zPBSfbWqth5D9/z1L6gqg32r7Nw3Dv3zz6sL7y3lNunDzb+bRr7e7DAv50V3vv9tM/E56rrWcvH6y895LXHM40MoWT/aozrEmu98OZcVKt5/H+sEOV5xw8u/1MuyR3H1Zjp3lP5Vom33Zjnu+ofMdtez+ezfspF1a+vD/sozrb/WSB4OP7/Gzm4X5/+LoGFl4+Ptve7ef32OWxV03h5uP7yevpyWu9T3mX+LafeHf7Mo8CkRVaLrFtlyP2XWaJ/ZycHGRlZkGHDi0mNs6oUL48HEQQcr0ovN4btIbm3HPxCNvi5Pm8nOnp9r7fzVJyv3zyfJd77XFfXs+85Ia1TWx86HTzOIs5uLeUrQ/vcZ2C01m2b/XBUHl98n1nnWUftvdBvrCe6zzyfG4LaR5u+Xfqdvb+1ZmlnVcb6jlQC53Xs1NQa+GWG3msxPk+c7nktNeePZ38y+tVkddGcYtrw0NFvKn8afs5y31LC2FvryDmcMozZuJ0xrZL6PvJegd6C4rTvmPdLzbf3rK8bKfB6Vz3ba61tcmj0+099+/Odi/xHBTxOp3Ms+N4unNnfmP0vD/yfp/nav8s18F6d+TFM+y4qPe9AjQ7OxsJCUlw6S5oMTGxRoUK5eF0Om2jU81p7tO2b5tCrhIEBAFBQBAQBAQB/0LAIgc06iwmCIlwuUiDIATBv1ZSRisICAKCgCAgCBQkAqaGj1QDmVlZSEhMshGEihVYg+CtgRENQkGugLRVVhCwbHn5qhTPRdWZR2N21m//tTy3ZWWnyTwFgYJBwP4uyczM9BCEWPJBME0MdBG9XCxrYX4vmtM5oBXMcKUVQcB/EVCmvPwsuprHT/Y8ppgfORCicB6gyq2CQBlF4CwIgs2BLx8fBHUAKqBjUBldEJl26UXA/rDpJk9wEGUwnYkL4oQvBKH07h+ZmSBQ1Ajk8kHIykK85YOQW4OgmxoEc3gmB8gdCKWBXnZCEIp6CaU/f0GAHjYrwsQeyWRR6oIiCPaH2tL+2dv2vR8zUDAfpYfv7fjLCsk4BQFBwI6ATwRB13VoLP3pVaa7cwZYccbKtOCAg9WniibIRxAQBHIjkJsg6Gyyc9CDpaknqCAELj2r1sd6uKndcyUIeYXMWu0XxHhljwgCgkDJRcA7iiE+PkE5KXr7IHgsB54wR7dPgnq9mZeIiaHkLreMrDgR8D7Z0/NDT40laAtC4Hr3kZcw970fnTUep/pOsGEEDoccBopzP0nfgkBhI+AzQSC3A7fGwPRBEIJQ2Msj7ZcmBLz9Ayz1f0GeyAvWB+H0BMFbM1Ga1krmIggIAp4kSYQF5UHIX4NAV5hpsKwTiBAE2UKCgAcBX4Tz6fDy/WSffyvnN4bckRSqLfXHYx7RfNIc+DoXX8ebV3u+3uuNlq9jk70tCJR1BHzWIPCLgjUHymGRPrkJgsNMPClqx7K+qcrq/H0VWHbfADtWBSG4TjeG/Pr1jMGbIJCfhHrSyc6gTA2++TP4OhdfMXO/c07nFOHjxvN1bD42J5cJAqUWgbMgCLYABXcUg5VpXvkgSBRDqd0nMjEfELAeJm+hxzlEvASbPbrAbmo4X+GVn8C1d2/lj2ezoRmhoP6tCIIVxczOye6xW75H+fsYWfOgv331T8jdhwLZTga8/TPymp+9X2u83jgWJMY+bAW5RBAoFQj4TBD4oedkSeAKj3l9JA9CqdgTMgkfEDjTSd1yQPQWeHweZ88/sBDVDSWE8yIG50IWvEmKJaxVl8pUoGmk7VNEwLIiUDCFCr30aBF8Pd1bcNmv98XxUpktzCRs+WgGvNuxojTsBIu+IyzzIw92wiJ+Ez5sbrlEEDARODuCYD6EQhBk/5R1BM5EECwikJeQJ1LgEdyeSAbvawuKINjbyVWxm80F+a2kp86bdcrP81Bga8B+SreuzW8OpxPmdlJlJwj2e6wx2bUz3maIvDQ3QhDK+pMr8z8bBHwmCHk9tGfTkVwrCJQmBOyqceshsoQP1U23TrpKaJGJwaMpcBNs88SuGwZ0lw6n05GreurpCMKZTvdWaCKNg+u4Z2UiJ8fF7QcGBvKf3JVa1eqc0qcB0PhcrhwmNXwPmyE4QNN9j8vl4jnTSZ7+nEmDYNd02AU5l5KFxv3kRTi891BeOFB7NB635oAzVXrGei7EqzTtXZmLIOArAkIQfEVKrivTCHgLIm/VuGVSoO9XrFiBPXv2IMflYrMcqfRJwJJQrlevHlq0bImaNWrAGeBkYrB3715s27YNrVq3RrOLLjpFuOYl0PInCMp8QabAtLQ0bN22DZs2bMT+//YjKSkJ4eHhqFWrNho0aIAOHdqjYcOGNmFMgl/lOFAhSwZ03UBUVBRWrlyFtLRUdO16ORo3buT2MbBMjwcPH8bqP/9Eo8aN0a5tWwQEBORJOLxP9ZaZgUiM5nDASbkVNKgEUuYnL00A/8qsNOfSdeiEtZucANu27cDuPXvQsUMHNG7SKBdBOJMmJK/fn4mQ2e8RAlKmXxWlavJCEErVcspkCgMBX4UDXUen9GeffQbvv/8BwsPDEBYWZoYIGsjIyGDB2717dwwbNhStWrXik+7Hn3yCOS/OweDBg9C/f/98hat9bt72fm/CEh8fj6+//hpz5sxhAR8ZWQ0REeWQlZWNmJgYZGSk48orr8SgQYNx2WVdEBwcbMlcdzccpWQAq/5chSGDB+PAgQN4/PHH8dzIkYgoV86tSaBrliz5A88+OwS33toHI0YMRzn6ve1j17J4fx8TG4uffvqJSdMVV1yBoKAgt0+BtwmB2zGtHxa52LV7N9atXYt27dqjVauWfO+cOXPx9ttvYfLkKbj99j6nkJX8xqN4hy0ZnC3NdP7mGDUjIQaF8fRJm8WJgBCE4kRf+vYLBOzq8PxOipawIjX74MGD8f333/Pfbdq2g26q51NSUvDbb7/hm2++wW233Ybp06cjLDwcu3buwvr16/lE37p169xpkVmfr3rNLbisOgkeYWaNjTQHH330IV54cQ4iq1ZFv7vvRus2bVCuXASbGg4fPowlS5bwn9p16mDSxEno2vUydx8WMeCuDQ0rV63C008PxM6dO3HBBRfgxRfnoFevqxAYFGgODPh9yRIMevpp9O3bF8OHD0e58HClh+Cxezs62GtSGPj777/xyCOPoH2HDpg4cSIqlC+vxmKlovYmGuxcqRwcqZNPP/0UL774IgYOfBr3338fAgKcWLt2PbZu3cokqFmzi9wt5KeNyft7NYrcPhxm5JZXZIr9GiEKfvFYyyB9QEAIgg8gySVlGwHL38Be58DyN7Cf3OnfdM2gQYOwbNkyvPbaAlxxxeXu0yX9bseOHRg8ZAhysrP5hB8ZGYn09HSkpaUjLCwUoaGh7uuzqHrayXhk52SzaSAiIgLZ2cq/ITQsVEUV5TrtKqG5efNmPPvsszh5Mh4zZ85A9+7dEBJqXg+AVPJxsXGY/+p8vP76AhbqM2bM4D5Y8JqaA+vEvGLFSiY7J0+eZI1Hx46dMHv2LDRp0sQUngZ+//0PJhF33H4HRjw3gjUIlhAnbQZpLbKzs1GlShX+Q1oC+j3NccvWrXjqqSfRpk1bjBs7DjVr1uDfE8b0+7i4OCQnJyMoMAjlIsqhYsWKrGUhZ8/kpGR8+NFHeGXePDzx5FO47957UKFCBWRmZrGJJbxcGMJCw9wbmLQ4NBbCJjQkBNWqV0f58uXhMCOzyFSRlJzCJCMsLByJiYlISIjnsVSsWAkR5cux+YM1G1aWCI7wOrPfRdl+imT2/oiAEAR/XDUZc5EikB9BsA/CEqqsQRgyBEv/+APz589nlTmfoU1p+9+BA3hmyDOIjz+JL7/8koXlhvUb8Otvv6Jbt27o2rUrC87o48fx4+IfsXz5cqSmpaJe3bp8Gk6IT4DD6USf2/uwmt99SudcRgbSMzKw4LUFeOWVVzBgQH8mCuXKhbuHqnIdUc4SDVu2bOXfJycn4fXXF6J9+7bu074nhoF8KlZi6NCh7LdQt25d/O9//8MzzzyLRx99BOUiIjhB2pIlS5kg3N7ndjdBIAG9fPkKLP5xMf795x/k5BBBqIpevXrj2muvQc2aNbFp82bMnTMXv/zyE5Olq67qjQcfHIA2bdrgyJEjbHpYtWoV4uJiERwcgho1ajBOvXr1Qlh4GL788iu8sXAh+3BcfPHFuPmWW/DUk09i3foNWLlyBW6+6Sa0a9eOsTl46BC+/eYbrF69GidOnOD2mjVrhltvvRWdLumIkOAQEJl57733EBoahoaNGmLJb79j566dbLZo2aIF7ryrL1q1am36luTWjJzJMbNIN610JggUAAJCEAoARGmidCNwJh8E1hxQlAJHKxjsS0Aq9xdfmINLL+3sjs8n4b3k9z8wbfo0XHvN1Zg8eTLb/j/++GP+buizQ/Hwww8jISERCxa8hnfffReNmzRB3Tp1EB19HLGxMYiOikLrNm3xxhtvoEaN6u62raiCI0ePsn/DunXr8Prrr+Oqq65SDoWapzi7yn1gsNPi7Nmzuf+pU6ai71193Q6C9pDBlStXYuiwoWjZoiX7IIwaNQqpqams1u/cuTMcTgf+WLKU/RT69OmD4SOGIyQkBD///DPGjh3LzpmXX96VTRyk3di9ezf6P/AAmwTIeXLu3Ln48ccfmSD06NETDz34IJpd3Iz9Mt56+y02u9AfIhxEFmjcU6ZMwTXXXINFi77BQiII27ehRYsWuOXmm/Hkk0/ilVdf5e9Jg3LHHXcgLu4kZs6YiUWLvmbCQNfGxsYyMatbpy7GjRuHSy+9FFFR0XjooYdw8OAB1KlTh7U2RGT+/fdfbNiwAXfffTcmT5mCqlWqKDOImb/BHj4pJobS/T4oS7MTglCWVlvmek4InI4gWL+zCAJ5/RNB+PDDD9G8eXMWeuShT3KE1NuHDx9iv4CX581D+/btuHQqCeiZM2fyqXzAg/2ZRAwfPgyXXXYZnnvuOVSuXBnJSSl446038Oorr7ImgUwD1avX4PBJKwGS0+Hk6ImBAwfySfitt9/miAKlwjiVIKSlp+Pdd97BrFmzMHz4CDzxxOOcBM2pqVBGSwCuWvUnOyC2bNkKL7zwAvsujBs3nk0XEyZMRGS1quykSD4Id955J4YNH46kxEQ2tezfvx8zZ85Cly6XslmAtALTpk3Dpk2bMH36TPTs2R07d+5ibQT5a0yaOIExI0JEGBCBIkJC0RZk3li+bDmeefZZ3HDD9Rg/YQKf5D/44AO89NJLGPjU0+g/4AE2b7zw4gt4Y+EbbDq58cYb8c0332Ls2DG46eabGR8iV2SGIFPQuDFj0LlLF0yeNInNII8++iiTAXLg7HdPP1SpXBn//XcAo0aORFJyEubNewXt2ilcLezFxHBOj5bcVMIREIJQwhdIhldyEVD2enUa9xAEFwYPHoKPPvqIT6q1atVyE4TMzAyOBCC7Ogkhilgg+zgThNmzWINwzz39MGXKVHy96GvMnjkLN9x4g9vPYOOmzRg86GlWs9PpmCITTBGlYv41B/s4DBz4FEdTvP3227jwwgtNp39b5RT2XdCRkZ6B9957FzNmzMTQocP4PqVtMMsvmOWoWYMwVEVdkNaAhChFB/z+++94/vnn0bfvnWwKIUJABIHMFuQg+MSTT+L6665nAV+pUkUeI5lgyPeCnBHvuusuPPPMMzh06BCbQzp07IQpkyezjwE5dJIJhIR9w4YN+F7qlxwmnxsxAj179sSMmTMRUS4CH370IWbPmsWmm/4D+nPYJo3zzTff5LmR9oKE/Z49u1lbcfnll7s1JeTb8Phjj+G/Awcxf/6rvF6kxSGCtWDBArRs2ZLNQ0lJyZg+fRqTI9K6kJnD+yMmhpL7rMrIzg0BIQjnhpvcJQjYKhwSR9AZESuKgQQJC6MrroCh62z3z8zMxJYtm9k5cNeuXZg9azau6nUV/ve/LzFj5gwMffZZ9i148okncfx4NBa89jouanaRW4197FgUnnn2GWRmZOLNt95Ctciqp6zC33/vxVNPPcU+DkQQOCrCVlhN+SxQWmIdqSmpLARfe+01TJgwAffdd1+uJEdEeogBrSQfBDMsk+ZEQnvd+vUsqMmpkkIKyabPPgi3386C+pdffsHIUSMxbeo09Ln9dgRZEQ8A+yUQmSA/Aw7DjI7GgP4PoFOnTpgydSoqVazI+RfIBLB58yZs3boNsXGxPG8yT6xfvw79+vVj7QA5GJIGYdas2UxM+vd/gDUVL8x+AQvfWMgkon27drjppptQr159vPHGQtSsVdOd6iEn24VRo0bis88+Y7MOOWCSiSE4JIQdH2vXrs3an/T0NMyd+xJHoMycNQs9une3aWUAQ1f1J+ymBnlEBAF/R0AIgr+voIy/2BCwvPS5xqlpi7ZMDEuXLsX8V19Ft+7dchVEolPw778v4aiAG2+4EWPGjsF3333HJgYScLfcciufYFNTU7Bw4Rto1KihOT9KWBSNYcOGIT09g/0LqlWLtA776hoNiI6KZrMEOei9/PIruO66a93Jhzijo9WaoePo0aMYM3osC+F58+ax6SKXgDPrN9g1CCTQyS5P5okP3n8fs2e/wFoPEu5jxoxhhz/SCvzw/WKMHT8WL819Cdddfx0CAwLcYyVshgwZgvbt27PJ4lgUEYT7WTiT+YGiEA4fPsKOlsuWL0WF8hVYW0IOhZRc6r1330WPHj3cBIHMOWQmIfweeMAkCC+8iIULX+dr2rZty2YGIkvkOFqpUiU2DdBcc7JzMGLEc/jif1/gjYWvo23bdnjwwQc5fwX5MdSqWdM0D6Uzmfn222/ZZNKjR3d3xIfle2IVqPK1UFWxbVzpWBDwEQEhCD4CJZcJAt4IqDh8Tz4C9v2jMMfBg8EEYf58FrpuEwTVMtENbNy4CQ8//BBnJZw6dQp++P57PumSGv+WW2/F4489zr4KdLon4aaiDg12lCMHPBLQFHVQLZIIgqccI/s5ZGaw+YFU7H373sVOguUjzKRG5tXWQ//bb7/jmWeGoFGjRqbTYw2eor3wEV1Lav1hQ4dxEiJql/on4UoEg5ImbdywAbfd1gfffvsN+tzWh7UcpEEZMWIEaybuvusuDlukD432hx8WY8yY0ZwLguZ84OBBdkzs0LEjOx+Gh4VxJMHUqVP5mqcGDuS5Uhgm+SuQOaJjx46YMXMWR3J8+OEHrPa3EwQiLm+8QQRhJrdL0Qzk20B+CRSdwCGrGpCdlY0nnngS23dsx8LXF6JWrRp46MGHUL58Bcx9aS5q1qzF2JOD5Nw5c5jMUZs9e/ZgUkiaGPL9sH+EIMi7orQgIAShtKykzKPIEDjFadFNEsBOhyR0ly5byqdyCltUYZLK/EAn41fnz8eir7/mEzd5xX/11Vd80n322aGc6IeE8BtvvInnnx/FfgokXOmk++lnn/I9JPAWkgahalUzFt9To9nKtTBs+DD2d6AkSOTtT6p4TmMMIDMrC/v27WNSsnLFCvbgv/+BB0xioKIx7FEM5KRIcyLPf3IGpBM+fchpkEIgR44ciWPHjrIJ5YnHn8CzQ5/F33/9hcefeAItWrTEtGlTOSKAPomJSaw1+O67b9nJkLQo//z7Dx4c0J8TJVE0Bc33hRdfxOeffcaaleuvv57HRpqTTz79BOPGjsVNN93CZpmw0FD296C8DKS5GDBgAF+rMHwD02fMQM8ePTB+/Hg2e1DkyC233MKRFbSOZOqhyIzGjRuzZoDwe/jhBzni4uWXX2afBLouNZVMDHN53DQm0mDkSihlw0yiGIrsUZSOChkBIQiFDLA0X/oQcD80uUoUqxBHKjZE9nXK7kex+nQ6pw8JHhKgVHeBYv/Jhk2n3MjIqvjkk09Y6JBz4yOPPMwOfkQWyMzwxBNPoGnTCzmL4SeffMzah2uvvRYLXl+AGtWre8C1xmImFyKv/UmTJrJjH42DtBWUxyAtNRXrN2zAb7/+in3797GjIJk7yPGRBJvlbGk1THP688/VGDJkMDvs2QkCXZOakoL5ry1gBz76DB40GEOHDYOuu5gAfLNoEfr3H4Db+tzGqaeX/rEUc+bO5RoJ06dNR63atbD/v//w8EMPwqUbTDbod4sXL2ZhfvU1V+Phhx5mn4BVK1cyrhQqSeGQFBp6QZML2C9g9JjRuLxrVzz51EC0ad2KzQFEEMhkcVufPpyKmcIqyVmSxtiyVUuQTwf5HWzbug2jR4/mMcbExOKhh0wTwyuvMEGgD2sQyAfh2294rYh0sEbETCxFpMrSHAhBKH3PfFmdkRCEsrryMu9zRuBUguBxAyQNAsXeUzIhcgYkhznSHhgGEQgXJ+C5tHNn3N3vbj5d0yn0x8WL8dZbb+P+B+7HbbfeyuF3K1auYOe7o0eOcg0F+lzY9EImF9WrV8P8+a+hSpXK7HjAOZjcZEWDoQFJiUkcwvf+++/hn3/+5XFQpkY69RNRiYgoj5tvvolzBJAjHn3Y/8DMKOh2VgBYIM+aNRPNml3ManzLxGBFJZDpY/r0GZwymRwdyVEwJDgYu3bvwSuvzGNyQ86MTmcAC1oiKpTMiPwWKIcC5VSg0zmRGiJUpK2ghEzk/PjHH0s4mRRlNSQcKHpgy5Yt2LhpE+7qexeHZh48eJD737VrJ3r37s1alkWLFuHzzz9nXweKeKDaE199tQjvvvsOz5/aIyzo+zvuvBP39LsHVatWYcdICuGkJEzPjXiOCRx9KESV1oP8R8hhs1PHjm5/DcJB8iCc8+MkN5ZgBHwiCLlL1yobpXwEgbKGgLdpwfOz8gOg0DxyJDxy5CiHyXFlRPOESVdQzD45v5HQCQ8noa9SI1M63xMxsfw9qe85hbJu4ERMDPsdUHgkJesJDAjEy/Ne5iREE8ZPQDinM9bZFq5KHmh8LzlKWiaN48ePY8eOnaxKT0xKZEHdvNnFaN6yBbdJ2QPVtexBYVZzVD4PZgwnC0eKNKB7q0VW47TE/D+TTFDq5uPRx5GYkICqkZEs0JXABE6ciMHGjRuxfft21io0b96C/QcoD4GnEJPGaZwpDJE0HkScSFhTSmSKlvhn7z+oUrUKEwqqBRF17BhXqaxZo6Y7SyKFSlLOhfLlI9C+fQckJCYgNiaO+yFCQx+qrkmmjzVr17JJpEb1GtwmhYKGhhIOqkz00aNRPLdatWq6q0rSO5DGmJiUhHp163BeBkr7bJWRtkgC9SPvx7L2Zii98/WZIAhDLr2bQGbmGwLWw5KLKFjVBQHs3r2HqziSwHc6zZA30zHPLcRthYssgcS9s9BVp/jkxCQcPXaMhV2NGjXhcDhZ2O7bp7L51a/fAJ060QlWhSu6sxqxK4IiF5aAVooFAypiUeVKMKCzELOPyQrTZFLjybOs8ivQ2MjBkkwoLpciB0xIzP+YSZWInBBZcAtNUw1BP1uHDJoLnS/Yv1PXVQgnERtqn0mJypXALVPYIJtnVAghaRvodyyM6TYHaWXsRazMAk7mvVbGSEXEwPfTWMgMRGoWwsg9FsqEyfUVFIYW0bJKSls7hNJc07pQAazmLZrnKkvtvkYOUL49UHJViUfAJ4JgXSSJQEr8esoACxGBPGsyWBIGQHx8Ap/4KRGSVfzH7RpgCkV10CebgzlQmzC2Tp97/trDHvNUwInyCpCDHzkVLl78AzsbUibBRpRZkJ0fPUTEqyk3Eu400DaBrYpEqlO+mXn5lJqLVgNWMijrZ7eN3U4k3AWectcn8GgibK2RdsGrN/uLyKNZUPdwSKJZ1dIKKfQeyyn32+C1CIIy9ZjaEW7YNM+YWNjna5Visvo1B8JjIQfHRg0bsT9DXnkPxAehEB9CabpIERCCUKRwS2f+jIC3BsGuVvbMS51Wz0VIWO2TTZ7C6ciGTiSB7PmZWZmoWrUq7ryzL3r37uWu+niK0PZngP1k7N7r7r3W57L2fjJ1GWYZQ8AnguCNiTwAZWyXyHTVAdKW88D6Oa9nIW/i4DuIdD858x08eAhRUVGcxY+c6urVq8vahKDgIPMEbp6AfW9ariwABOzrK1rVAgBUmiixCAhBKLFLIwMraQj4QhA4VNCyoZslnmkepyPVdhPeqf4N5BDsScZkqclVe+dOEM6XxJS0tSmK8Xg7qXqvqxycimIVpI+iREAIQlGiLX35NQLePgiWL4HlzW8JXW+fnbOdtJ2I5LKBn9KQhyD4KpzyEnJnOz65XiHgXm/TR8LXNRD8BAF/QUAIgr+slIyz2BHI00nRRy3B2QzeDDxQt7ADnVVd0dOKrVt1mfcX+XQoBOFsViL/a63oELuzpTuHRMF0Ia0IAsWOgBCEYl8CGYC/IFBkwtWTggBmKoU8dAfWVx5PfH/B0R/HaV97Dhk1Izg4FYQZuOErSfPH+cuYyyYCQhDK5rrLrM8BgUInCGboI2USILeD/JQCHCVhuiao3AkeIXUO05JbfETArNrtTkRlKniEIPiIn1zmfwgIQfC/NZMRFxMChU0QrJwJlJZZmQ3ynqiZW0iZHywikc+1xQRVqeyWkk2q0t5uTmBLGJX/epVKMGRSZQIBnwjCmeJ+ywRSMklBwEcEcqmjzTz9p7+V0wlBI2Jg1m3wiSCYjXqyGvo4QLnsnBDwaBA8ySbdGhzO3nhOzcpNgkCJRcBngqBeWNbJRo4rJXZFZWDFjsD5axrO7vkSglA0S25ltbYX8bSvlBCEolkH6aX9WLCsAAAgAElEQVToEPCJIFje20IQim5hpCf/ReB8CILyfTtLgnB2l/svsMU88lzVvfMYi4+BJMU8C+leEPAdAZ8Jgl2DINXKfAdYrhQEBIFSgoAVXZLPdIQglJJ1lmm4EfCJINBF9Icrrpl/C4aCgCAgCAgCgoAgUHoR8Jkg2DUIEu9bejeEzEwQEAQEAUFAECAEhCDIPhAEBAFBQBAQBASBUxAQgiCbQhAQBAQBQUAQEASEIMgeEAQEAUFAEBAEBIEzIyAahDNjJFcIAoKAICAICAJlDgEhCGVuyWXCgoAgIAgIAoLAmREQgnBmjOQKQUAQEAQEAUGgzCEgBKHMLblMWBAQBAQBQUAQODMCQhDOjJFcUeQImHWPfe73/HMN55ceWXJ++LwIcqEgIAiUMgSEIJSyBS0d0xGCUDrWUWYhCAgC/oyAEAR/Xr1SOnbPpsyPKFjfU31dLpTsrjR6rpBY6cRJY2Avby4ahHNFVO4TBAQBf0dACIK/r2CpG7+q+6E+Z9IkWKaFgiMIFpx2YiAkodRtMpmQICAI+ICAEAQfQJJLihIBIggWPdC9OIIqhuz5kogBaRHg0SCciVPYp2JzXbBKmlt/k1ZCtav+nPLJp7JfrkulvF9RbhzpSxAQBAoYASEIBQyoNHe+CHg0CLphmGLafa5ncqDBUP81NDgc+Tsoal535zky83brQfA8EF4EIQ/ikR8XyT0iYhjni4ncLwgIAoJA0SMgBKHoMZce80FACVw6mqt/MUGwpHAuIWsd3x3QiCAoN4RTPvnJ5VyCnS+iNs5G9ZDXBOz323tWBEE4gmx7QUAQ8DcEhCD424qV4vG6RawprHlzGgYMVvMrEeshEfSTAw5mEMr0QBoF1jDw36eSButSbsPjvsA/GLrZsjkIyzqg/rb5RPDYTIlv9kP6DNWkSTRy3eyhBqeQBGENpXg3y9QEAf9HQAiC/69hqZnBKQSBhbbBTgCKIBjQc3khaHBaAp1/p65xWAzgFAFsXWERBAeTDxbtbq2FogMOd3QEUw+3kkL9m67QoRlOJgUaDYq+sYIqHCZZsEiDuUJCEErNVpWJCAJlAgEhCGVimf1jksQHTF2AaWqwnBKhBDkpFIgsGAabH5g4QHMLc+skb7otwtBMwW75NWouU3FA9zqJSvA11IJlYvBOmES8hMMeSZOR44IrKwu6oSMgKBBaYBCgOdxmEO6GvRqpTQ8dIMLC/hJK6aE+ioXIRxAQBASBEouAEIQSuzRlb2Ce6AWDIwfoZ51NBqabAJ/UDTh05bxoODQWyCyUmVyo7y3RrGt0P+DQ6bRPbRo2oexU91qnfAqYULKd79c1pa3g9gwdOSficOzPDYjavRtpWZmo0LA+6l7SEZWbNIIzMMBNaJgM8E0adCYzqkvmM0pZ4aEOp3GwLHurLzMWBASBkoaAEISStiJldDxsFXCb+tWRnwQs4CJvRRgZWciKjkVKVDTSTsTAcOkIrFIRITWro3ytmnCGhwEO0gQoomDFJhqGDiMxGUlHjiLLqaFivdoIDC+nwiPdh3xFMJRSwnSQtAv1zCzs/+pbrH7tLeTAQGBIMFJS0lCxVRt0f/pBVLv4QmhOB7RsF9KPRCM5KQHlqkUipFokNKcTDvZN8LIzuMMnxRGhjG55mbYgUOIREIJQ4peo9A0w33gBO0Fg50QdyM5GRkwc9i9djWNLliHjwCGknTgB3eUCqlSGo35d1OrYDhf37olKFzaB4WBx7PFZSM9A9LLVWPnhp4i4qAm6PnQvytWurXwH3BoEk51wcITprGhpJXQDOVEn8Nv4qUjatBWXDXgA5RvVx55F32HFypXoOvBxdBjQD4HlykHLyETUr0ux7PP/oUabluh4710Ir1XT1Gqc6jipfBmFIJS+HS4zEgRKBwJCEErHOvrlLOyHalbnm2oEl2lrcOguZB6Kwo7/LcL+z75E9rHDCHAYCAoJY9t/RlYOMnKykF2pCmpe1Q2XPPwAqjRrCi2AnAepPQMpO/di5dz52L92A9oNfBQdH+gLIzwcAUwQlIBmnwZbAibOssAEQdkoXIeOYe37H4MMCW3uvRMhVatg34L38MXrr6LdPf1w5TMD+TtkZSN79178MGYCoo5Go8uYYWhx8/VwBgQo3wnoNreDMzsgSAZHv9zWMmhBoNQgIASh1Cyl/0zEFjTIg3a7ItoiCfgsfzIR/33yJTa++wGyo44iomZNNLy0C6o0bgRHUBDSoo7jyJ9/IvrAQSSHBKPmdb1w2eAnUKleHRXTkJmDfW98iKUL30KVpo1xxfhRqNK6GXsqODSnJ38CmSFYgFsaBOUEqZwXAaSlIysuHggIQGDF8jCORWP9tJfw56qluPTJx9HxofsQVD4CyHEBKen495U38fO77yGyW1f0fn4oKjZswP4SKiRTOTAa7Nx4eu2BEAT/2dMyUkGgNCIgBKE0rmoJn5Pl/GdGB5qnapVimUWoGTWQtnYzNkydjeitm5EZWQ2t+t+Li2+7iYU0CU89NR2Jq9Zh+8J3EP3XLiTXrIlLhg9Gyz43A7qOjB1/YcOU2dizcyeaP3Q/Oj/6AALKl0dOcgqSoo4jy+VCucqVEBTgROzBQ0iOOg49NBgV69VB1dq1ERgapnIkkB8EkYhsF5L3/IP9X32HPd//AGfL5rjy6SdQo11LGAEBSgOSk4P4Javw+5SZiMtMR6enH0OrO26BMzQUGsdDugClv+AoCiYltrwPFimgv4UglPCNLMMTBEo5AkIQSvkCl8TpuQmCqUpQynZbkSYSmDk5OPr+F9gwew5S05MR3utqdB89FBEN6rHKwUGnb8MFPS4R+974ALvefRtRuoFG996LnmOHIiDbhQOffIV18+YjJTwUV4wbhca9u7NzYsLWnVj9/kdIjY3DBZd0hDMjC3/9uRppUVHICQ5GRKOGaHnrDbjgqu4IiAiHDhccGVmI2bwTWz7+Aoc2bUVky4vRfkA/1G7XBggJckdDsFvl3/9h7eQZ2LlqJWpefTV6jhmO8Lq1oGsuODhbA5lAHDAMRRAobNL6CEEoiTtWxiQIlE0EhCCUzXUv1llb/ga5HfttBEHXgZQ07J7xMra89y60ypXR+OnH0f6+u+AIC2M1A4lWsunrGZlI+m0l1k+ZigOHD6JC76tx7fRxCMvWsWnWK9i5+AeEtmyO3jMmotLFF3FEROKy1Vg2eiISjh5CaM06yNQ0RJQLQ2BqGuKijiEpOxMR7TvhqueHoFan9tAMF5JWb8GKl19DWlw8ml7ZFQ1vvQHlmzaCMzSEQyJVhQjiLg44jsdg50sLsP3zL5BVvx56TByNul0v4URKDtYgOOGgKAovguBdQVI0CMW6TaVzQaDMIyAEocxvgaIH4JSyByxZTTdBEv66C4iJx45Js7Hhyy8Q1KgROj0/HI1uuApOOK3sBDAo8ZHLhazte7H2+XHYv2k9wi+5FN1nTERQfBKTgOj9/6Jyzx64dup4hNSuCYdLR9LSP7Fu5FgkHtmPpKBwNLv3Hlx8zVUwjsdg10ef4+CGNUiuUhXthw1C6ztuQ0BaBjZPmoW/Fn2DKu3ao9FtN0CLrMShlhXq1kbVZk3hCFZEgewkAclpiPr0G6x/+SVEw0CX54ajed8+0IOdcGoulZuBSAIoWVPupEr21RCCUPR7U3oUBAQBDwJCEGQ3FDkCuQiC2xHBDDAk/wPdBePoCeyaMgsbv1mEgCZN0GnMSDS5prtyHORsQ/THBeToyNr1L9aPGod9G9YivNMl6DZzEhz/HcWy0RNwPD4GDfrcgivHDEdwlSpMEJKXrsbakWNxIuoQwi7pgp5jRyLi4iZAciqiP/0Gq158AfFBgWg5ZCDa33MXcCgKS0dPQMauHXCFRcBVPgJpDifSDCeaXXMFOj/2IEIjq5qREIAjIxMx3/+O9TNn4nB8PFo88Rg6PzYAzohwQMtxEwQzt2KurItCEIp8O0qHgoAgkA8CQhBkaxQ9AvZECFZhRlLTm+kGSStgxCZg16SZ2Py/L6A1aIQOo4bhwht7A05KcGTGGxgGHC4DmZt3Y/3YSdi/ZQMqdL4UV02fhIyde7Fi/EScSEtG03vvxmXPDUZg+Qpw5OhIXLoa60aNxaGYKFTr0we9n38WgVUqw5mVjZOLl2DpiFGIdQCtBz3FZg1nQjJilv0JV+xJTsZEYZjsbqgB4c0vRORlHeEMD2dtgMrc6MLJX1Zi3cTJOHDiOBrf2w9XDnoMwZGVwYmbNIpooDmYZMeddVlyIhT9ZpQeBQFBID8EhCDI3ih6BLwyJXlyF5qRh+SDkJqBPbNewcZ33kVGhQg0eXQALn34AQSEB6vUxaYwDsgyEPvzMmycOg3HjhxCjV7X4OqxI5GwaRuWj5uImPQUNL3/HnQZPoRDEbWsbCQuW4M1oyfgQEwUat15B4cihlQoz3kM4hf/juXPjcRxzYG2Tz+Btv3vQWBwCIysbPZFMKs7KS0G5VV2OqGFBDFx4DGRicTlwslfV2LdpMk4EH0cDe7pi26DnkBI9SpMEIjgCEEo+m0nPQoCgsDZISAE4ezwkqsLAoE8CYKpSqDgBCII2TmI+uRrrJ7zMpLiYxHWozuuGjMclZs05BO4TkmHqJ0T8fh73lv469OPEBvoxEX3348rnnoMcUtWYNmEqTieFIcGt/dBtzEjEFKpIrTMLCQuX4N1z4/HwZgoVL+rLxOEoArl4WCCQBqEYYiBE22ffBxtH7mfUzOrzEtUsEFFHlipk3OlMtAM1i44s3MQs/gPrJ82HYfj4nDRQ/1xyWMPIrBqBQ6ZdHCZavJBsLIiWKWdRINQENtL2hAEBIGCQUAIQsHgKK2cBwJmcmOOMKDTNRMEw0DG1j3YNHU2Dq37E4nlK6LpXX3Q/p47OX2xk07sick49v2vWP/aQqRGHUZOk6boOmYEmvbshoTfVmLZmAk4cvwoal5/La6aNBrlqlaFIzsbicvXMkE4EnMM1frdg54jhyCoQgSc2dmI/3EZVg4jguBACyYI9yGoXDlVuMksvmSJcWUSoegFVUaaxD3HKGRkI/rrH7Fh5ixEZ2ej3aCn0PqBu2CEBXLkBUc6aEQTVHkp9T/6CEE4j20ktwoCgkABIyAEoYABlebODQF2UcyVSdEFJKQi7uc/sHnh2zj+104YFSshuEVLRLZpgYph4XD9vQ/Ra9ch+cQx5FSqgib9+qLNYwMQWqUisrb/jTWTZ2LX2tWofHlX9J45CZXr1oaWmY3EFYogHIg5hhp33WVqECLgyMpC/E/LsXLYcMRBQ7MnH0e7R+5ngsCBFma1RzOeUSV04hLPNHr1b6YJiWnY9+4n2PH6QsSHh+Kycc+j8fW9kROgwanpTDRUCSdWS5jBkUIQzm3nyF2CgCBQWAj4TBD4ZaiS18NBVfPkIwgUIAKqDIOpS7BKO7pc0E/EIerbn7Hro48Re2A/Ul0GcoKcCHQ6EZaVjQDNCb1SZVS/thfaD7gPEU0bKSfAuATsXfAu1r33HoyGDdBt1iTUbdta+SAsX4u14ybjnxPRqHfn7bh65BAEV6BUyVk4+fMKLB0+EvG6gZZPPYo2D92P4IhyqkokZzVSk1blqFUNZ5VA2UyjTCWqo2Kwdc4C7Fy0CEHNm6HnlLGo0rIZXBqRCCIISnvg0R3krTmQMMcC3GDSlCAgCJw1Aj4RBJ1Uvu4KeUIQzhplueGMCNgJgjqGm2GP2TlwHY9B4rotiF63AbG7dyP9ZDyfu4PCwlCxaVNU6tQWVS7vjPAGdaE7VcpjR2YW4n9djjXTZ+NwahI6jXgGre+8lZ0DM//ah6gffkNcchJCO7XGhb17csIjqhyZvv0vHPj6e2Q6NET2ugLVL+2IgKAQpS0w6zWoh8EkC0wQ3DUgOS9Dxva/sGr6HPyzbSsuuvsOXPr0YwipUonDIE2OrYpEuf+bt/ZACMIZt41cIAgIAoWIgE8EwbrInga2EMckTZdRBOyb0Q0BEQUq7Zydw+WUsxOTkZ2cyhUYteBgBFauAEdEGPTgABUdwAWW6BifA+NYLLZNeQFrf/4JdfvcgqtGDEZwZBUgIxtadg4XUDKCAoGgIKXmpxDEtHTVl8PJKZRBvyenSFODwLmQbGSZnRSpO8VqOILh+Cdf4/e5ryK9fDn0eG4IGvXqBo0rOnq8M600y95L7Z1NsYxuBZm2ICAIlAAEhCCUgEWQIZgImPLT7bRoAeOWq54L3F9pqvwRRzWwbV/jUEINOTCyDMR89ROWvzwf6WGhuGLMUDTodhkTA7dTIJsKLGdBClQgUW+2zk4HquwzEQHLYyAXQfBYRgCXC1piMrZNno31P/yE+n1vQdeBjyKsRiRrHyw9AxeAMuyOiR7iIARBngZBQBAoKQj4RBBOd8opKRM5m3HkeVI1GxC17tkgWYjX8kndKx7STRgspT4JblPw0gmfTAumTwATBPJXOHwcexe+jz8XfYvat92IbkOfQFCVKkwklLrfbv9XPaqDvlelCErKRI274xVMK4N5LSsS0jKQsHINfpr6ArSQQHQZOxz1LuvMgzLrNpq3W0mSTo+f7MVC3F/StCAgCJwRgVJPEE5HBvJCR17KZ9wzRX7B6dbQo1xQun8W+iytdRUumeVC2o6/sOOHn5EWWRktb7sBlWvVMBMVWad4j6rC4gbefVpkwrM/zGyOHH1B9+vQU9Kxf+ly7F+3EQ3atEaDnlcisFIFdxkn0xphUgzKCCkEocg3k3QoCAgCPiNQqgnCmcjBqULA88YWouDzHir0C921G+xFHOzSVgUQmALXogy2iIj0TOQkJyPHoSGwfAQcIYFwGE5TVWBlMFDTYH0EpWEw/+c2BJjehbwvqGlWVZgdE0egJErZ2ciKTwE59QZGlIMjNJivc7semOOnKAZ2UmQyI7kPCn0DSQeCgCBwTgiUWoJw2lOnO95euZZx6V2b45n3v88JWbmp4BCwDuksj1VoodIS2P5296a+pORFyvxAPMCAZmiq2iI5EnLCI3I8NJRvgT06gRomzYN5ryINql8W7OylSGmWLYLAv2QNgmHkwKVTGmUiH5aGgPo2r+G/TcrhMDMyCkEouH0iLQkCgkCBIlAmCAJNkv5YREBnJzZTM8zvegfUd3SqM93X5MVdoBvtvBqzuyK4NQWqxdz6Avs3Nh8Gy+fQHIRlHHBXhbQpHzgqgUIWLGZgbhS3McI88NM+IYLhGYVyblSlnImYeHKFqJTKlm+D2bS1v2SfndfWkJsFAUGg8BAo9QSBJmjlcSAY9+/fj0OHDvF39JKvV68eGjVuzKl7WSYIQSi83XauLefjq+gLQVCnf8sqQGmcKSbRhczYOJw8FgVdNxBcuSIq1asDZ4BTnfApaoE0BuyUaAtqsEgDl5tmnYFKkeR2VLQ7NnoIQl5GBPd3QhDOdVfIfYKAIFDICJRagmAnBfRvsilnZWZh3rx5eO+995CamoqQkBD0H/AghgwehLCwMCEIhbzZzqt5b5KQW3bnapr9CLyvZ3MCxUS6YGRk4fiyP/HHm+8gLTkNDa7uga5P3I/AcmGqiJJBlRk9ZDFXMIVpklC84TTMxXuyXpcKQTiv3SA3CwKCQBEgUCYIAk/SADIyMzBx4kS89tprTBCIFAx8ehDGjH4e4eHhQhCKYMMVdBd5imh3ymb1WzIf0YdNTLQVUtMQ9cV3WDZtBlJSklHr7rvRa8KzCCofDjgCoOmKIHBKccvvgRtQ2gTN1Db5RhDcGRcKeurSniAgCAgChYpAqSUI9olZPggZGRkYP2ECFrz2GtLS0hAaGoqBA5/GmDFjEF4ujF/+Vp0JiWIo1H1XqI2TbwC7DtiIAidSMqsfEEGI/vhrrJ8xDSkZWYi8tx+6jRuGoHLhKomSbiZOYudFlXiJPmxysBEEjwdEftORCIVCXWhpXBAQBAoVgTJBEPgUqetggjB+PBYsWOAhCE8rglAuPFw5Mnr5IhQq+tJ4oSBwCkFgk4M671MVRSMlBVEffIH1L8xEfJaBWvf2Q/cxQxFERZn4Q9d7HFbZH4EJgiPXHimUwUujgoAgIAiUEARKLUGw42tpENLT09nEMH/+fCYI5IMwcOBAJg2WDwKfFOnkKM5jJWSLnv0w3JoD61YzEkEJeg1GUhKOvPkR1r88F8kuHfUffgiXD38aAVTWmQ/9FNFiOhlaAQ22/SB74+zXRO4QBAQB/0OgTBMEZWIYiHHjxomTov/t3XxHTAYBy8RghRcqOW8ShPgEHH79fWxc8CpSXUD9Jx9FlyFPIDAsDLpZ01klM1If73yLQhBK0WaRqQgCgkC+CJRJgmA5KVoEIS8NguwZ/0XATRC4BCNnXTaTK6mESUbsSRxe8C42vfk6EnQNTZ8ZiEueeAiBoUQQVOgiEQRvYuAmDKJd8t/NISMXBAQBnxEQgpCPicFnBOXCkoWAlXXRnmiR1QeUWVFpA/ToGBx89S1sev9dJOlAsxGD0PHR/ggMCedryFtBkQPzv0IIStYay2gEAUGgSBAQgiAEoUg2WpF14kUQPP1y8mWOZHAdjca/L76O7Z9/jMTAILR6bgja9b8bAcEU5mgSBCv9dh4mhiKbi3QkCAgCgkAxIiAEQQhCMW6/QujaMidQwSV3lKGqBW39ynXkOPbOnIdtX32OuKBgdB73HNr2uwOOwFAuoWDGMrqrLeZnaiiE0UuTgoAgIAiUGASEIAhBKDGbsUAGYmVO0lUhJv4oj0XoZGIwDGQfOoY90+Zi1/eLEBcUgq6Tx6Bl31vhDAzh4oq5siiKBqFAlkUaEQQEAf9DQAiCEAT/27WnG7G7flLuPIeqkCLVYTCQ9d9h7Jg8G3t++QHR5SLQa+oEXHzLdUwQrPILqtyCu9hz6cJIZiMICAKCgA8ICEEQguDDNvGjS9y5lz1FlEyjgXJS1A1k/nsAW0dPwZ6VSxBdvjyumzYJF910DRwmQXCSm6JmZUKwakv7EQYyVEFAEBAECgABIQhCEApgG5WEJkxm4EUQKNsyF29iDQKnSULK3/uwdeRE/LNmBWIrVcaNL85A4949gMBA1iBQTUfLAUEqKZSEtZUxCAKCQHEgIARBCEJx7LtC6NNWtsn0RuQaXVZdBtMfgXwQUvb8gy2jJuKfdX8itkoV3DbvRTTsfgXgdELTrBBHt49ivvkQCmES0qQgIAgIAiUGASEIQhBKzGY8v4FYGgSV6IjNCm4vRYs8kAeigZRde7Fp5Hjs37gGJyOr45aXZ6Nht8thuAmC0iB4fByl6NL5rY3cLQgIAv6IgBAEIQj+uG/zGLNJDJgLeAiCSo6kTAyURRGuHCRt/wsbR07AwR2bkVStJm6aNxMNunZhgsCOjDZ64HFULCUwyTQEAUFAEPARASEIQhB83Col/TK7D4LKluTRJVjZEQHNpSNh6y5sGjURh3ZuRVKNmrh53izU69LZrUGwijV5YhhEg1DSV1/GJwgIAgWPgBAEIQgFv6uKpUWTINgSJVHeA6VPUDkRHIYLmg4kbdqBDaMm4vCe7UipVRc3v/oCandqD1Cpb86DoMPBORdZ7yA+CMWyntKpICAIFDcCQhCEIBT3HizA/m15lnVwYiTro+oruKC5DCSv3YLVYybj2N7dyKzXCDe+NA21TIJgaMocYS/VJJkUC3CJpClBQBDwGwSEIAhB8JvNmtdAc6dD4ppMZuZE5YpgT7esGy44XDqS12zG6ucnIGrfXmQ2bIKbXpqBmh3agGIcreuJIFgfIQh+vUVk8IKAIHCOCAhBEIJwjlunJNx2Cj3ImyCoZAhQBMFA4rK1WDdmEo4d2oesFi1x06zJqNG6BQxKgmDyAiEIJWF9ZQyCgCBQnAgIQRCCUJz77zz7zoMg5PZM5KgEM6YBuqbDkaMh8Y8/se75CTgWdQCulm1x86xJqNqiGQyu5Ki8Drhmk8kWNCn3fJ7rJLcLAoKAPyIgBEEIgj/uW3PMNuHPPgaq0hIpDEjAq6JLyklRFWsy4Mg2EP/rSqweMw4xJ45Ca9sJN04fj8rNL4ThUJ4K9FE+CCrNshAEP94iMnRBQBA4ZwSEIAhBOOfNU9w3cnSCexCKIJjWBDeBUP9QBMEFIgg64n5cijWjxyI2IRYBl1yGm6aNQ8SFjahQg+m0oMiBIgZCEIp7naV/QUAQKB4EhCAIQSienVcgvXoIguWbaOU/cHBAg9IHqDoM5s9ZLsR+9wvWjZmA2OQEOLtejlumjkNY4zrs4UjGBWVgoD9EDkgLIXkQCmS5pBFBQBDwKwSEIAhB8KsNm3uwHgrgJgimEsBBfxNBIGJgy4fgyMjB8a8XY83EyTiZkoiQXr1x04RRCK1fizUIiiDQDZ5ARyEIfrxFZOiCgCBwzggIQRCCcM6bpyTcaJkYbEUcuUATEQTThUAN09IgZGQh+vNvsWrSVMRnpqPc1b1x46TRCKtdnTUInugF5abIt+bSIIg2oSSsu4xBEBAECh8BIQhCEAp/lxVSD6cELFA/pmmBNQh2WW4lQErLwLEPv8SqadOQBB0Vb74Z1z0/FKHVI1WCJOXnmIsU5M6DIAShkJZTmhUEBIEShoAQBCEIJWxLnt1wTtEg6CTcDZUPgUS9TZ5TZkUtNR1H3vkUK2ZOR5rTgcg77sTVo55BSOVKpqJB3aCRE4P9Zlttx7MboVwtCAgCgoB/IiAEQQiCf+5cc9SeKAbzCzYtWJWa6AciCQ7WChBBcCSn4fCbH2LVnBeQ6nSg1n33ouewQQiqUAGaQT4LJkHgqo6exEkesiAaBL/eMDJ4QUAQ8BkBIQhCEHzeLCXxwlMIAn9h2Rd0FQipqYgECnN0JiTjv9ffx/pX5yElMAANHhmAywc+joCICDgMXREEzSrUZCZSyDVxIQglcR/ImAQBQaDgERCCIASh4HdVcbbIjgk6ByxqUATBYIGvwWXocMQmYO/8t7HhzTeQGR6OZk8/jo4D7kVAeDg0iyDYcx+cwgeEIPVkwA8AACAASURBVBTn8krfgoAgUHQICEEQglB0u60oemINgsEJkyhsUSVTMiMSSLFwPAZ7XnwNmz75CFkVKqDV8CFo17cPAsJC2XdBGRY8pZ5zuSHk/qEoZiN9CAKCgCBQbAgIQRCCUGybr9A69tIgUPAifcjvUD92HFunzsG2RV/BVbESOo4dgZa33ghHSDA0yqRoJUhSd+T2Uyy0AUvDgoAgIAiUPASEIAhBKHm78jxGpFwQrCQIFNJgaRC4nCP0I8ewadJs7PxxMRBZDZdOHIWm11wFR0ggeykATmhwmiOwOymex6DkVkFAEBAE/BABIQhCEPxw2+Y/ZGVhsFwXzSgGUBSDBs1lIOfgYayfMAN///4bUL0GLps+Do26XwFHMBkWyCQRAIcW4CEIpQodmYwgIAgIAr4jIARBCILvu8UPrlTpDyxfAg9B4LoKLgNZ+w9g7XMTsG/1Sjjr1Ue3F6agdueO0IKIIJAGIQCamyBQY+KU6AfLLkMUBASBQkBACIIQhELYVsXXpNIdmE6KnC2J/q1CFx0uHZl792PdqIn4d/VKOBo0QK95s1CjfVs4AhzQtBwYhjM3QdBy51EsvplJz4KAICAIFC0CQhCEIBTtjivk3hRB8PggGIZuEgQnE4SM3XuxdtRE7Nu4FlqDJrh6zhTU6NgWWoATDs1lEgTLB0HlQRAdQiEvmjQvCAgCJRIBIQhCEErkxjyfQVlFoA0mCi7ohgOa4YBDN5C+bTfWjByP/Tu2QmvaFNfPmoLIdq2gBVBpZ9I2UOSCKtnE1ID/LxThfNZD7hUEBAH/REAIghAE/9y5pxl1boKQYxIE0iAYSNuyE2uen4j9u7bB2awZbnxpBio3uxCakwiC6d9oEgSmBkIQSt3+kAkJAoKAbwgIQRCC4NtO8aOrLIKg/A+ylIkBgXDk6Ehduwmrx07Ggb17ENyqFa5/ZRYqNmpI0Y1WOiXOf+DWGbCJQTQIfrT8MlRBQBAoIASEIAhBKKCtVHKa8WgQqGhTttIgwMkEIWX5GqwdOxGHDh1CcKcOuGbeDFSsVVvlRNI4GJInooo2mf8WglByFldGIggIAkWGgBAEIQhFttmKoiMuxcBZD8hcQD4IOXBR8iPdAUd2DhJ+WoJ1U6bj4NEjqND9Slw7dzrKVYs0KYABh6aZ6ZZtBMGs8FgU45c+BAFBQBAoKQgIQRCCUFL2YoGMQxEEs1QTEwSzcBM5KWZmI/arxVg/axYOx5xA9ZtvxNXTJyCESj1zeWelM1D1GIQgFMiCSCOCgCDgtwgIQRCC4LebN6+Bc4CjWYtBhTsqfYKma9AyMxH1ySJsmjMXx+JPon6/vug5eTScIaFwsDVBlXZShgZ3HINpbihVMMlkBAFBQBA4IwJCEIQgnHGT+NMFiiCoAEfKqEhinr+j/2Rk4NAbH2DLgtcQk5qGCx56AFeOGQEtMJCjFdTHStMsGgR/WncZqyAgCBQ8AkIQhCAU/K4qxhatWgzsqGjKekUaAKSmYv/8d7Dt7TcRm5GFpo89iCtHPANHQJCyLTCLUAYGe0yDcliUjyAgCAgCZQsBIQhCEErVjlfVHA2W8dbmdhOExGT8M+8N7PrgXcS4DDQf9CS6DHoccDjNwEa6TxELjW0OJjEQglCq9ohMRhAQBHxDQAiCEATfdoqfXOUhCGY9BpL3lp0hPh5/z3oFez7/DHEOB1oOehKdnn4sb4JghTkyTxANgp8svwxTEBAEChABIQhCEApwO5WQpsxqjmwtYIWA0groJ2Kxe/pc7P12EU4GBKD1kIHo8OTDgMMBBxd0Mth/wUMIVKplIQglZF1lGIKAIFCkCAhBEIJQpBuuSDrLiyBQVYYj0dgxYy72Lf4eMSEh6PTcM2j3wD0wiCCYAY5ugmDXGogGoUiWTToRBASBkoWAEAQhCCVrR57taKygg1z3meYFK6mBWf455+BhbJ8yB/t/+wUxFSqg6/PD0OLO20Axju7kypaPoqk84GaFIJztqsj1goAgUAoQEIIgBMG/t3F+BIFnRaYFU+IbQNa/B7Fp0kwcXL4E8VWr4coJo3DRjdcyASCfRL6SHRaUfyL/y/Mf/8ZJRi8ICAKCwFkiIARBCMJZbpkSdrlFEHIRBcqDYKjqjKb/ASVKyvx7H9aPmYSja1choWYd9Jw0Bk2u7QWq8EwaBH4YKHeCw8H/prTLoj0oYestwxEEBIEiQ0AIghCEIttsBd6R6YRoKQvcNZUoUZIp2xVBIA9FAxnb92D18xMQvWUTUho0RO+pE1C/x+WsJXCw+kCRBMp7QLcoglDgo5YGBQFBQBDwCwSEIAhB8IuNmu8gOWWiLb+R+0fdLdx5k+sG0tdvw4rR4xC3ZyfSL2iG3tPHo06XTsrEYBIEZgamzwGnWxaC4N/7Q0YvCAgC54yAEAQhCOe8eYr9RncYoxdBoCgGDk80CzDRz7qO1BUbsGrseJzctxfZbTug99SxqN6mlVl5QREDjwbBgMPhKPYpygAEAUFAECguBIQgCEEorr13/v3mRxA4FaKlVlAZFTXdQOKvy/HnhMlIOPwfjC6X4+oJz6NS84vcBIGa43LPpplBUiyf/xJJC4KAIOC/CAhBEILgv7vX5ACcStlWZskq96xZtRnJDcFlIOarxVg3eSqST55AUM9e6DVpNMo1rE/uiZwgSREEj9ZACIJ/bw0ZvSAgCJwfAkIQhCCc3w4q7rvJveCMBEGD4XIh6r3PsX7mLKRkpCL8uhvQa9wIhNWuyTMwSzAox0TzIwShuBdX+hcEBIHiREAIghCE4tx/59+3p2iju1CzVeZZ6QRM7UJODo68+RE2zX4RqXo2yt10C3qNGYqQapHua/hay0FRkiOd/9pIC4KAIODXCAhBEILg1xvYtDLwHNypEHSd/Qp4c6sSCzAyMnB44QfYNO8VpBg5qHRnX/R8bjBCKlfykAghCH6/F2QCgoAgUHAICEEQglBwu6mYWlLlnC19gemUyFmSlBcjZUc00jNw6NW3sX7+fGQ4NUT2uxs9nhuMgIiIXKMmDwQV8ai5tQnFNC3pVhAQBASBYkVACIIQhGLdgAXROadCYDKgPu5yCqYGgXMlJaVg/5wF2PzmQmSGhqLOIw+i66DH4QgNzZXqwHJ2FIJQECsjbQgCgoA/IyAEQQiCP+9fj2nBJAiKJhgeE4NJHoy4eOyZ9hK2f/oxXJUq4oLBT6HDgHuhBQVx/gNOm2BDQhwU/X5byAQEAUHgPBEQgiAE4Ty3UPHfzqTArkFgzYGnSBP92nU0GtvHz8Cu778DalZHm+eHo/ltNwGBAUwNhCAU/zrKCAQBQaBkISAEQQhCydqR5zga+0ZW3gj0X1VTgfwTMv/5D1tGT8bfK5ZBb1Afl41/Hk2v7gktwKkIgk19oOiCfAQBQUAQKNsICEEQglAqngDPRlb0gJIf6eScSP/WdaRt242Nz43Dvq0boTW9CN1nTED9Sy8RglAqVl8mIQgIAoWBgBAEIQiFsa+KrU2iB26Tg5kjQctxIXXtJqwZMwkH9+xAYOu26D1zEqq3aalKO3NNJqU34GyKxTZ66VgQEAQEgZKDgBAEIQglZzcWyEg8BMFyS9CycpC4Yg3WjJ2MI//9g5DOl+Ka6RNQuVlTFcpoz57o5axYIEOSRgQBQUAQ8EMEhCAIQfDDbXu6IZsEQTcrOpJKIDMb8b8uxbrxkxEVdRTh3brj2unjEdGgniIHQhBK2R6Q6QgCgkBBICAEQQhCQeyjEtQGlWpSUQ2kQWCTQXomYhctxvopM3A8IRYVrr0O100eg+BaNdwaBMstUdwTS9BSylAEAUGgWBEQgiAEoVg3YMF3fipB0FLScOLTr7HxxZcQlZqIarfdiuvGPAdHZBUuzmTPeSAEoeBXRFoUBAQB/0RACIIQBP/cufmO2u6DYOZCSE7D0Xc/wfq5cxHnykHd++7GVSOHwlG+vCr1bC/xXMrQkOkIAiUeAU8SVHOo5hf5sHVbyhP31JSV8Nzpff5tsjoyHwjPvb8SvybWStiAycrORnx8AlwuHVpsbJxRoUJ5OJ0UJ577429Z5ogF0Z/09HRMnDgRr732GlJTUxEaGoqBQhD8Za/6OE4bQeAcywDik7Bv/jvY/PoCJAUGoNEjD6LbswMBSrNsGBzJYH1K/yPvI4xymSBQVAjY5K+VCdXetf2ZzE9Uq+utOKT8Bq5ayusZ91RyOfVe63rvvjnuqZS/MESDIAShqF4DRdSPGejIuZLMlEnRMfhr1qvY8dknSIkIx8WDn0bnR/rDCArkhIuaw/OUl/LnvYjWQLoRBM4CAVPy5kUOvAW6JaTzFtpnIgieMVnJ0HJXcMl7zKdr1d8Oy2exKnypEAQhCGe7Z0r49SqLIv/fVI/lHDyK7WNn4O/ff0Rqpcq4ZNwotLj9VhgBTpVi2SuKoYRPUIYnCJQqBNxCyHx0Pady3ZYy3Up/5qEG5G2kBL0zVyZUFmwmQu7ia16I5acVsLTN5JvkLvvm/rfViO1AcZ6mjZK+kEIQhCCU9D16luOzjiOWJsFAxp59WDdyEg6vX4XM6jVw+bSJuODaXjAcDiEIZ4muXC4IFBQC7tO77mVj0FSadMAFQ3OBMpnRJS4D0HUHJzLTNAMOhw6H5oCmOc1SLBoclCiNBTrHMvF9OoczaXByUTYyC6hibuqE7DFMKH7igqEbcJJW0QBy6PeaAw4H3cOF5TmVGleTB/XHgykoSEpcO0IQhCCUuE15fgMy/Q6gq5yKOpC27S+sHvo8ju7eDlfdeug+YxIadL9cCML5AS13CwLnhYCbFpg+Ykpi6+wXROSdxHEWNEQnu7Bz73HsP3YCKRkuBDoMhAQAdaqGo9UFddGwajg0h5L0BshnjsS8Ov8ficvA6s17UDMoHe3btEDF8hWYPFh5U93J1NyUwqrLoiElKwdrdh3EsRPx6NisPprWrQKn6XZAWkchCOKkeF4PgNxc+Aic6rRkEgTDfEW4gNQN27Bm2PM4vO8foFkzXDV9Aupc0kGdBzSNQx1PVR4W/tilB0GgTCJg8zlwp0W3zAKubI4sMpwBSMwGth1IxG8bD2D7/hNISs0EDJcKTYaBiKAcXFQrDL3aNUH7i+siIowqswaaBEFDbJoLi1b+i2VrN+LG1tVwy1VdUL5cmCIIltnANEUqykCaATY68uEiOdvAD+v344ufl6NLi8a4q3cH1KoYDqem05UwSHthLmBp9UUQDYJoEPz6HZUvQSDxT8cDl4HkVRuwZsRoHD70HwLbtEXPGRNRs3VLVchJA79wrHakDoNfbwcZfDEjkOfzaI3JVOfbfjQLq5HIVg7FDiMHhqEhC06s+zcBn/y+B9sPJyLbpaNO5TDUrRLKV8YkZOJQbCqcRioaVw1C324XoVvbhggOCGRRn6YDa/fGYeE3G6AZWXjmto5oe0F1BMIA+yQ7TB0CEwTLZ0HlRGHzgQGkA9h1JAUvfb4OGalxGHB1K/RsdwFCAkxiQCZKM5JaCIJt4/kbGBLmWMxvjULs3lIR2r2RlXuRTgZLaNkuJPy2CqtHj8bhEzEI73Ipek8bh8imTVVBaNMPgbWbUqipEFdKmi5VCOQRb5jrK7dSLrd/QV4hi8r2b1Vh1ZkgHE124a0fd2HJ1iOAw4m2jSrjus6N0KB6Odb8nYjPwPKtR7Fi1zFkpiajc+NwPHxjB1xYuwqf6g8lZuO9X/Zg1dZ/0KVlAzx5QwtERgSxf4FhUB+A0+mgECZk57iQaboXBDs1BDiUn0M2RUhnGPh29UF8/cdGtKkXhkdv6YpGkeV5KTn6yU0Q+JtStcT8TpQ8CAMxfvx4hIWR6kl9/I0AlbpdeRYTyosgqBeODgeZGdKzEfPVj/hz6mTEJKci8sYb0GPMCJSvU8ta7FyPdel7xM8CTLlUEPAVgTwJQh5f5tWedZnbQ1CD7jBlrWEg0wBW7InDq99uR1RiDtrUC8WTt3bARTVCEKK5kAMHMjUNx+Jz8OYPO7F8ZzSqBiahf89muKnLhQgMDMLSPSfx6ndbkZ2WgPuvbYtbL6kLp8OBY7FJ2LL7ANIzM3Fhk4YIDAnHzr8PIPpkEoIDA9GodkW0bFIL1SJCWQ4QSdh8KAUvfbYGaUnH8egNHXD9JReaGVg9pOB8EzX5CntRXycEQUwMRb3nCrQ/N0FwxzWZqZbJzqi7oKVm4PDbn2LjvLmIzcpB4wfuxaXPPIXQqlWFIBToSkhjZQoBKyTRUr2xWt5QtdJV0AB/PMGJZtigmxyon/n3hgbDAehmG0lZBj5dvg//W/434MpAv8sbot81bRHCkQSqNHsOOTAaGhZviMLbv+xCVlo8rm5eGY/eeAkCyoXjnV/34cuVf6N++RwM6dMZ7S6oApfhxPp/Y/HGt5sQm5iMCxvURXKmjv+i4pGV7WLfgsoh2biyZU3c2b0tqlUKZ4JwNFHHK1+uw+Y9B9CrVVU8fetlqBhBB0rKwmqOqJSGOwpBEILg1+81e4pUS1VJ2kKiCU5dh5GYiv9eeQvb3lqIeGi4+KnH0O7xhxBUoUKuEEfRHPj1NpDBFzUCbkFvqV0tdbT6Bf/XJjTV86X8gljMs/bADDtkNmFA13TkgJwLdSxcvBtLthxGhDMDg29pjV4dGqswQ0qNYIYyZsOBTQdTMPuLzYiLi0PbOiEYfMelCIgoj5c+34wVu47iiqbheLbv5ahRwYksIwBr9sbh5UU7cSIhFRVDgEa1KqFGlfJIycjBtv/ikJyUgAYVsvDY9R3QtU1jZMNAYo4D7yzegx/+3I2LqwdgyG0d0axhTVUIlv7ndnIufW8RIQhCEIr61VKg/XkTBMvZSYeOAN0FPTYB/7y4ALs//RAJAcFoPXwIWtx3NwLLhZvx1OqhLn2PdoHCLI0JAh4EvC0Jph1eCROLIKjTtTrzW8+Xsv3zVYofcDSAlYlAhwsuOHA81YWXv96O1XuiUS00B4P6tMeVzWsrgmA+8NRuFhzYcTQVL3y6EUdi4tGchPfdXZBmhGLel5uw92gCbm5fGU/1uRThThcyEIC1e08yQTh2MhWt6oSh/7WtUb9WeSSn5eDr5f/i5437EaYn4f7uF+C+azoiGy6kwIkvl/6Hj3/fiWrBqXjkhvbo0a6JGfKociKY6shSt0uEIAhB8OtN7fFANl88yj2RHZEC4ELOwWjsnvUq9n+/CAmhYeg4dhQuvP0mOENCclVyFILg19tABl8oCOTjU+DmAWb0j0kQrCdQCXw66nuEv1UWJVPXEJucjrj4FNSNjECl8BAzW6IKJ9ANDVGpOXj5mx1YvTsK1UJdGHRbO3RvUQcGGxY8cUYZcGDn0RTM/mQjjpxIQMsaARh0dxcciNWx8IftiE1KxZ2dIvH4zZcgyKEjgyIj9p7E3EU7EHMyEbd0ro8Hr7kY5UKdSHVp+G71YXz0605o6Sm464qGePimjpQ2Calw4Ns/D+L9n3ci1IjD3T1a4bYrWiEkwBP1IATBtgH9zYlPohgK5e1RIhp1EwTzXWZolg+Ci50Us/4+iG3T5uLokl9wMrI6Lh87Eg2uvxoBIcGiQSgRKyiDKLkIeBEEb7OCpS9wEwRzJpbzIf3ePF7TOzjN0LDnSDJ++nMXjh09iD49OuCKVvUR5KSU55QBURGE6HQXXv9+D5ZuO4wKAVl4+rpm6N25KfsUgQqrkc+CYSDb4cDmg8mY+dkWHI9LQPu6gRh8ZxdsO5KB1xfvRFZ6Gu7uXB2P3NgJDi3H1CDE4+VF23A8Nh73XNkQ/Xu1QEiwhhTDgUUrD+O9X3bAkZ6Me7s3xoM3dGAviWyHE9+uP4x3Fu9AYE4sbu3aDHf1aIfwIIqCsBIrlU49pGgQRINQct9PZxgZv68sYqAyq/JLhkyapI7UXC6kb9+LTZOm4/iaVUhs0Bg9po5FnSu7QnM6VepV004qGgS/3QYy8AJCIDcdOJUceEcu2k0F5GDI+gI2AVASIWVLcGlAZo6BoyfTsXr3cSzffhT/RichKOckOjaugCduugx1qlc07fmUPdFAfLaGr1fux2fL9gI56ejbpTb6Xd0BlAdJ6SQcykkRwOIN0Xjrl91ITUvF1W3q4OHrLsb6fxOYIKSkpKBflxp4lAiCQ0e64cTavfF4+ZvtiIs7iQe618fdPVojJNiJFANYtPIQPvh5B/TMONx7ZVM8cuMlcIE0DwH4bu1hvPPTdoS64nFnj5boc0UrHo8QBCn3XECPnzRT0AhYBMEdwKAogplfXYeh60hdtxUbJkzBie1bkNysOXpPn4Bandqr/Oo29m/lZi/oMUp7goC/IHAqQbBUA0r9z8Kf/Qs9an7LGZHylpI/AdVC4JQChvInIIfDzftO4vdN/2H7/lgkZgfApWuoGZqKLheUx9292qNONeUP5NQccBk60nQn1u+Nx4LvdyAqLhVtawF3XdUKnS6sCTq0U+6CDEPD3uPpfKpft/c4qobmYMB1HdC7fR1s+S8Zr323BQdPJOO2DpF4sk9HBDsofNJOEOLwYI8G6EsEIdCJFABfrzyMD3/ZBj3zJO4hgnADEQQD6XBi0epDeOenHajgSMeD1zTHtZdchECnSrYsPgheO1xMDP7yyJfucaoXkXflNusLF4xsF1L+WI01U6Yj5p+dyOpwKa6dPgGRLS9mLUOA7eEWglC694rM7swI5E0QTDUdcQO3g6Cqd8Bsgc0CKkTRQSTCrHSQlmNg77FULNt+GKt3R+NYfCZyXC4EBTrRsFoEurWqhStaVEetysEIclLRJarJSEWXdGTCgegUHZ/89g9+3HgQwchA81rl0KtzMzSsHsF1Fo6dzMCybYex/q9jcGVn4PKLquKhmzqhTtVy+CcmE/O+3oIt/x7Hda0q4Jk7L0O5ECDDCMDav+Mx75sdiDsZj/49GuCuHi0RFuhAqqHhf6sO4uNfd8DISka/yxvhkRs6IcfQ2QfhoyX78Mkff6NeRBYG3tIBnZvV5jELQRANwpmfLLmiWBCwm0TJVqZUoCoIm04whsuF2EU/Y/3M2Yg58h+Ce/RG7yljUL5RfVYNBnCIkrIdCkEoliWUTksQAp4YBCtDgTLV8Ue3PyHuJ009buQWYNB1Lui6hrh0A+v2xuKn9Qew7WA8MnUnAh0OVA3T/8/ee8DJUV1Z46e6OkzOOSrnLKEcQAEMxtn4bxu+3W+d8eJ1RgYMIoiMwTYL2F7bu+u49uew2DgJEAgJoTwaZQnFCdLknDpU1f93X6iu7pmRRtJkvbbFzHRXV72679V759177rmYNy4N71k4FtOK05DoIcVjrqHIQwfERTAQsjR0QMehslb8ctMR7D/bBCMYQkq8juzkWLh1DbVNHahtDUDXLEzJ8eCOdTOxeFoBvJqFqi7gh386jH/sPY0F+Sa+9pHFKM7PYACBSIrf/d+DaGhqxR2rinHHmumIJQ+CBfxu6zn8fFMprEAn7iCS4q0LWcij1g+8+PJB/GPPaSwa48WXb1uBcVkJ7N6lNDM30ugLVA4rDoKzMc7n5mo9FoqkOIxmoX5sipzQeCxUTjLcg0CEJvIgVP7n/2DPd7+HxuYGpH7sY1h7z1cRk5NthxdkEpYCCP3YMepUI8oCPXAPhYQR1xzgAEEuf2E/g80B0mhZB5oDFo5VtODVPWew92QdqlqpFIqGRHcAUwtTcNP8YsyfmIncJA8vn0zPLKVCyjiFKKBEXsEQLLSEwLwQr+4pw96jFWjuCPAUSdOE22UgLiYGM4rTcdOCfMwbn4Nkn85CAi2mhpe3l+Nnmw4j3dOGO98/H8tnj2HAY9fJRvz4lQNoaqzBh5aOx8fX8BBDhwX8eUcFfvPqPpihdnx82Vh84sZFzJtxqj6A5367C6fKq/GBhQX4v7csQLKPzxgUqlQhhgEIMfQGBq7myeoNSCiAcDVWHb7fjQAIpsXin9yHYMFlGEAghNPf+xFKfvAjtAQ7kf+5z2DlV74IT3Iym+14VTiJ/Ucf+h++PadaNlws4AwrRP7OgTZ/pohXIJ8VrjQi4Ti5D4KmiYrmILYeuIDN+87idE07AvDA4wIK0mKwfHoObphTgLEZMYjRw6DDRYsrZSSwike8CDP97rKowqoBEkLqNIG6thBOn29HZU0rOvwBGIaJuBg3cjISMDk3CfnJHpbGSCWfLVODX9NReq4Vz/+xBA115/Hx66fgoytnwe11obY1iGMVrQgFulCcGY/xucmMrEyEx9P1fpw73wKX6cf4dA/GFGSiw9Sw43gDvv/b7fC6DHzxgwtww8x8CoZEqSgqD4I9pq92R88mcafCTfTTwsZmZESsL9dUAGG4TDuD0w7h/BS7CgdAsGiSoTrPfhx94nvY/9//jXZYmPS1f8Oyf/0c4POyEAPjO4nnWnkQBqfP1FWGlwUkpObAOpwVRM+W/XywxZsfyTkGJhVJZQt4c4eBvSfqsOVABQ6ea0BTu8HKIKfEaFgwKQPr5hVhVnEq23HrVCTJLqfMw3sEBhjgIPKj8CDQe/Qu8RoMWieYgKIGv2mBdBSoJT4XEKsDbjoHkSA0A5aLhJRcMC0d1Z0mfvPmSfx1WwnmjEnGlz+8BHkZyew+GBChYk0alX3md0mAh+6JySfTZ5TeqGmobTfws00n8Pqug1g2OQOf/cASFJIEI/EPImSWFUAYEIAggQJ3NYnhKn6apomamhq4dB3ZWVl8gLIZnTPV5RuicKfo7O4PoPIgDK9Jqb9aIwqwCWU28ReTchUAobENhx5+Ggd+/St0xsVh2re+jsWf+WdYLO+aT1AcICh40F99os4zsiwQ9rmFFQ7l1EpURLG5Fxu28E6/jUiIVe14s6SCkRAvNAdhWhZiXSFMyEvG0ul5WDwtF8UZMYgjrwEt4qIQnoQazA8hiza4+MLNjmHJEo7AhwxBuCj0wI9hGYbsWecMIuI/sJWBqzajw3Kh5FwL/vPPe9DcWIXP3TIPK+dMQIybln5+ESHn1CMHzbsAhgAAIABJREFUiZV7NjXsPd2I7/5mO2I9Fv75pplYNr0A8W6RxSF3F/a6NPq8kEPGQZCLNutUEYuSj5b8rLW1FT/72c+QnJKC2z/5SV6ekw+DCIBArir6jotENHp4KYAwsiatvrY2glRlcSco62va/RAHoaIGpRs24tBf/gx/Zi7mPXA35tz2IVisxDO5Mfk0ZAOFvl5YHacsMEos0B0g8PABvU+LMOPziDnXtEwELb6r3nm8Bq/uOYfDFa3oMLxwwUBOooZFkzKxbuEYjM9JQLyXiMDcE2HPzHIFd0nugajvJCon8wU//C/C0dzD+it1F2wdVQEQCEg0Bi28vu88/vjqO1g0Jg6337oS2SkJvOfY5iDSS01lpmVyBh3S7Dfx262n8ec3t+O9y+fiI6umIS1WF9kLkY1R1RwdD0Rf3P2Xen6cyIQ8BfSiBV4u5vRz7759+NJddyErKwvPffe7GD9urF1BS8p+k1uKJnrW52G2SMTlFUC4VG+MzM97ipnyCYU8CBaCh09i74aHcfytNxEcNwErHn8QE1evtPcc5F5kqd0kiDYyTaBarSxwBRYIPzlhgCAKKDGaHy+tyDIY6BkB7dyBFr+FI+VNeG1fBXafqGXcAHIMJMVomFmUjFWzC7FwchZyEkiEjK/CfAEXhRfEZeU8zZ0HYe+dM9xxZc9j2OtAiozU5pr2EE6crUGcSdUb85GSlCjxAbebs168XD9EiLvLsHDgbD2ampswdVw+ClJjo0rDSxdk72vPFXTOsPrKkHoQpCUkQODFPTg5pqurC8985zt45plnEB8fj2/fdx8+/elPw+fzsCElY2KEPxVAGFZjatAacymA0LZ9L/ZseBhnD5TAnDkbax9/iIkkkeuUTUxsTtSYeqt6KQtcOxaIAghC/dBZS4FlLTIegIaABZyu9TOewVulFTjXEIDf9MKDLhQk61gzrxir5xSgID0WPj3aYyDWYSIfmi5GQrQ3cg4XfYTtmRcgcnffl77hewPh8hChRpP5NojrwFMqpXZBRHiD32rULoFXfggyoqYJt0ZJmFEThQPF9MemuS/3ONjHDAuAIHf4kodAf5eWluJLX/oSduzYAbfbjRtuuAHPPfccpkyZzIGfTZqhNBPuWu6vEANbPnrxRgx2B6nrXdwCjkil8D5ReNFkWQwNf38TezY+gYpzp+FdshTrNn4bGdOmsElCzgY8VenK9iuqb5QFhpcFohZVh4hYr+1kSmMyiCBAgQmERLlFYv2XnKrDG/vLcaisCU1+TupLT3Bj/rhU3DArD7OLk5EaR6oiQmmRLaWiLY4mSV+B/bz1EzCXwMA5F4BCjhqRFjnngAECKQdNCz0BFdPBJRCAiAs/0eaBqJgWk1p20XzCeEoeMW84PCJi6hitc8iQAoRoUiLf1Wloa2vF888/j8ceewwdHR1sbGdkZOChhx7G5z73WbhY/IqTTHiI4eo5CLGxsfYzxMUv1KIxvCa/nlsTnhQ4L4UBRRobnX5U/+4V7HnmOVQ21CD9lluw9tvfQEJxoYhxirCUAggjoZtVG/tkgeiYem9filhK7Yg/997SoqihOWTh1IU2vL63DNsPX0BtO+2mXYhzG5iUE4fVcwuxeGoOClO88MhF0r68WIl7cQJohNAZUahPN3XJg+zLCP6RCGo4kzEZiZHnLfEC04yDQGkS8iVPQsJNzJvAyc78Vw4IWMaDfZwMa1+yeSP6gCEFCAyvUqc6BDPo95KSfcx7sGvXLjuzQdd13HLLLfjBD36A7OwsxwIeXsyvhoOgAMLIG8dyIpDjSP5kAKG1HWd/+muUvvQiqro6kf+xj2Dt+q/Ck5nBJggxTdhKiiPv7lWLlQWiLRAVdGN/Cu+AvbBxLwF/ybyBcH2FLtNCRVMAO45cwBullThT3YHWIOBxachJcjNQsGpWHibmxiPJy8SRbcEgdsqI6/TcQ5EhhqvvxQgcQiWjxSl51EAqrNK9isRNG9D0tAl0JNjbOIoDBMmv5ARHBRCs5OQk0MIc/eqP3XW0DoIEClSB64UXXsDjjz/OqnE5X0RWfOKJJ/Hxj/9/8Pl87KPotvTUtr6QFGNiYtj5ZJiiP+7x6oe+OsOlLGBPdTxoKiYoA66GVhx/4T9R+pMfokn3YMw/347rv3YXXIkJLI1K8lac4YZLXUt9riww3CwQOY/KQHoYOrPlkWkHcPc/593I1AQeg2A7ZUtHR8jE4fIm/GnbSew8UYNmIw7QdMS7g5hZlIgbrxuHpVMykOrjqYi82Fn3XbiQM5CpAr2brJ+dtD07LLq/a9Mie/FwOFV4IiGXvBUONQgw9JMTZLgNK7s9Q+5BkC2Ri/jRo0fxyMaNKN2/n4UXqqqqGAchNzeXgYIF112Hhx58CMXFRf0KEMiD4OQxKIAwbMdsRMMk3ufpjZyJzSis1fU49MyLOPw/v0IraSD8251Y/Jl/AmJ8QqlNhhjCTOSRcceqlcoCYQt0Bwj2jGprBBARl3tphetc4Aji6tDT0mpoOFfbgTf2V+Cdw+dRUdeBLtMFrw4UZ8Ri1ewiLJueg3FZcYhxRXvfuvdGn1VFhgAghC95iYsLZNAjhnCSE0f5YBwygOC0q8xioMbU1dXh2LHjCAQCOH78OJ5++ilkZmXh61/7GrKzsuH2eDBj+jSkpKZGdI1c0K/UgyBDDBc7zygfCyPw9sLuQKl/wIRdKF/7VDl2P/QEzry+CZ1ZmVh073pM//D7obm5SJL4vy2UNAJvXjVZWYB7A2TsPUJPRrrWxVaXKRVyLxs524mIR6WV69pMlrK4ed85poTYYejs+UmJ07FgQibWzBuDWWOTkOJ1Ma4B0wqw0xPDQkWX1AHoZzAwWF3fq5NBNGCE3lafzTe8AIJIcZTehJKSEvzLv/wLCguK8IMf/gAFBfnsxph7OIpEqABCn/t8FB0YBgik4ib8pdBME+37DmHbfY+g9uA+hMaNww2PPoSiFUsohsT4B3Ke43PdaH/MR1GXq1uJ9KD1CSDwMU4AgZ4SIht2BEwcr2zFG6UV2HroAuraAUNzI8FjYlJODFbOKsTSGdnITfQwrwGP5fP/ErePhRgkic8um36R52iEPmIKIIQtEAgG0djYxGphaHV19QPKQXCOchulOGow0Ht79uzBpz71KRQUFOKHP/whiooK7a+FiY38Bi7GHegLB0F5EEbWzMt73Q4wwGJSrqLAjGGg+a2deOtbD6K+4iw8s2dj7VMPI2vGVAEGhBOUYqj0NU5EUC9lgZFlATlfCtY9Uy1ygF2bY8cWdv6X3wLK67rwztEqvHWgAicvtKPd0KC7dBSkebFkciZWzsrHpLwExHmoJgFliTkkAljtBP6SAEHyeRTQHlnDpy+tHVYeBNlg2SgnQPjRj36IwsLuAIEtEw4NBBVi6Eu3j/xj+CTFY6gMKJAaJ02OVNUxZKDxr5uxZcNGNNZcgG/hItzy7KNIHlvE0mL5/wTBVQGEkT8Yrrk7ECQCEVqwRX6ixIWkcjDhBkMD2rpMHDjXhL+9cxL7TtaiLeSCYemIdRuYPTYDN143FvPHpyIzjpQQqbAShwFSCJHqJvCnLQwYIh4f5YkbdSNxWACE7noI3M47d+7Cpz71LyguKmYhhuLiYkdKJE+PZENYSDT3pl+gPAijbtyKXUzYj2AxwpWLFYXRgkHU/uZP2PHYY2hsa0PC2jW48dH7EZeTwwxBmTkMVMoJTU1so2+AjOo76s6gsxWDWf6+WMAtkk3W0BVy4d3aDmwprcCbpZWobArAhI4Yt4aidA+WTc9lMslF6T7E6KQYSNkJ8tly6IVI14HtcAt/xsytHHGjbtQNK4AgvQHSyqSDQPLKBQUFLMRAAOFSL+VBuJSFRsfnYQ+CTNPipV5ZJbhgCBU//G/s+9730RD0o+Bjt2H5fd+ANzmJew9IW1kQuiRhcXRYRd3FtWEBZ+VScccSIYgCZIQSWC2C1hB2Hq/Fpr1ncaSiFW0B0gMMISNBx3VTcpng0dSCZCTHUjnmcPqvFBNiz5kABpHrvyMfQAGDUTvshh1AcIKE3bt3Mw5Cfn4+fvSjH10SIPSHUJLKYhgZYz0SIFC0gXZLOlymCaurCyc2Podjv/w5Gtw6Jn/hs5j/xc/BGx8XUd5ZgYOR0dfXbit7o8hJD4JD1Ees4lR7gLBCc6eBY+ebsbmkHHtO1qG6JcTCCT63hekFCVg1qxCLJmciN8UHr6iPIENvtidALvy95fpJwaFrt4NG/Z0PC4DgtLIz3BAJEP6jV+2DS/WSCjFcykIj73PpAJUt5+lepKhqAk3NOPDA4zj58u/RkpiKuXd/FdNuvw0er9e+UQUER16fj6YW97TmsrIIEZ56JwCImCXtP6Q8Mj+fhi4TLISw7eB5vL7nNM7U+9FheBCjW8hNcmHBpBzcdN1YTMmLR6xucKIhS0vQWVVTnt7TuzaIchaMplF46XsZIQChQHgQehZHutRt9gUgKCXFS1lxeH0eDRAYg5vmt5AJo/IC9t77EM6+sQmtOYVYet83MekD74XL4w7rqsvbYaRF9VIWGFwLRAAE24Xv4A+I5nQb51GjVVa/pXBCc5eB3Scb8DppGpyuQ2Mn96qlxGiYNS4dq+cWYc74dKTH6/ByNC2UFUn7gIrehUuYMbCgXte8BUYEQCgsKMQPGAdh4ACCSnMcmc+CTVOUKV8hE+bxU9i1fgPK92xD55SZuP7+9Si6fjnTQJCCLmGeVRTRamSaQbV6hFnACRB4nJ8otiLcb5MBwyTc8O3x8SqVQ4mNEKD6CQ1B/G3Hu9h6sAKVLVRwicJtQRRlxOE9C8dixcxcFKR44XXxyoR0JZHLw2oXyNok3A/BS6Grl7KAAgh33YUNGzZAFWsamQ+DnFzpJ4klaYaB0L5D2PLN+1B19ACMBQux9qF7kbtgbmSBL+nKFTOhmg9HZv+P1FZLDEA/Ob+QqpBKt4GslcD/tkRGAf+LyybToQFTw/mWAPaeqMOW0nIcKm9HeyAEt2YiJ0nHdRPSsWruGEwhEqJPFyWLqQyyTFbk55OgQJ6f/a0eiJE6tPq13SMCIOTnD3yIQXkQ+nVcDc7J7Hr3POWVTZuBEDq2vIMt9z2A2rOn4b3hBqx7+D6kTZ4k1BOdMsvh8IKaDweny9RVuAWcFQd5HSUTpDPAcnIsEkMm5UPhLaCjiUjIhA1cMDQLLUHgcFkzXttXgT3v1qC+xY+A5UGi18S0gmSsnV+IJVMykR7vhTei+jLVZODCSZFjPjKmoACCGqnSUyUtMWRKis6u6JmkOPAAIS4uLmJEqGJNI+ABsQGCae/CrPYOVP/iD9j+3LNoaKhF1ic+iTXf+hpic3NsgBCe/HhVtvA+agTcs2riqLBAREli5jmQAMHkol80MoWEockqldLnLgQMDZUtQWwurcSb+8txps6PkGlCt0LISvbihjnFWDUrHxOy4hDv4aPb9kzIGEaPaDgqiVEh5lExzq72JobMg+C8cE83QZ+TDgKrxVBYiB/9aGCzGJwAQYGDqx1Wg/R9CRDIe8B8tQaMhia8+8xLOPCr/0KbP4Ap3/gaFn3xM0B8vE3QpngrU1JkErTcyarmw0Hqs2v+MjJBlxuCRxcEJ0CEGjQ2mCM9CERCbGgzcOBcI/6x+wz2n6pFa0CDy6UhxWdiWmEKblk6ETOLM5Aa72LpvjrT++Dj3H5FD3gHMfGa7xplgG4WGPYAQdZi4DoIA0dSVABhBD4dTi16BhJMGNV1OPbwd3Dwz/+LdliYff89WPCpO2B4PNxTwArPKIAwAnt7RDc5TEqMzEtg67XMYqDx7KAHkN+AQgFdBvBuVTv+seccdhw5jwstARiGhVjdxMTcJNwwbwyWTctBfooXHhcRDCWvQJyYayaHEYkjjVGFEkb0sBrwxg85QJApiMwVRohXMHTpp9RB4FkMJLVMAEEM/ssY2X1Jc1QAYcDHWv9fwAEQ+ObLROhMGfbe+yhObNmMrrR0LHnoHsz48AdgsomT11+Qmyjn3kp5EPq/e9QZI9dlh89AMhPZWCQ2APf+S/DAiYhdhoWaNgM7jlZhy/5yHD3fxpQQKQshJ0nDkilZWDGrENOKEpDs1plEMv2fzsIlDfj5GOawMyPYTBvWQlIDXw3Ti1hgSAFCdA2GaNe+lFpWAEGN4R4tIEMLjNhFOzFe5nnn+g04c7gEmDAJ1z9yH8bdsAKkMEfji8K6PQEEZWFlgYG0gMy2iYQBIZBUEa9+IFMXGdsArX5eWOn1fZXYe7IGde0GUwuN92mYUZSMdfPHYt6EDKQnUGElXoaZxjbJJcs0RTa/9qh5FEYFl7HPGkjzqHMPUwsMKUCwvV5RVcikF2Hnzp34/Oc/j7y8fLz0g5cwdgzVYlAehGE6lga/WREAgac41m/ejh33bEB55TnEXTcfqzesR96CuVyGmZENnLoHSgNh8Dvt2rxiOB03nOBoUTEl5v7nQS+quNgZslBW24XtRy5g28FyvFvdiaClw6sDYzK8WDYtH9fPzsOYjHjEujmLhsCBIVwFuiWIt9Jt0BshUbyvHAjX5njs610PK4BAjXF6Ed498S6e//fnkZGZhTvv/AIyMzK4y4zU7y4D+qoQQ1+Hw0g7jrIXyCUgKnsGgjj/v3/FznsfRrW/A1k3rsb167+C1MnjOUBw8fAC7dB0x60q0biR1u/Du729ErDtrBvefl5yiRZ4/luL38LuEzX40ztnsO9UPbrgY3g22RPCgomZuHHheCyYmIYknUYwI9OE6YeytrM0jcxYcAxuBQaG97gZjq0bFgDBNLl4h2yMBADBYBDNzc2sPG9ycnIEMFAAYTgOp8FukwAINMlSDYb2Tpz66a+w+5nvoMmtY8Idn8Dyf/0MvDmZVOSZAQR6GQIgyAlTTZyD3W+j+3oXAwi211T8QkXK20MWjlS24a3Scuw4UoXK5iCClsbSFCdkxeKGeUVYPCWLFVaK0WkkU6lyzivgBcc0IazgGMmEHyQZYXSbW93dAFpgyAFCTw+TEyw47/1KC+z0xYOghJIGcJRd5anDDPDoE9GWTHgPyF1b34Kj//5j7Pv359GeloZZX/gcFnz6DujJCQIgcD+sFJl1brausonq69ekBaJGpkwaYLYIuwtY/SPBHpRERCodQiGF801B7DhWjddLynDsfDs6g+QdpcJKOlbMyMeaBYUYkxGLBI8Gt21jxqhhAIHLJjugbjTaVej3mhyZ/XXTQwoQegMH7PESvAS5uFOGw0ADBKdX4nI8FP3VGeo8PVugV4DAxQ8ESAjBrKxD6dPfx4Ff/hz+vHws+MaXMfNjH4Ie42MuWV6ARhC6wmXubbEkZX9lgcuzgGNkdvs1CiBYpJUoNBAsoKHLwP4zDXizpAwlpxvQ0OWCYWpIigFmFSXhhjkFuG5CBjIS3HAxii2f//i8yAECgx0RrNse0IACCJfXperoCAsMKUC40r6IXrx7c+nJ4y7Hg8CWkMvkOFzpfajv9c0CYVoXP16mipOgDCd/GYyg2HnwBHY98hTObH0DxsQpuP7hezBm5XJoHmIcEEAI77RkaDac0dC3tqijlAXCFhB6iHwQ8pHJcIEYZ9KjwPgAVEAJ6DCAstpOVjvhrQPlKK/vQNAAfG4NhenxWDarkCkhjs2MQ5zO4aw8N1fvcOQrdstQiEIDChyowXqVFhjxAOFiioyXAxBUueerHEkD+HVO4YqYGvl0bBG9izTqTWjBEJo2b8f2Bzaivuw09OsWYt1TDyF90njARTMtJ7b2lLeg5tEB7LzRfGomgSzBgahuILIS7LeJH6MBIQuo6zSw83gtNu06hSPlzegI8G8nx5pYSCTERZMxvTARSTFuFk5g47LHNMWwUSPG7mUQt0dzt6h76z8LDBlAuNQtXCz84Pyu9A5EkxzZsyWLnYg4dWdnJx566CG8+OKLaG9vZxUc74qq5nilYYxL3Y/6/Mot4AQIETt+k3sQNMsAuvyofeU1bN3wCFqb65G4dh3WPHo/kvJzbHAgYgwRHARnBPfKW6i+OVosEI4UhH9zLsIR4S47Pdvxrkl7fpN7DFjWjI7OkIFDFW3Ysr8Sbx+tRlVLkGiGiNENTM2Lx/WzC7F0Ri7ykjzwuKiqowgfXAS5SvCgRMJHy8gbnvcxTACC0NKPstGlyIoMu0dxFZzhAQUQhuegu9xWRYcY5Pc5OKRiNAbQ2o7KX/0Bbz/zLFo725D90Y9gxYb1SEpLgaa5bCGZaJKiInpfbm+M7uMlifCid2njARlDED9pQ2KQtoEF0+VCF1y40BzE1gPnWYbCyeo2dIR0Vo45L9mLZTPysGp2PsbnxCHRq7GiSg4VZJt86OLkGfVSFhh0Cww6QLhYSOBq7t7pSYj2AlwOB0F5EK6mFwbmu85dW8TvFqd9UWEas6EFZ1/8CXb99MdoDBqY8cXPY/6/fQ6xCfHhVDDBJndmMSiAMDB9NtLOGu054PuO6JLIfEtvgwhLhKyk5Df7xELQApq6LBxkSohnUXKqHo2d9IkLST5gWmESbrpuLGaPS0N6vA6fJqsuEFdGlhALCyJrQoJ+pNlUtXfkW2DEAARnQ3vLMHDqKFDXKA/CyB+gtrdA/BLp4hVlng0DoapaHHn0Ozjypz+iTvdg1cYNmPbxD0P3usMAwZ5+I+rbqUqOo2eYXPGdOAECowWKDJnICsmcMih5giy8RVt+8WUqy+w3gdO1HXi9pBxbD1SivCmAkOWG12VibLoH188dgzXzCpGf7IGPEWsckoaCaMNqKJBnTNyNAghX3K3qi1dpgSEFCJzWw/N5wxS0yDuiBspQQ2+7e+cxTmCgAMJVjo5h9nXJ5+bN4pMoG8CmicDRk9hz/yMo27EVTWnZuOmZjRi7bjV48jgRFPl0y/dnCiAMs64d8uaEw1j8N2c6YUSIyy6fzLkGfG4C8xpQOGH3iVps2X8Oh8ub0B7kOgUZCR7Mn5iJFbMKMKM4BemxOtyM4CjqigoijOTXSOqjpCBwrQP1UhYYfAsMKkCQrv7wrpA/emFF8e4PAqkskgaCBAHRJnKCB+VBGPwBNJhXlGRFPoFK/QPAZVho2bYTW+97EA2njqFt3ES8/zuPI3/RfFguMd1qvCCOAgiD2WMj51phECBTFx0+BVH0SHoKJNg0TYulzgYM4EhVF/745mG8fbQKLQEdpuZGrCuAqXmJuGXpZCyakoGMWBfcGmXdhL2bbDxGZkXaRlMAYeSMn9Ha0kEFCGFkLiuXhQGC08AdHZ1obGxAIBBAQkICEhMT4fd3ITY2Hj6vB2ZUzQanp4ABDlmQR2UxjKJxG6aP2Z4EQVDVDBONlMHw4MNovnAegdlzcOszG5E1Y4ojV4xpz9kR3jAUjfQmjCKDqVu5qAUiglWO0IFIV6RMBBY9sGCQFDyT2iKxIilLoLFyzBUNfmw7fB5v7q/A6Zp2dITc8OoGClJ9jIS4cmY+xmXHI96tQRflxmWzIrdDjlBDVLuV/0AN5aGywJABBOcNOzMRTp8+jVde+Qu2b9+OtvY2rFu7DmvXrsGmTZswYcJErFu3DjGkjOdwu0VnO1wKILzwwgvo6OiISHMkHYSeMiCGqmPUdSMt4Byo0aEGzR9A1c/+H955+jtszHhuuhE3b7gbiUV5zGdALHBLaCBICpicdDlJUU3Bo268Ra7/4duzu1pmIPCPouGCCDTwUkosHKCzcUJfp78aOiyUnKnH5n1nUXq6BvXtJtPbSPDpmDs+HavnFmHuuDSkxevw0BiL5hvIQFe397v3hBqdo250jpgbGlKAEJ3RUFVdjUc3PorNmzdj7NgxuHDhAhYuXIjPfPazoEX96JEj+PKXv4L3v/99iIuLC7viHIWe+uJBUABhxIxPu6EsPCUSv2SIgc2t5K5tbsWRJ5/HwV/+CkGvG4Vf/AyWffr/QEuK45M6Y4HTP8lCj8weVwBh5I2HvjkHekEJPQgbRJJf5VgTXitWGImXVO4IWjhX24E3Sivw9qFKnG/ohN+kwkrA+NxELJtRiIVTslGUEYM4ncApD4WRBgcrnsQmKA5JeGFmRx5NL0hAAYRRNj5H0O0MGUCIBgeGYeB3v/sdvvvd7+JDH/oQPvjBD+EXv/g5GhoacM8996CqqhpPPvkEampq8OJLL2Ha1Kn8WYsKI9B7xFno6TMSStqwYQNeeumlbh4EVaxp+I5aNk0LImt43MjArQWcr8Gub2/E8b/9FWZ2NhY88C1Me99NgFekjcmQU4SnQLp0BVFs+N6+allfLNAjFujNjeD0GTjzFzhLxX7H4sWYWZjBAurbu7D9WAM27yvD4bJGtPgBt8tERoKORZNzsXbBOMwsTkAsAQOW1MhUvDgJW6ZEsvfoU+FVELyYMHDoy82qY5QFBscCQwYQ5O3JBjQ2NmL9+vVM4fCxxx5Dbm4unnnmO6isrGCLempqKv74xz/i3nvvxfPPP4+bb745wkLOG1EAYXAGz6Bcxc4x51cjd68myoOzidY0YRw7jXe+/QhOvP0W9EkTsfLRDShethiazl3C4XCUM7CgAMKg9N9gXcSJBcIrvLi6eCMiGyAyUEUrNiPBakwHkYUUZP2ENgM4dLoRb+47iZ0nalHXZiFoAvFuE9PHZmLN3GLMn5SO7CQfPDDom6A9CnkdGGnBZkDKdsgNDG+ezYJRroLBGi3qOn20wKADBCcwkDtDakRtbS2+8IUvICUlBY8//jhSUlPx9NNPo6aqCt++/36kp6fjtddfx513fh5PPfk0PvrRj0ZkNkRnOTj5BE6hpAcffJBJLUdzEJQHoY8jZrAPY6EFGVzgKY2gWrkuDaYGuEImWrbvwY4HNuLssUNIWrgIqx/fgIypU9gx8n+y2fYcLH9hP9XMPNjd2u/XY6u7XOXtWSYiKNVtl24XVhJCRWyYSYDgRsAkEmIX3j5cjdf3l+Hdqg4YlgWPZiI7yYNl0wtw44IijMuMR6xHjjRKy+7L5SpTAAAgAElEQVQ22nq+Xduz1e/WUCdUFugXCwwtQBAsdEpl7OzswpNPPYkd7+zA/fffj/nz5+HZZ59FVVUV+zs2Ng4//clP8P3nv4cf/OBHuPHGdRdNfWTTfg9ZDAog9Mu4GbyTSIDAcsHErk+knVE2i6szgPLf/wX7v/M9nK+pQvZ7bsTqR7+N+BxRg0FEeu0pW+7mbBUaBRAGrzMH8EqyLoLMhY24VFSogdz+9DmNKZsXQKEAnrkQhAv1bSHsP9uEzSXl2PtuLVr8JkzoyE7QMGtMKm6YW4Q54zOQHku5DYLhcrl6BQogDOCAUKfuDwsMKUBgz6gopEQP5u5du3H/Aw8gNiYGH/zgB7FlyxZQ6OH2229HeXkFfvOb/8GUKVPwyCOPoKiosMedX09iSn3xIDhJj05w0R9GVue4CgtQQSbJRiRfgsg9N0Vs19XSgXdf+CkO/+Q/UGuaGHv7J7HiW1+BO54klrlQjRCm4zr3TuU6hQ2uomOG01cdtVx6AwhRqdG2V0rSWzSNeQfaQwbevdCObaVlePvIeZxvCsJvaIj1uTE+JwmrZuZi8bQcFKZ6EaNzngHpIjACovRG9eiQ4m8qX9VwGjeqLZeywKADBGdKo2wcyzymBzRk4OWXX8ZTTz2Fo0ePIhgMskM8Hg90Xcf111/PqjFOmTqF/c2celGo/WoBQm8yzpcypPp8gCzAAIKYxQlMmgY03cXKPNOErte24PAT38Wx3/8PGmLjMPNL/4olX/wMDI1zxDntjBPPIuiIESGGAWq7Ou2gWIAt9raKFmUM2Kt1+PrM69Q9fUFWWyASYmW7gXeOVOEfO07heFUbk0iGZSIt1sKKmQW4edEETMqNZRLJlNOgaaSkSDkwXISLAwDBOxiUO1cXURYYWAsMHUBwCN5SIyjMQM+W3x9g6Yy7d+/G0WPH0NLcjLS0NMyaNQtLlizF+AnjRdoQDyFEy9wogDCwA2awzx4eoHyXaFk0MdN0bMIMmTDPVGLfw0/h7OZX0ZyZiYXf+jpmf/yjjKYgd2zkRbABglw7FEAY7K4ckOvxbqbyyiIEJbMKndED+8phgMDGlTimscvAobJmvFZSiV0natDY5mefJXg0TCtOw43zi5m2QW6ih2Un8PEX/r6EnkRwVKoaA9LN6qRDZIFBBQhOqWVio8syprTIG6bBHkr5Xsgw0NHegWAwAF9MDBM14rnDGktjlBHpaLspgDBEI2mALhvWP+BOYal6Szs7hEJof6cE7zywETXvHoU5dTpWPXwfCpcuZGlpJE7DIaSs+tEDY1z5fAeo5wbntGJU8IwBm6MS2anOgkrOBIcAgLJGP17fexZv7i/D2UYTIdMF3fKjKD0Gy2cVYdWcAkzOjoWX5ibaxPBJio8oVt8jLG4gHRRKm3Nw+l5dZeAtMKgAgW7HGWJwKiDSAxfwB3Ds2HHs2bOHSS2TV0EWcqLH0AiFkJWVhfe97/3IzclmLkMJOqKBgTNUcDkcBBViGPhBdzlXYONFpDqGxZZpCjaBQAB1L7+KrRseQWNrE5JWrsTajfcjeWwhE7UhsCl9THL56CaKpADC5XTHsDuWF/yW67QcIby35UIttYpY1iHNM5aGuvYg9p6sZ1UXD5c1obkzxBb8tFhg3vhUrJ1XjOnF6UiK1eGjlEVx55zb6iynxE4a4clUAGHYDRPVoCu0wJACBOkDJiBAD9XefSV48onHsXfvXsTGkvSxpJrzu6PjJk2chMefeAJTKY2th5fyIFzhSBimX5NjQwrWkOfA1Fxw0Yzd1o4L//UbvP3cc2iwLOR/6IO4/p6vID4zjS0PTL0uioegAMIw7egrbJZMSmRpzg6lTFntU84xlBNLabHtQQvvVrVh075y7D5ahfJmg3mb4t0GJuYmYtXMQiybmcPLMbs4Q4H+K2SPmE4CA6fd9Ask24V/ol7KAqPBAkMGEBjnQKQiUiOYQNLjj+NPL7+MT3zik1i6ZDF0t9tWRZR7g9iYWEyeMgWJCQl849BL4SblQRgNw5ODQrtiJ3FVWBEdnYklGfWNOPPcD7DvF/+Nxtg4TP38Z7Dos/8ET0I88y7xMSDqNzL1OprmI0Hn6LDSNXQXMp1R3DKbF+wsF7kwswoKjGBoQSc6IQxLQ01rEFsPV2Hz3rM4fqEdnYbOwlDZSTqWT8vBDRROyEtEghvQLYNiCoxTQOfgiYx87SeAwFgtduUm6UGQ11dj7BoakaP6VocMIEirSvc/SSjfeeedjGtAWQx5eXndMhQkIJDln52Nl+eTn0k1RfkdOpaklnvTQZBpjirEMLzGOyklcjU6ijOYXElRcwOGgWBlFUo3PI53N/0F/uwcLLnvW5j4vpvh8rkZZy3s6g1nuyj373Dq3yh9gt6aJlNTo0oq0eEyeSHMBKAdvxA+orCk5UJzwMThilb8/Z3T2Hm8Gi1+AhA6Yt1BzMyLwa3LpmLBpGykxepw81xYO6ZAXgeBQDjYFADB6ScI+wsixDWGk6FVW5QFrsgCQw8QRG47eRAefOghlJWV4dGNGzF+/Hjbe9DrvOHYTSgOwhX1/7D/kj1A2QpAnBTuB4BhovPgEexYvwHVB/ZCmzodKzfej7zFC8Hq6jIdnHByoz0+lPt3GPV5zwAhykkQ2V6HajIXNpJBJB6EkimtBBG6QsCpmk68daAMW0vLUN4YQpepI85toDA9Actn5GHVzBwUZ1JhJf5dTSNvQTg11uAUA+k84BxFAUA42HSmVCoPwjAaXKop/WCBIQUI/OJhkZN33nmHFWsiMSQSSkpMTILu0imULJTPLPi8XqRnZIDKM0vvQHTpZ/aAO3KeFUmxH0bKUJ3CJilyJwIrfkNtCRpoeu0tbL33fjRfqETsihW48ZH7kTR5gp3vbmnkYuZhBVk5L5rXMlS3pa7Lnl5hhkig0A0gcHeQ8CJFbOjZHzzMQCEFDhEMuFDVGsTu43UMHBw5W4fWgAVD8yIjwYv541Nx/dwiTC9KEl4D0lsxYMED3dQ5f4VILlSsiUCmCCWEAQFvb2QulQQqHF6ol7LAaLDAMAEIHIVXV9fg4Ucexh9+/3tkZ2fD5/MxLwKJIrH9o2GiqLgIDz/8CKZMmSTy4mVeskD5Ur5UAYTRMD7tRcFOcWRa+RbQ3oELP/sddj77LFra25D8wQ/gxvvvRlxujr3dC3PaZS6DTE0bHaYZ+XdxcYAQBgoiU0CAxYgcZ6FxQdwU8hq0+w2cqu3C33edwztHq1DTGmJjKEYPYUp+EtbMG4uFU3OQm+yBR2gacZUMDi5cpqjmyDIYBfhgNT2kpyAMZrozDZS4xsgfk+oOnBYYVIDg1EGwLyw2B4FAEL/97W/x5JNPIS4uFhMmTIDb7bbbylMeLQYc7rrrLowdO9b2IEiPgSSzOfkH0sugOAgjd+CTJ1kW4mFuZdrtNTTj6JMv4NCvf44WtxsT7/wclt35abiTEx2Raj5hh+EBl15Wr+FiAZkuyBdoufO2yyqQU0DIZcsWM3qApAnwDxlg9JsWqpqD2HawDJt2n0FZQwAdhhduF5CT7MbCSVlYN68Ak3MTEOvVwf0ErkhxxSizyFYRkbGnV+8jSY2x4TLCVDuuzgJDChCkEiI9iFTN8a67/hWVlZV48sknMXfu3B45CMyjQNkNgqXuzGLoKcVRAYSrGyDD4ds2QKDFwaC4s4HgyTLs+uYDOLtzOzozMrH8kfsx5f03A7pkm5NGRpRXKSr0NBzu7dpuA+8gDvocAEEYhepucAwgyiOzg1knsiPktzoMYO/JWvx91xnsO34BTUEiqbrgdZmYNy4dNy4cj8WT0pDkc0FnaYocivQk1X45SEABhGt79F4Ldz+oAEEu1k7DygZQUaZvfOOb6OjswFNPUhZDboQAiXQX02TBiWoWF8LpIaQQnYmgOAgjeyiTbDK5eJl8MmUxhIJMQXHbPQ+g5uRxuKZNx8pHH2AKinxfKAr1CZe0c4yoLJXhNBa4B4HPAZLwR+9wAbToWL7UJJB5Cm2GhZNVHdh2oBI7jl7AubpOBA0NMW4DYzLjsHxmIZZOz0VRRgzi3DQuwqmKukhUsJMUhFnsCrC9mEn5BobT+FFtGWgLDBlAkIu2TEskqeW//uWv+PWvf4077rgDa9ashc/n5RNIhNNYMNQdIIFNKT0ABWk8BRAGehgN7Pl5XQUOEDQCCJ1dqHnlNezY+Agaa+qQtGIFVj18L9KmTuIAgWnsy0VGLDOsbkckeXVgW63OfkkLyHLv0tXDdLQdsthMKZWfhQ8BziEJWRZq2kJ453gtXt93FsfKmtAW4l6D7AQXFkxMx5q5hZhRnIxErwseRlalQeFig4GpG8jzCh0VWyZZhaAu2W3qgGvHAkMGECifnWuN8AWfai/s3rWLlXIO+P1Yd9NNyM3JgdfnA+XCE1HRtCwmkLR48RKkp6fZIkkXAwdyh6I4CCN3UHOCIgEEUYmnvhGnfvxLHP7xf6A2EMCYj9+GZV/5ImLziaCoCQK6Y6/nENNSHoRhNA4cACHsPwiTADmnKAwQSPGwM2jgcHkr3jhQgR1HzjMSogk3Yr0uTMlPxOo5BVg+LRMZcR54dBlGEOdwlPqWNT1kJVmbXqgAwjAaIKopQ22BIQMIkjsgG0BVHH/84x/j+X//PhobGpldZBYDHUMAwe/3Y/r06Xj22ecwY8Z023YKIAz1MBrY6xMwoAk8xIsywDxdjtInv4szf/kTmpISMe8rX8bsT3wEelI8iy1EExGdzmoFEAa2ry7r7GL1j0hrFOmMUuOAAUNo8Fsayhu6sONwFd48UInj51uYRLJXM5CX7Mai6UW4YW4xJufGI5YBA6GwGK7I0IPMUpj5oADCZfWcOvgascCQAgSysazqGAgGcezoMZw4cRyGQaV2wi/62yBFPctCSmoqlixejIyMDAUQrpFBKgGCIVaSwIGj2LPhMVTu2IbWojFY+eC9mLD2erg8Hp6BfpFdoAIIw2HQCLeASGKIphswcEAyyRRO0DTUt5vYe6oOr+85zcoytwRIqkhDstfC3HGpWLegGDOKU5Ee74YOqhLL79GpmkkMBEF5FHRIh6fCYRI1PobD+FBtGC4WGBKAIEmGrCafqMnAwALp6xNL3X5FC6hY0FwueNxuFpqQ//ia0Dt9SHEQhstwu7x2CI47oUgWO2aD1QKa/roZOx57Cg1nTsCaOx83PvEgMqdPg8YyGLgcLvc5hF+KXHZ5tu/vo6OeZH76KA8Cc/dTOjMjkWhoDwHv1nRgc0k5thyoQE1LCAY8iNGDmJATj5Wzi7B4eg6KU33wuriAJi+kZCMEwWDiUlkSNlzs3tQ46e+eV+cbyRYYUoDQ3NSC0tJSeL0ezJkzBxWVlcyLEAgERIEeXsyVgITLpTHwkJSchOsWXIeUlOQIgHAxkKAAwggbok5iGgsrCIBAQMEfQMVPfoVd3/s+2jrbkXzzzVj38L2Iy86GJraOahc4/Po7DBAcmge2kirvX9orMJULS0N1awg7jtXgzdIKHC5vQmcAcLsspCe4cd2kLKyeW4TJRYlIJhIiq6BESztPfLQ9B/ZqL5UwuF9BAYThNz5Ui4anBYYMIJA5jh07hmeffRbJKSlYf/d6/P3vf8dPfvITNDc32RX8JECgSd+0DIwfNx6PPLLRLvfck8xytKkVQBieg6/XVtkAQS4r3HPAXM/NbTjx1PMo+cXP0On1oej/3oHlX/kivAkJIkuBM9XVa2AsEOkJENdwvCl0CLtt1rt5EOw3uOOf/pHzsMVv4khFC94oKcfeU7U430wSyDriPRam5sVjzbwiLJiUgdxkHzxakHkGqHgXL8l8aYCginUNzLhQZx2dFhgygEAXrqiowMsv/wkZmRm49dZbcerkSZSU7Iff38UAgmlaLOygC/EbikWnpaayFEjKYpBeA0VSHF2DM8xcl0EGCy5KayXC2oValN63Ecc2/QXtyWm47tvrMfOjH4Du9fISz7wer3oNkAUuDhCiAztcj4JePQEEmblgWhpTQqxsCmLrgUq8tvcMKho60WW5WZ8XpHixYkYe1s0vxoRMH7yChKhJnQuXDssuvcw1UsIeRSGhLDgIqtz3AA0MddpRaYFBBQhyJ0+WJHLi8ePv4qUXX8TMmTNw++23swJMzJssJxUxq0TTC0g7gZX9FStBTyWenb2lPAgjY+w6NpVRW1MCBwbzIHcdPI5dd38blaX7EBwzDjc8vRGFy5cALhFlFnoHI+OOR14rHT4du/FUJ0nCgLBXXyzTDjc/T0Lh/gImkGy5EISG+g4Te082YHNJGQ6crmNeBHrm0+NcmFmcitXzxmLuhAykxlrwWORRoO/rolYCB4QsbVpwkez5wv5FymdFEhdHnvVVi5UFBtcCgwoQ2E5C7ATp5969+3D33Xdj6dIl+Na3voX4+HhbXlk2TKZDdlvwHbFGBRAGd9AM1NW67U7t/DcCCCHAb6D5L2/g7UceQW11FXzLl+PWxx9EwvixwnvAQ8zKjTxQPcSj/NKZL69CAEFkJ8LFiiWEq27ahRhtgWO+w6fSSkHDxZQQ/7brLN4+egFVrRqCpsVCB2MzYvGe64qxYkYucpJ9iNFJcpmuThsDKu/KC7jxl5OU2P1tpzXU2Bi4saHOPPosMKQAYd8+DhCWLFmC9evXIyEhwd4FRJtaFmLq6X17muglk0F5EEbGwHXuTvmCw13WLLZsBYHmLpT9xy+x90cvoaHLj6zbPoIb138VnqxMltomJ39FUhy4/g4HfRzXEJIDhOe4mLEFKrUdLq/AAQEvn+xCwHDhfLMfe06QEuI5pmnASYhARoIbC6fkYPX8IkzKSUSyjzxDPMXZJetsMN4BS1W5eDSph1CTAggDNzbUmUefBYYEIJAZiVtAAGH9+ruxaNFifP3r30B8fJzYEIgURlunXUqtkidZY1Ueoys2sn2EAggjeoTKBDUpbCQBAsuJRwhmZT1KH3wa7256Be1xCZj21bsw/xO3wZXICYpSIEkBhIEbBt0BAi+v6AR0/OoUCuCgjX6SyBXBvRY/cKS8BW/sr8Du41Wo6zCgmQbi3SYm5qdizfxxWDg5C5lJbngZPVGDARMGhRRd9BevtRGdtKi4JwPX5+rM164FhhwgfPWrX4Xb48HatWvh1nW7SAsBAO41oHgkJyzS7xnpGXjvre9FTg7J6l68BoPsVuVBGBkD3CmrS8tKGChQ/lsIXQdPYNtX70P18SOwxo7B8sceQPHypazkLy0YpNMvi3iNjDseea2UHAKZecD4BAIg2OkI7MHkKcq0lIfANQ0q6ruw7VAlth2sxNn6TuZJ8GgGCpM1pmmwdGYhxmbFs8JKDApQuIIFFbiaIpPRtisxSpDAOQiKlzryxpJq8fC3wJADhC996UsoKSlh4QVqDHkIZKMIFDBPIrkuXbyK49SpU/H8888z3QQFEIb/AOtzC20Cm+MbIpxNHgTSP2h+bSveuO9BtNTXIHHxYqx84kFkTBhng0hQWWAKS7hE1b4+X1wd2CcLMNljyUHgwR/uHxAEQbZ803PKz0b8g6Blob7LxP5TTXhl+0mUnmtGR0iHx2Ui0R3A3PEZuGXJRMwdm4JED1/obVEjGXOiDYJooN2zDjKqKp/Qp95TBykLXLYFhhwgfP3rX0d6ejqr4KiTQqJQwmMTDMt95yBBvhITkzBn7hykJCdHAAR7P9HDVkJ5EC57XAz+F5wAQfR7uBEmrNYOnPvJL7H3e8+hyQIKPvIhrLznG4jJTIcFg+0tKcRAawqVAVevfraAVD10JCzaCYXMy0c8gbDz39R0tAUtHDvfis37yrDzWBXTNDBMF2LcFiblxOGGuQVYNi0XeSkeeF0adOExENmL0Nj5ROlu8hKwYo/CXRD+odwH/dzV6nTKAtICQwIQ2MRiWjYHgaoz3n33+jAH4WL9o2nQ2Q6RS+pGzw497SYUQBgBA55x2ITLwAYLPNBA+0fjfA32P/wUzr7yR9SnZmLOv92Jef/n43DFxjJCHBfT5egwuljTCLj74d9EGyBIiWQiInJuEAE00qkAKERoImQBVW3A1gPleKO0EserOpjXQLdCyE3SsWR6HlbNzMf0gkTEe8N8I9574URI2Z92qMnpXZBPvootDP+xo1o4Yi0wpACBQgsyi+Hu9XcjLo6TFG3hI1oa2O6EXMf8/WhQEC2rqgDCCB2LnOQu3EZ8mWAObI30+Q0EDh7H9ns3oH7vTrRPmYHl99+NMdevgKbrnDkvOp5zEdSq0e+jIAIgCIc/Awj0vxDrPNNyo9FvofRsI17bW4HS0xdQ38af38QYF6YXJGHV3GJcNzkTmfE6fKybuPBJOLuA9zuH/hG6jPZ78t562B/0+22rEyoLXMsWGFSAYAsl0cRiWox78M1vfhOLFy/GPffcw3QQZH12e4JgIQZOUAqvA6JOPL0l5yrhVVYAYYQOZ0dYgYWeLcAgcAALrk4/mjdtwbaNj6Op7DT0lauw5oF7kDpjKgsnuGiNcUQVFEC48jHgnBAizyIJIQLECXBAx1Dt1YCp4WxNJ7YcvoC3DlzA2bpOVoHVAwNFmfFYOj0Pq+cUojjdh1idSnLTN7nYmVRbZBsBSU2NEMXoGfApHHjl/ay+qSzQFwsMDUAQjsRzZ8/h57/4BcaPG4cPf/jD8Pl8NkDoKV85nMrU+w5RAYS+dPswPMYiNTypqE/Md+5YJpV9NLbg/H/9BrteeAGt7S3I+uTHsfKbX0FMdhbDjVyPP7yvVAvHxfq3R7HkcPVLW5wq+hyO75HYGQsHsZwRNPmBbUeq8Jcdp3CoshOdpheWaSAjNoRlU7Kw9roxmFGQjESPC5oZ4n3FUhYFzVFmIYg+jHy6ewEHw3AIqyYpC4w2CwwqQGAbQ8cEFAwG0dLSAo/Hw7IY7Gp8tKuwPQfRJhc51730hAIII3eIEkAQzgOuuMlizoBZdh4nnnkBB//wW7R4fJj9zS9j7j/fDld8nC2YIwo5OrgpI9cO/d3y8NIeBQ6kwJF9Qb5kcyd/+BmUHADZNwQMqLBme9Bg/II391dg68EKVoHR0NyI97gwMScGN8wuxNLpOchN8sBDQI4eTjsdIYwG7POLt8KlmfvbEup8ygLKApdjgSEFCJfTUH6sjE1esmprxKkVSfHyLT0U36CwEweR8urEPzDRsf8wSh54FGf3vIP23EKseewBjL1xNeD22GWA+KLCYw3KgxDZe90BgsxDFBLJDhUBmZnAsgWksIFIKbTEe34LqGzwM6/Bm/vLcbKqDR0hCx5dR35qDJZNy8bymfmYlBvPUhddTAmRrkVFlfhz7AQFVGjJ6SdQOShD8fSpayoLdLfAoAOEaC/C5XTKlcaWFUC4HCsP3bESIPBMOrFUdQVQ/7fN2PXwY6iuroR33gLc9Oj9SJ89ncn2yhcBBLbo2ETWobuP4XZlCRDsxV/IDkmpYiqaxEIGXNSYexCYbLL4JsMKGivH3Ow3UXKmEW+UlGHv6QY0dJjMm5AcY2H2mDRcP6cQ88enISPBC7dGAQjBH2WnCstfyWxFqXLkBAiKYjrcRpBqz7VqgSEBCINtbAUQBtviV3Y9ezCKgl4sQt3chtP/8Qvs/vcX0GIEkfvxj2H1N74EX06WAAS8gK/c7zp1NK6sFaPvW04PAk9LpIWbqilyZULusZFJhuFEQ5PSFxkLREOXYaGsvgtvlJ7Hm6UVKK9vR9B0Q9eCKEqPxZq5xVg5qwBjs3wsO8GZl9DdopEehOjPFUAYfWNQ3dHItIACCHfdhQ0bNnRLsRyZ3TmyW+0cjJZJDHcTobILKH3iezj2x9+jLSkBM7/+Fcy//TboiUJ5k0skccVNpYHABkAE08DB+XECBZlAKFkHXORIfpeONCl5EYalo7YthF3H67C55AwOl7egLehmZMP0eBeum5iJNfOLMas4GcleDtaY9LWTuCCGpQRxPVVfVKBgZD+7qvWj0wIKICiAMGxGNmleyBcDCKaJ9p2l2H7/I6g5vB/WmHFY9dRG5C+aD/i8vMIfIQMKK/D4As+nv6ZXG07uDBsyEjBIGijzIAilAWY6CjMwMMHTDunXDsvCoXMt+OvO09hzohoNnRYDDD63hanZsXjP4glYMS0TaXEu6C4TLos4IRINyLTkyM7oKYfimu6uYfP0DZ+GRI6RnkZMT494GH727U6G+6jr+b4He3JTAEEBhL49T/15VPTYF89qBEAwQkBXADV//Bt2PP0smmsuIGnZCqz7zqOIz88FdF0kyXGAIFlvCiCEAYKgcjjAgtjWM30JWTtT8AIM4hJYsFxu+E3gXH0H3j5Uie2Hq3Cqug1dIQ1eF1CQ6sWi6QVYPiMXk3MTkEAkRI0qN5LHh0BbGCAIPuLlMYr7c5ypc40MC0TNB+GIV2+L5DUEELqZYHA3QAogKIAw+JNITwCBdBBENj4blJYBo6EZJ77/Yxz6xS/QFAxg4h2fwNK7/w3epGRAd3FdfsfLJrEO983BgFpcAgRBSbRtLUCUXSXRXsm5uLFpIWgBtR0WDp5txOv7zqLkVC2aA7wAU0oMMLMoFavnFWLhxAykxLkZCZFMzcMVkQqInIXgxAbXdKcMaI+P+JNHIVkHJaZPtxbObZNj2jnBRHsW5DgcruOxJ7QUMcsNqhNBAQQFEPr0EPbrQZcACEwPwQICh09g38NP4Mzbb6ElIxur7vkGpnz4JmjeGKHKL3zhUihJ5jcO12e/X43Y08ns8kliwRZeAlE0IVzbgIsY824wYWoa8xCcqG7H5r3lrCRzVUsIQbgRr4dQlBGLlXMKsWpWPvKTPYhxEzgTtTOEVoWkNnLAEP5vONxzzXbKgPf6iL9ALwAhcpqQFUOdCz4fZxyH0k9+DNUD4S/5OQewslao/P1Ks+IG1t7RACEa7CgPQr/bX2Ux9LtJr+6E0rstxr6swRDe+9KzbqL1H29h16OP48LpdxGaPQc3P7YB2XOmQdNIhcXa6A0AACAASURBVI+XFbZDCuz5F5PFNZtILwGC3NEztwyfGEU9E9IcoLmSCVBZrIoCqtsC2HuqEf/YdQaHz9ah06CCaG6kx2tYODkHq+eNwdSCRCT7NLjlPEuVM8XELnEZ7w+RUaJJOWU5VBRAuLqHZhR/2wYIfEKQHoTw0ihBQVjum/NnbD8VS28O73ZJ/FsCBGm3kQQQLJZhZOuQ2E9V9zEw0CBHeRCUB2HwZ54oTyCPFHDpXv6bBQRDKH/pZ9j1/efR2tWBhFveg5seugdxuZksa8HFKgfKOh1yPuCL37Vb7dnkCgcWBWv4hKgx+WrO0+COGT7x0KftIeBIeQv+tus0dp2oRn07333FuQ1MKUjDTdeNxbwJGchI8iDGBeiWKJ/EzCx8EEQUZdVVwyqprDspkyFiZCmAMPgP2si4Il+EnDtl8TcbsxIGRJJvxei2x1gkQHCCAnle5/jjz4Czxs/wsZQA9zZoitIhj3IwKIDQDz2nPAj9YMT+PEU3L5rc8YqLmCbQ0IyDDz6Jg7//fwgkJWPM5z+FZV/4FNxxPlYdkFj3bFGS6Y12+5x1Gfqz0UN0ruhwjGhGxNuyTLY9yRJlkB9Bhazkvl5SEztCJsrrO/HO0RpsO1iOU1VtaA+54NWB4vQYLJmWixWz8zEhMw5xHq6VYDtzTYMt/uFAqCCJhrUR7c1beEpW4GCIRs+wvyxb9u3FMHq333vzZcVPObojjpSpvSy1KdpFz54Kx2zBzxDepNjDNzIbqJemhPkPbDa6qL0jn1nHoRf9WvSHUc+SQzZW+hz682lTHgTlQRj8SSQaINgkN+5EcBkmAkdPYPe9D+P0jm2wJkzCwg3rMXHdGtBmle1NLfFQ0y4j4pEfReWeLzJxRCUzRsEGUkIkkCBfZCMNQUtDVbMfO47XYuuBMhwrb0Kz3wLlgyTEapg1Ngs3LijGnHFpSI3lhbJ0jYdybCUqSj9lM5AABvL36FEUJZ88+INMXXEkWEACBOk7FMs1R/4aBcColLif/STFT03zAJoPsNzhMSi9ZQ5eDa8xGhLDlo6VUIKTbntk+jnoDU6mw8Xs2NfF+OLQIfoKThcrPcV0L/QePan0T4LyHuFRv2Z5K4CgAMLgzyM9eRAY31AUCuryo+blV7HriadRd6ECiatWYs1jG5A4fixTAGRqB4wkR96CHhzZo6UYw2UDBMcuRhS7osmEppfGLgOHzjbg9X1l2PVuAxq7SEhZQ6wexLhMH5NIXjk9D3lpXvhcJpuD+IRMoRxemNmeWgWHRFZhDzfT4TPo68w5+KNPXbFHC1zeEtY/RpRhKhn0kmc1ATMAw6hHZ+cFhALVCAbaAfjg8abC48uBz5sJtzcBgNsu2Ma/TXNIFwJd1fB3NsDtS0NsXCZMowtdXa2wTBd8MRnweOLCIOEqxmrEV53rOjWlt+rllzSeOBEj9XQi6G9AV1cDdD0Rvtgc6DqRtOWVnaTFSH/GJS/ThwMUQFAAoQ/DpB8PcSr7CQ+g1OVnjnGKn1fX49j3f4zSn/832t0eFP7TJ7D2G1+GlRjPU+tM8XAIIMCeo3A5x26goR9bP+CnksQ/MdfxecBBymaASAApOobXThA1KGDwHZOI6VpwgworVTSG8I89Z/Ha3rOorO+A5Y5lx2XGmVg0JRfrrhuLuWMTwaYdjc4oOQxuBsYIHEgngpRmZkGGiLDuVcyyA25VdYGLW2AowIFczuX4lm0gHk0L/O3HUVO9H11t78IyG2CaAU5OdiVC0wsRlzgBmVlz4YstBMAFunikLQRoFbhQuQstjReQkTUfmdnT0N56HOcrSxjYzc5ZhaSUSbBMj4OvRB7J8Apv/yqDa+wBiEIAzjTrXoe/8EXINZ9ifnJzIx4qlnVB6zwLm8rnG7BIfAydCHSewIWKt2GY8cjOXcTunWmOsJvmF5ZeVAL9jqnwqge+AggKIFz1ILqsE4gURvEc2NlH7OGkqj+hEDoPn8COBx5DxZ6dCOXk4rpvfhnTb/sgLLe7W/GfnvxpA03cuaz7vcyDLwkQxPmkazaMlWiKCPLQC1wIWS7UtRvYdaIWr+2rxJHyRjT7XdA1E+nxOqYUJGHZ9FzMn5SJrEQP4mhWYWGBnhYLx27FcT8Rc6LCB5fZ08PpcGefDzRYiBwo7GqyiivzdTWjq+Moai5sQWdbBVxaJ9xuL3S3h0HVYLANwaAHlpaOuMQ5yMpdgtjYIuZ6t2DAslrQ0bIdVZUlgJaE3MK1iE/IRkfrVlSeexOG6UV2wQeQmrYAFojPFE6b4M8Uv3+HLyyMhKVXjm3ao7gTTnea/eVwoELuixgGECZmeMPl8JwyEjB7gwddKZyqBWCFTqChZgvqausQlzgZObmr4fVlgsVbHc8rf3oVQLjsJ0uRFC/bZAP3BduDQKk8Ah8QNuBbX2h+P+r/vgVb7r0fbc0N0GfNxuoH70XOwnksLKkLBn00R97Z4JEEELpNx+wNEZF1/B5O6JIIwbGbYTwMmlzpn4YOU8eBs614dV8ZdhyvQ007zcEaYvQQZuTHYc28IgYMchI9iPXwSUx3ELeipkdB4BKMUHF5BQ4G7hEZ/DNTOW65mMlx1d+Iz3lex7k1i+MDi8ZuF4KB46i7sAmtTYehueIQlzAWSSkzEROXClhd8HeeRkvDIbS11sPQcpGSvhJZOcugu5MBdCDoP4Xqyj+hva0LSWlLGYBw6UBX62ZUntsCw/Qgp+AjSEmbDxMxjlFPjTBEO8gl6RUhNh7KDDsQZP4OcXGII8HcARygWLoAHFG2szXKpJgYr5YqHQDMa8q8f1STljg/kmNFmRZ0VDU62/bjQvk2BEM+ZOe/F8mplO7ts1UguAuBf09ilf4YR8qDoDwI/TGO+n6OiBADBwmsKBPL0zfham5D+U9/id3few4tlgs5H3gfVtz9ZcQX5rPoIgcI9CD1PIGNJHAQhgIO8/EtlSB2h3cgHCA44IQ4jsVciUgIIGCCZSfsPFqF10srcKKqC52mBx6XicJUD5ZNz8HS6XmYlBuPeA8nIbJSFhG2jLQra4F8y+FSjdgk9b331ZHD0gJOgDCQDRQ+ded4swECkREb0NL4FqrKN8GyOhATPxfZBcvhixkDDcQZCMG0auBv34O6qu3obG+H5puBvPz3Ij5xLIAmtDVvxfmyN6C5cpBT8EEkpEyBhjZ0tr6KynPbogCCl6i7MI0GdLbVor2jCkaoDZrLA11PQFxCLmLj8uFyJTKQQPOTRmRJswntbZVob6tlz6rHm4SEhAyYpgW/vw2w0hCfkAePV0iP83WbvRh12OpAoLMGnZ1N8Lhj4ItLRGdHHTrb61h40OtNQVxcHrwxWawtQCvMUBnqqv6C+royxKesRG7ecni8Obb4E/dGKIBwRaNXeRCuyGwD8yVZylkKm4iFLsQKLlkInSzDoSeew+m//S+aUzIx+64vYNbtt8GXnCQ2tlIihaUz9AoUBqbx/X9WtnlyJAlw3yJXHAoLEQnXp9yJsENccAlb0t6jyW+i5EwT3th7GvtP1aChg0BXDBJjdcwpTsKN84swf0I6UuPczBnLEr0Y30AWZhYzWOQPxw33947ySmzZV/e3jWgiLtK3b/cEPS/yzW4fhWPCEbirDxd3wsHLoaIL51sPBpU70F5s3Yc2XayXrvLr4tRiB651wghVo77qT2is3QVNT0B69q1Iy1oBIJ6z9xnJoBNm6AiaajahoW4/DIxBes57kZ4xC5ZZhbqql9FQdwK+uHnILbwNMbFZAOrR2fo6Ks9tZSGGnIKPIiV9HiffmlVorCtBY/1JBAO1sMwQLM0Nl+aFx5uN1PQ5SMuYC7jiGb/BClWhtfkg6qoPIhBoZu3S3UmIi09n/Cl/Vyt0fSxycpYgPimLE6ltEXnqqQCAKlRXlqCp8Tg83hTExGSgo/08AoFGWKRfqichNq4QGdmLEBdfwDM5UIem2r+i5vwuQJ/CQidJyVNhMf4FT9u0S90TGuknsTjlQVAehCuZqa/4O7zOgpDcIzDNdqicFKeFTLRu2Ykdjz6J+sOl6Jo5G6sfuhd5i66D261zgCxqELIngNUC6Kcn4Yrv6Oq+6AQIIhTLgBIHCAI6aJSuRTaipZ0nb1HIgJK3QqaFE1WdeKPkHF4rqUB9exBBU4dXtzA23YdVc8dg9ZxcFKT44KX5yVH50tTIpUqWJLeksKMNEIYDIIi2bV8X6u4AgX2zt1uKOC0/KNJD0st1e3zbARDEnrGvIyQCIFysvc4TXtEqHf2lKMPIj69kCPT2XTaUJRgIY4NwXfA2BP1nUF3xB7Q1n4DuLULB2I8hJm4mW4TDPUpjthytjVtRXfk3hMxsJKZej5y8WTCN8zh/9rfo6mxDfMr1yMn/ANyeJLa4RgKE25CSPguW0YrmxtdQV7UboVATPN4MeGNS4IKBrk5asANwuScjK28tktOmMW9De/MOVFe+hmCgBi49Hl5fAvMqUJaFEeqEpXmhe2cir/C9iI8fzxdvFoogDyn97odlnUR1xSY01x9gC7zLnQKfLwEejwtBfz38/maYyERS2grk5F3PQi2a1or25tdQU/kaOgMJSMtcjezcZYy0yXhHNGWQPozcbvTTtKgAggIIfZ2/+uU4Nn/YKXgcIJgw2G5Y6/Cj/Ke/wZ4XX0RT7QUkve/9WPvgPUgoKmBTBEkDc9E+vuvlQPlKZrF+uZV+OYkECMIs/G6kspzABzI8LO+UorUB00JdWwi7j9dh875TOFzWgLYg7XxcSI3XsWRqDm6YV4SphYlI8WrwSM8ETVRi8pAS11JpkZ1fylX3y93190mcGt3cOLYehBDO4leUi3x4IZSqEPwdNpvyQ4W6pPQb9By6Euexh5qscSF9P+J6jnVXAhIbAMpDxTFykyexsm2pXtbqaEv2Ouq7rf3yDZ6dIiC5Y4UW77P6BUYYGbFnlOly9kBb5aHBsAHlH873ZV+FFTb50Cbk64HuoUXPJ7qLnu42BLtOoKriN2hvKYc3djryx3wY3pgpjrbKX2vQ3rodNRUvwx9IQXzyEuTkz0IocA5V5X9Al19HevZ7kJmzDi5XHCyrBp2tb6CybBtM04PsfAIIUxDoOovq8l+ho70abm8+37EnFMOldaGtpRR11fvhD3gREz8feYVL4fUaqD2/CU11u2FpKcjImouklGJY6ERn2zHUV++FQTpi3jnILfwg4hPGAZRtwIA4d/9Zmh+wTqDuwt/QWLsHBrKQlDIHGVlToLsBf/tJ1FbtQmenAV/CUhQU38qAi0ZhCf92XCj/B9rbmpCYcgPyi9bB5U6DZVGqp0xEpr7g3tX+eCmAoABCf4yjPp/DCRDktGJYJtwUX6ysxYGN38WRl/+IDreOSf/2RSz9wqdgJcRA19ycxMhcdnwaHy0AQRqPBCTD+0/O4NSolDLjZ8hdAtDmN3C0sgmv7SvHjhO1qGkJwLCAGN3CtKI0XD+nCIunZiM72QMP+R0IWDHBI75KMWeBzC3ttvJE7aD73LODcWBUEQ+JpQQo4GNLCGXJP2y8IAr5SFTg2JOygAtjkEfNq5dahe3dsoj9RIEA5gViHBEHJrFV/gS8kViFIQWZzxpecO1F2G539CIvADcLN/E04fBLCG6zawbYTpZX32C+dcCi9wyYJi1axAGgGD8JEtE56Cdlxci4uYA6mgsmlWJn1+MG58XVeP0A3gZxU2IjYIMMCiEasfB40pGQPA6+mBzBJyLxnzYEuo7jQtmv0dlWDpd3HvKLP4T4xImCzMx9h1y9owYdbe+guvxldPljEJ+8Ejl5M+HvOIaayj+jK5SBnPz3iPCED5pVjfaWLags2wrL8iI7n0IME9DSVILait8gGPIiPnkFcgveA92dysiOZvAYGmpfRUPtSVj6NOQVLEZMTBBVFX9FZ1sl9JjFKBhzM3wxlGbZBiNYiuryv6CttQq6dzbyit6P+ITxMC3iOYSLqLGsBJMAwl8ZQLD0qcjMfS9S02cB6IQROIbqilfQ0lzFwiQFYz/KQh2aFUAouAc1la+gpeksfAkrkV98K7y+PC4apQDClU9AioNw5bbr72/25EEwLANuM4TWHaXY8+DjKCvdC6N4LJY9dC8m3bQaQZfGPAjcFc6ncb7bHR0cBHsvZusd8NgLDyvQJM40DdEVJE0DP7YdrsSW0gqcre1AR0hnJMS8ZDdWTMvCijnjMD4nHjFejcksMw05Rq6il9hZSOP11LnD2oPg8AjInXj3/WUvQaew9iRfauS5RPyWrX+RlfLC3oZengLpWGAroEzJESiFB8+EW925G5c7ef7TNIKwiMHPcuFp8aa/KU4dFKz6EEySt2YrdRCWyRnvtNs3TTqG+taEYRqwDFrg6Rha2EUYT2a30GKvBdixnK3PVQpJRosBAfE78zKwz7gSIYc48p4k2pIVPbjNRFKek0ljux0YZuJuMfZ5yEiDS5/AFnVf/CSYpovV8tBAO+QTqKn4H7S3nAbcM5Fb+DEkpkwWIEVsCJidq9De/Caqyl9ByExBYtpqZOVMRmdbCWoq/4ZAMBfZBbcgLXMZU13kAOFNnC8jDoJPcBDGoLnhbQYoDDMZSWk3Izt3FVw6iS/5YZln0Vz/KmovvIOgNRH5BfMQG2PifNkm/P/svQecHWd1Nv7MzO3btEXbtWpWb1azVWzLHZve8g8EbEoIwcaQjzS+BFwoIYGPJHxfiCEhJiSEblONG8bGBdtyUe9dq9X2vnv7lP/vnPd9Z+be3ZVW0gpkedZe7e69c6eceec9z3vOc56TzSaRqLgZ9U2bYETqOfUA+yD6On6Bvt79MCIL0dQiIgi2Q+WZKo5EJqB7Q5UaD2Gg+xUgshr1zW9Badk8ruKw8gfRffInGBpoRzRxKZrnvB2RMJERczBzL6O340EMDRxEKH4VmlrejFhihoggMOHYp8wURBAm77oCgDB5W53vLb2FnZxWSPoAOUSSGbR+7xfY9pWvoK+3G/GNG3HT338G5fPnigmK+QY0xagKBjGZT9FzcJ4vuzju61/jKVcly718eiz0julYrGkwmrOx7cggHn7hMLYc7kLSEi2ryqIhLJ05Da+7bDY2LKhGKS0maDqWktReREIcszCUPkXWO9vdTGyWU3tkX9hb0TT8H1CpbrVYV+lYv6PzRHEUi4Ucj3TevJIXYWHixzAnRE7yotbet0pXpFtyk7T6JgfupPl3WhE6JBNMK3Pb4rI4+klEOIoMkfiPxavxHAMFAQjJgZDjzonf+Xi0DTlsFT0wWVFUAAX1mu8nryb9Tl2CTcYM0uHT88Q+WwIJ9z0V7hCiW3LQeBaXHt8bR8qqRbUw7ofpeBShof8pTVgJGAuQKN+EcGy+4BfwLlKwrePo7fwpBnp2APoMTG96Byor14DqFD04Z8G2jmCg5xH0dz0FS5uFqrobUFUzG8mhzehpfxjZ/HTUN78Z1dM3wikACE/DsmMSILRgsO9Z9LY/BMuqQFm1BAg6AYQMHKcVQ32Pobfjt8g5C9HUvAzxmImOtt8wx6Gs6s2oJUARrmGQpdmH0dv5C/R374ERXYDGlrdwBMFxiERI4E+Fl/wAYQsQuQyNM96MeOlc6MgxQOg6eT+GBjoQLVmOGXPegXCogRcKVv4lTquMDBFAoBTDmxGL+wCCIGnJXilTM6UFKYYgxTA1I+l0e3E7tRauR2gA2jQRtnZh+5f+BYd//hOMRmK45EMfwPrbPgS9ogS65vGAySm6sOCC0/s/jccrfpuJiB5AcJvUSs9G03zKsnGwI4XfbDuBF/acxMn+DPKOjlgImFObwJXLW7BxaQM3WYrrNjRiOtLkrFMwVkxKqvpapGbEKuNUOhKnvpVj0cCEV128qYcOCw5xKnwxdt9Fr6h5l/focQPIsSuvIiys2lep3+l9Gw7by4RGTphC8HaGV2tUZmdb9JNeoxU9fd6GZZKDJ4tasCxVEy/2ST0DCBDYdlLuJwsNaeiUd3Zr7CnPL1bubv0KLbEp5M8LctWGyAMlIkrgfVG+ufAOFlaiiEAIDwKp3a9+RjgSBY1C+mFoWgiaTrX7UW6BqhEjnnodMPIWuv86l9n5OwqKdJXXz8B/A2R6agKpc5F6iHHePBSeB+jTXYDgIAvYXRjqfwzd7aQaaKCknMiH1yMcqwapgpIddIwik9qCnvZHkR49CISWo27Gm1BWXoPk0PPobnsQGbMOtQ03oabOH0GgFANxEFQVw0wMD7yInpM/Rc4sRem069DQdC0Mg/QU0rCsvejrfAJDfVthasvRNGM1pxiIJJhKdiMU24TGmTcgGmviiINt7kXXiV9gdPg4jMhiNHIEQQEESjMJOxHw8yIIPoBQ5gGE7pP3Y7D/BKIlqwRACNdzVMnMvozOEz9BavQoYqWb0NDyVoQjzbwaEIFVFVk9W8Q+9skPAEIAEE7n2qfkfVdJzG04rOZvQt85jP52J16483Po3b8b2eZmbLz7bzH7xutghQ23Xp8Gq06TmruyOXs3NyUXNWYnheCnYFXLs7/fuak1ni+CIHOVmmPDhIG+tIPN+3rx06d24UBXGlmHlN8cVEVMbFjcgDdsvATz6+OIh6j5NU3nMv/Lc4XuTkrcFlu+5kURxErxzKeSiQDCODDBv+kZRwtOdYf8O5POmcPheQ67U4hdiNiQw6YVODn9DCwzz9/k9Embnxy6xSCAfqdtUkw4o9d1UO/rtAQdCrqpY8lz852GwD4Ckumc65crcPbWHpBgx84bk0OOwGFHTCkkcsQ0tikERE5cOGud5IVZ54J+0va6cND8HNC2tB8qtUuI39npC+lhdkhy/2JbuiFEaAsLsqAWhmaQZK86Np2LAuA+EMDn62sQNO6g8YDChGNKLRL43EnYm65RnKlwRCPIZ55H98lHkRw5DseYg9LyDaipW45IhMh4JIR0DAO9zyI5tAt500ai4jo0Nr8eobCBbOp5dBz/MdK5WlTX3YCaug3QdZIVVxwEP0CYi3x6N7pOfA8jySz08GI0zHgDSkub+DiZ5PPoJTXHVD+M2FVomX0ljFAave0PYqh/ByzMwbSaq1BTsxC6PsB8hoHu52CaGRjRVWhseTsSpXM4giAAnQIIIoLQ0/4Ql1fqkbVo4AjCJdBViqHtAQwOtiGaWIkZc96JcLiOx3Yu/SI6Wn/OJZGl0zahseUN0A16Two0uanXM3+qJ3raAoAQAITz4ivH+AP1QkEFgwjrarkUTv7nA3jpK/8Po6OjKN10Ja757KdQNmcmT4gSHEuH5qtbuOAiCGIFO36nRRWlVhOF1H6XCipivSiCxgMZG3vbhvDU1hPYvPck+pI2LC2M8ngIC5rKcdWyBly2qBZ1pSFEddWOmawkV81SP1bN64pQJlZ+RaBKzSUueFEztgrUiBsnuB8yXDwur90X9/fNT8XjQDhHVZ9Pf6gwuSC+qboWSe8T4XzmwJGgDYXcxSpd5OkpfE8On97LwLZo5ZcWK35ijhP5TgEHWtlbpOcv0gciF0/7pmsSEQLelqMJtk/Pnl2+PGfRlUI4XUU8o4sVjpUcODtgnVbk5Bhi7MihxeUkTivyiGiAJcEAb8urenLcYnUvnDntR3UspP2KLn4EkAXLVHX1k79L0CEAg3LyMl2gogl83up86T4oQOAHBoJXIJRNfVELF3L4hLPU2/7tTuGbeOSrW6yiDPI44pkhAt9xlkru6fgtslkbjl7JK2iD+4dQHr4XltXF95hSFLUNN6K0fBmXD+az29Fx7MdIpjWUV16J2sbrEA5TyqAbKSYpCoBQx0qKC2BbPRjqfQT9PfuQp3bn0dmIJmpgaGlkM0eRSfVCMxpQOf06VE9fDt3IYnTwt+jteBrZTBYwqhGOVDMYNfOd0NEHyhjpkeXMQUiUXiJSDLocK0yEVVUMv8RAz1ZoBSkGArFUAvkAhgZOIJJYhZY570CIBZHSSA49gc4Tj8I0LVROvwnTG64EtDIR6WHD0tjhxjRTNqcHACEACFM2mPw7OiVAkDMFb0Oh1d4B7Lzr77H/wZ9gKF6CeR/6IDbc8WGEShKSjOjNOgXzzwUFEJSLp0fUy1HLegsxMSsim+LLq0lYrqzycHCsN4OndrXj6Z3tONSVQc60ENaB5qooNi1vwlXLmzBregIlkmsgCz5VXYc3qStivVjAFjj58SsY5Dm7km8yrCxD9YoAxTGHIufhEtmk8xdsfD9M8n7XZS6dVvbE6BatfEdhmSlYFjlxQbyjXD4x6pnEx8Q8AgAZDtk7DqnVjUKnFT8DBcrX008K3cuL5YoXiiKM9WJiEmVdTrl6NgRpQ4XYtTiT1XSDHHsMGtfWkgOn6IBavUtvx/YSIXlNJ0AQgU4/uXadVslxaAQQCDDw/sXKnEEAYw+Rn1cr/gKXzIO9eLJXT0DxT28Ff3pmjv8pKv5dnczUrUL9d8ADCIWXLI5KvI8UHKsVyaGXMNC/B9lUN2zbVMkjEUbXKxBLzEJ17UYkShZBIyepZWCbR9Db+RD6e48hVrICDS1vQTRaBaAfyeFn0dn2CpMGpzfchMrqZcz9sMyjXLY41L8T+dygD8EY0I16lFVdgZraDbK6gY7RiuTIVvR1bUM+PyCqX/RSlJeXw7JGMTw0hFB0MZpmvpXPkUo6GSCoZ5ABwiH0djyOwb5d0CMrUN/0epaU1kBaCsfQ0/5zDA12IRJfiqZZb0U4TNcwiMHeX6Kz7Wno4WY0tbwRJWVLQfVf9Gz6U69TqSYbAIQAIJx/gKDmbBFMFP+yUyRxpDxyW/bg2b/+W04vpObMw8a//UvMe9310EI0gYvV65hp6wJj2/uZ3OJ3kfNW63WBieQryqkQAY2IiLaO/mQe21uH8fBLx7gt82CGfIeGadE8Vs2ZjuvXzsGSGRWshMh9lVTJl3ToXtOZIl+j2mir8j92joVRBHlHfHfHq7jjLpmu8X117rxfQb4SrkSy34lw52ShEVubcrMW5eylE7ez5vAZdAAAIABJREFUyOfJqZNqHrXvzUJzktAwBMdOcbkdk/pEyIBTJAQORCpElPHpVJohV/8cBVBkfQ7j0qo9Codrz8VqXTh2WrWH4LDDptd1hIwoi9oI1jo5fRHCZ0DAK/8S6Ab9Tq+pcPs4ftx9enyrepnw4dQAl6B5q3pFtZ0A8hY9i/5R7//97J33RJ/0NyYcJ0BUWKFw2hljHPbwONEI32zgA0l0v1Nw7D7ksieQSZ9AJtUD06JxEULIKEWspBGx+ExEok3uCpo4JA46kRx+Gl3tL8Kyp6NhxttQWn4JjzMrfxSZdBdHbqKxuYhEKDRPqZtR2GYHsqmDSCY7kcsO8/2KRCoRL5mFWGwhQpFaqT1KfBRKPQ3wuZG4EqVqdL0EkXAe/T0vYqCvFaHYMjTNfBMTCAkUum0u2G4EYqkVdRtyuV7oej0isQUIhUktktIPA8im9/BzohuNiMYXwjB0OFYbejp+jP6e/YiXrUdjy3UIR2bAls+ySDJKmDmF7e4DgBAAhNM+7mezQUEEwf3DW0my+6TJPZlC97d/jBe+8mUMDg2j5OabcP3f/iWmXUIiI0UDvmjgn/00eTZXNPYzY6Ikcp3DbasFtJEtaNVfypnqrFtAX0nTwbGuJJ7eegRP7elC64ADy9EQNRzMmR7FDatmYcOyerRURsn9CT9MzlkISRY0feGFvTopX8XTeFc79tzVK/4yPArFq5SDeF0oYdJkTLn7tMzlk1aDCPGzolw+BU0jJji9TxM7kfVErt/hsL8q5bOgU+mdRu+r0jrX4/uIdnQF5MBF2F7TSkT5Gq3UaQLWoxx61ylczyv3uOCqUASAHT+F8Qk0iJA/hfJ1JuPJqAEDBArnq2/FC1Ah+UILFo+7sbb0/J3/drjj2QfFxL5Os0f3bRUl8KcOpmYsyydtKndWuC+XpFx0CIGcvZbm6m2dxkOKI0W2NSJFmwQvgyII0BJc/y/an6t41SDM3C5enQ8N5lBRfSVqG66QIHBUEAT5nsfhEBCkRJNGY5w4KKMMUmnMEijUaYzp5YCTkO3OSRdiFBmSRM70wwjpSJRMQzhcxiCfmkR1nngCo6MDiMYpgvBGxGINbitq76oJVAuei4i0xeBwnwkZYeSo14gYEQ6N2xI4zghymZ3obHsQqVQKNQ1vY/ln6hEhwK0aRSK9Kdo9T83sGACEACCcl0nBhwl8+1cdHCU4oNXziQ7svOdLOPDrRzGs61j4sduw/sPvR6iUVnYq9+0iBQ80nJezPrOdjnEM0jt7sig0cYnQvRcQFg1VaH3dnbTxzI6TeGLrcRw4OYi0HWVw0FRhYOPiOly5vBlLmsu4sRKvD6Qam58vVuh05OK74IDFZ0l/eyI3ciby5f5pFUMh/CQsK8khfkH8E+V5eZPypFnoGk2oA3DsEWgatYskkl9a1nkL0hkRKkXYOA+dOAGyVFC05qXJnsLsxKwv43C+bpDTJxAgcu4qJy/GQVhsQwDAqITObHOhxucR+1QuXcrayly86MYnvsWdEN/evypGUbiu95y3cszK2q5gRcHYFvwTf3RGCTv5Xiuat899Gj/3PZzZqJ+6rXlkqn+KAIRXhiqqR6Trkx8QER1mIxUQf6kSooM1EtrbD0EPzWDBpJLSmbC5rNNhbRA5sfAPjlJJ5pDLSaGID1UGcDGpzARxNKwd/d1Por93N2yUIp6Yg9KyRgbD2dQejA4fRd6qxLSqdahrIlJjBTSHCKjeqBCRGgG2NSJ6yLHJKS9JaFXwUpcVTqzJ0PsrdHceRDQ+B/Uz3sqNnMQzIu+/L/MnlT2m5EYFACEACFMykMbuRD6JsvWCG8bmh4CWwRZgOhh9fgue/+Rd6G49CmfWTKy/85OYe+N1XMsrJIC9PU9lbm0qLtqNE/hKOOmcPVlfn3O2xWNLbnI4a2Fn6zCe3HIMLx4eRPeI6LVQGtGwpGUarr10BtYtmI6akhAMHQjJiYJMwRI59BpNOpT/9Eee5UW50jZu9YJiUZPzVyI8FC6lvD/l9NMw81SaR+FTWrWNwHEG+W/TTMvVPwEEAXiE87egM8yhtrc0UVMUgVb/1DiaHDyRMMOSlCdD9zqF9BO88tdpVa9TNIDY96XcPU/k8FWeni7GT6pU5Xk0ccvt3LZTbsJFgjExaGRLKvm7nxUxVjVxvIiK2IquT5Ezxd31lrtjnbOKFbm+Tw5gEdDxJxiKQYdCdePFIyYara9ecKDso/ScJGyV908NZE+jweO9KFKNGP/Su0vBJnK8STjWAXR3bsHw8ACmVW1Ade3lcHSZmmMPrSRLleCT6ukiHmTuFqvIw4Q1GYRQpGEA2eQO9PU8j9RoHyxuniKllO0sDCOOUGwpauvWoqR8NoNfV9LbK9cQF1cgyqUgihy3InwgpRNyyGV2oKvtceTyCdTUrUf5tOUcQeMRI3UsRKcWGp0EnGh/U0NUDABCABCmwleOs49xAIJStZEAwRlK4cS3f4Rt//wVDGbTqLr2Olx59ydRIdMLFzJA8EcJXF6cFI71SIoqYgJYjoGsbaOtP4Pf7jiJX287jqNdKeT1OMKGjqbKEK5aUo9rV7XgkukxRFUtu4omy3WvpQGmJkoaWT7GJua9WGGp2dJmZT7K51OYn0L7tPrJwMxT29gMbA7dUlRgELY5ymVdIpxLJEAi/BGHIMfaAIJLQBORmoJkrl0T5DtqJEOhexH6pyhAiaidZ7Y9hWoT0IiBzvn/EmjECyBOgEsIJPAQlYIyMgIgUQ/ff8XbKAize5Of4n4o163crJxiJxiXk3GsYtJmnoMbsvXdDHfP40MLEU3wvoQqhSf25Xk2tY3/nCYLEiZzHefp8Z6C3fKI9fq2ufDWu9UKbtE9UGRO5eDJk8vXCtIMpDMxgHy2FelkJ/RQM0rLF8IG8VBU3MhPIi6KBvF4ExEoPrqPYEhliNTXwcwdQyZ1HJn0APJ54tLoCIXKEC+ZgVhiCVcdMDG1AAPKq3LrvWWO0IWvMsLF3BsqT1XKnFlYucNIjR6Cptex9LSmTxMzDYfAPGglWjUFAOGMh2agpHjGJjvnD/DE7Z/nZCRBsMcJxOeRP9iKHdTa+aGfY6S6Bss+8qdY9YH3IlRGhB2RXrjQogbKMH5krSY61znJlbt4dG3mG3Qkbby8rxtP7TyJnccHMZwVucKa0hAunVONTZc2YdnMSlTFdYTkRMbPv6AduJK6op88TQMUCaCc/iizp0GqfCyxawuFPnMItjUIx+oHnGF2/gQWSGGB8/1URcDcAMktkFrupFVP+V1HSzAhTDci7NTFfRCEPyb6ERAIVfFkRSQtIvWx+A45e46cijAt95FgR6ucvxfi50lOyt8Iu/od3gQaF74+S+OT6c5k6J7KwSouxJmkc8cJ54wBEsXX9ep28mdi7eJti2GQaz33DfVLsV19f0snLPypfF1JVtPzwARVyvMLO6vYUsG5nBKbidC/9zkCzKJqhtNuXJVDzloXzwmo8oW4LBM1TCq8Fk8CTgATlfBQ8SYW1GKQTzLZslLGJST6SpTcC1LnOjXjKoggBBGEc3nGJ/zsGIDg1S8IYJ3JYfhXz+C3n/8iBo/tRWrBIlz3ubswc+N6wKAwtfCOFzpAUJEE5u5pGjdGUmF/pvI5wP6ODB5+6QirIfbRQl03EIaJuTURvGHDAlyxrB71ZSHxWa6zl9OEZkOUBdKERKmAJGxzBKY5Aseilf8QzFw3bGtYqv4RaCBHTJ/JcE2/zmQoigbIWyUdvSjpo5A/5fBplU9h/hIO+TtaBbeRDUcrRZTAVdfzMx8JKIhvqhBgXoEt5Jo8Jb8iDknRaPFP/6ebztRiTKzh5XTvDzGf1Sge56h+L6XePt3JneGxC3c3xTs/w3P5fW8+bqykCCBM1kLjx118y/hT7KggQFWsZOLuWG5VsLH6Q27Ehyu6w6cBIO6iwxd1YuAsFxr+e1QwH05wPX4odK73NwAIAUA41zE07ucVQPCCeTLfJ8VwnJ4BHP/3b2PLN7+BvkwODW97C675m0+gpLGBV50GkXccUer3u/gaf3KZmAvMXetUYtSRqvgMEKh0UUPe1tE+mMELezrx6y3HcaA7i5QZQlh3ML3EwYaF03H9mllY0BBDacSCTvK9lBagHCoBAkoJmFQOSIiCBIBGmBRoEzCwh5kQyCWCGrGzVdMeSYfiVTup7pVKJTlKBVB9PrH6KSJAqQCq76f3y/hv7itPr7PsLq2CiFlNTAfR6VCkNRW5VLhpTwZPTZzCikzJOk2plb+szrcn360uuu+yq6AIowrpYd5CNJ04k2X+KYdTsV7UmMDGBKN9vJdPP3JPv8XvYuz/vo8x8bM30TuFIk7eU6rG3wRX5DP3ZCw/JpBxVoaS6YJJfrbgise5fPe8T3sBp91gUmcUAIQAIExqoJzpRgwMuHpJZYlptNv8X8h0kN91ENs+939w6IVn0B8vw4a7/hor3vlWhGLkoOihYnaQFKk506PLg487v4w/S5xiKho3LMl6/ALm83lamsbf9DWYc7D98AAe33Ic2w71YCBJ4X0dpVFKJ1Tg5hUVWDU3hooSCvenYeUJAFCtdi9sSglQ4xoCAXZKrv5J8pfKA1UJogWiCGoOqcuVwGBnLysAdCI2EomvDHqoEka4FppeJXKinCJQ108cASGxKxTYKB1QKLXrlTj6ksXStMJxFlnN7XrsD3OeelYuBgcTTWtiO5W2GtuNccrKuuRQK8hMT3KuFUFiDzpN8mNnM7iDz5xXCxSN6+IIQpEMWPGpnA4ci+0ninf4Rk1BhYb41OT2PXXGCQBCABCmbjTJPfmHPgMEbshEQEF0xgtlTHQ98BBe/NL/QX9vN6xLV+PmL9yJ6cuWMGufM9OTBAgThxW9Z/BUTse9+OIVr2/HhXQz+Xizx/KEgyion8zlcbwvg6e2n8ALu9rQMzgEHSZK4g5qS1NYMqcS6xaVY07VCMLohM1lgqQYSLLAVGdN5MAUdNWC1+0AJwATrfZ1g1b8tNpPAJz/F7XYSq1PiCAR41/kXokYSBEBJgWyXVXpnZLjVQ5NWMlvzwK7jZmsVCtjf0jVR5WUxDFxzFMPsck70mKA4MYRpi6C4BvD40SLT/us+GMrk7+u0+422OA1aAG/c/59gAOeD3zPfS6fx8DAICzLhtbb2+dUVJTDMDyFJnWPftco5lzHRkBSPFcLntnnlZNxA34SIJD30alWrmcAOz7/j9jz4x8iaRhoev/7cfWf3Qa9qkKw8zmnLUvRTheqHvfUVD5QhsR5pS97HxTUTXofdnvoKQZ9AUAodp1qJS8ZCI6NZCqFbQeP49ltu3FsOIREogzVFTlMT+QwvdpES8kAGqZlETWGuD896QiI+AqxrsmxEsGJBH/IqQvnTnX/mk68gCg0oxRGqBq6MQ16qAK6VgropUJkhQVVJLNfeiWx4qYog5uxdx926o4plyMeInC9mbxw9Tdz9fyujt5X3z77sVQxT2M+0YepdpFCJUoQK2WpmHu8qTnWmBTDOez2HD56Zg9csHVggfNkgQAgBBGEKR9afvchOgnKNANJ5ebySL2wFc/d/Tm07tkFZ+YsXPm5OzH3miuQj5DkjYGQBAiKqHiqE1R+XK2LhSsXREERkpZ1+gQQBAz36tgF3d6vP+SuoN3oudqPWs1T/wAmDFI74AyLCGUzSfT2HsOx7gPQnCGUlSeQiBkwjBxK9DRC9K0RaVByBGxS+SNOAAn9kDIckQUpVUApgenQ9EqAogXcyIcqA0QzH7c8UEr50msuR0A58SKvxOxufo1ki4W1RNMmfznAeAtwBbKKWfeF8E+BApePUShccUZj6/QO1V8ZM9nkxBmdwtjA7+lPasIDnMNHz+ykg60DC5wnCwQAIQAIUz60VE9DxUMgJ0XUPZ2WZ0MjOPr1/8LO/7wP3SPDqLnhBtzwd3ch3lQLS6d1NDlEUe7jZrIn6i8/TiZPhHg9pUbOC0tfQrL+/D6v2D2NND/JzY16cDrEgsbCQkI2mEqNLJOqBvpg5/uQyw/DNokvYMGyLRhIQtN7AJKJdYRwCSdMiB+gkQYAScSWQzMqEI5MRyg8TYT/qXSQJYCJS1DC8q5CgEVJ/fpdzSTdjop1n+LuFrj+Yj7BZEfFmByP7/wmeaqTPZRUsZlg8yk/mBsQmfz5BVsGFri4LBAAhAAgTPmILgYIQgzFhmbZyB84ii2f/SLannkS/YkSLL7tw1h/+58A0RA34yFwYFA7XG4CJCb98fGBeK94PauiFZ6/88oOaQGt/KbDuXhxPEG2o3A/OXaSFjZF4yBSEsz2s5aAZXXDsgYBh3QFBqE7Q1xGKFbmxFUU7Xl1g6SCRXWAQcRAowxGuBp6aDoMfRpHBhgscIe/KOvJexepcuqnBwS+DEDR/VPpA2Wc8Vkawq7FTnXibSc/SM6Toy6428Vncz6POfkrD7YMLHCxWSAACAFAOOcxPZ7mgZItIZdjUWoBNvR0Hv0PP4nf/t2XMNJ5AtbiJbjmnk+haePlwnFTiSCXNnpdHNmRyTM8lfvyB5zVdpx/95RZfddpw2HnTk1acrBtaio0DNMcgpXvg231ysYtJNtKjWJGoVFFAZUfahFYVhw5M4R03kAyk4WZyyEejaOxbhESZbNF6SA3ChLNhbhJkCwbFJoBqvOfzNv7Tp4jHr4zdWGQSo2IPIncopB3cM43MthBYIHAAoEFfBYIAEIAEM75gZgIIIgVvgObl9g20N6H/V/5Onb88AfIhEOY/pY3YtNf/RkSjfWyYs7fItmrpVdOUjj+8VeLysd6IMKns660F1iRjDqpJeE4A7DMXuSyg7DMAZi5YVj2CAyNKg9GYGs52QxGh63pSGUiGExHkMwn0J+qQHcX0D+YRMo0MbdhGtYuXYxZTctghGpE6SCfJsUz/KWDMlgwrsXFFUwMEPzxkiKAcM53MNhBYIHAAoEFxlogAAgBQDjn56K4HMfboSAnUhmfls0j/cI2vHDnZ9F5YDfyLbNw2V99AgvedBMQoxW2aK0jCI5CUVwQ1N2kgNytco7+FIMSKJWywexqRRdB7kVgZ5E307DzAzDzHXDsLsDuhGP1wHZSLDks5H1Uzj/Kjp2khHNmKY735PDyoSR29lViNKljaKAEGsoxu64G6y9tweULG9FUWSLJf9RAics1ZP2g7M3sch8EdvAKAv2X5b820YdApAEmip0EofVzHrzBDgILBBaY0AIBQAgAwjk/HmoQKS30goa3rDjoAH2DOP5v/4Ot37gXo9k0ym96Pa791F+jfM4sJg0yGJA+lbgIrIWgKx6CcpLCaapIAn1O+GEiF1DKgLoRUtqAGhP1I5vpgW2egGUOM0iAPQoHQ9xvXdfyop2rQykAKicUrYSNUD2McB20UCO6U6V4cnsnHn+xEz1DOYw4UYQcCzUlCVy1agluWDMTM2qiiBnMZJCdBeg67CKAIMGML+dfoK0wxs8rLsIE2vHuHQsAwjkP3mAHgQUCCwQAgZxYOp3GPffcg3vvvRepVArxeBx3BADhnB4PXvHL4nFy7PQl5HCpfJDq1kV6IbfnMLZ8+u/Q9sLTSJaWY8mf/xlW3fpuaKUk4uN1MPc63im6oUwrMHqQ4jwyqkCkQo34A/YIAwLH7oOVH4BlSS6B3Q8Nfdyvnc5RRCWiogWxXs49B0KhakEiNKj/QAksrRa96QpsP5LC0zu7seXoIPpTGnTNxLS4jhUzp+HqS2fg0jlVqKV2zLLs33XVbidCZVbZpY3/HBsNkJmIonsQOP5zGpTBhwMLBBaYEgsEEYQAIJzzQGIhKgIKNmkOiE5+rEDMVQIWnEwObT95BNu+8CUM93QitmIl1t3zN2i6bDUsQ4PhtnIVCQYOq6t+6Uq5RiOtQlFlYJHqILcvHoRtnYCZbYVtdcPhCoMkdGpdLESdpYaAwX0IdL0coUgTQhQhMOpZipjKDh3q9uZEkHNCONCRw6Mvt2Lz/m60DznI2QQrLCysD+OGlS1Yt7geTVUxRA1qtyy6EYpqCAUAhIAP4wTOmQgE4fEnZLrAV2ww9gYEAOGcB2Wwg8ACgQXO2QIBQAgAwjkNInZ3KuzvOnNqtESggXQEHOSPnMTWL/8Ljv3iJ0iGo5h/63ux6vY/QbxuunCr7EBl7l6tsjlaQGkD4hGk4djUvrgfZq4NZn6E0wa2NQQN/YA9IksVVaCf+AMVgF4LI1KHcIgkiROiKRFFCrRy2ZAoAgdhpGwN3SMmXt7fg19vacPek6NI5S1uGFVfEcLqebXYtKIJS5srUBEl8iRVQRBLQSgdiPp8t3ZC8CYIGHD+g3560YRzMnbw4cACgQUCC/wOLRAAhAAgTGq4uTQ5gQjG/YwCC+w1WbXPgWNZ6H/kN3jxC1/EwJF9yM6aj013/m/MvP5qIBoBN2uUrf2EhK5ob0w8AsuiSoM+mLkubmREBEPNPsGkQkfLQqOIAuf1S6FpldCMWhjhSoRDZdDD06GH6qDpdQDJErOXDsljiVU9neJo3sGuthE89uIxPLevC90pHYYeQiJsYmF9DDeunokrljWjJiG7vLMaoujkqNmUsuCLdWsrGDCwIaiphAIIQURgUoMs2CiwQGCBC8oCAUAIAMKkBuR4AEENHiW442IH9plCqdDuHcC+r3wdO7/zPaTzWZTf/DrceOcnUTKjCY5OuX1b6h9YsPIkUjQAx2wD7FbksidhWz1CmAgpOBRNYDIjKRPG4ejlCEdmwAg3M7mQxIiIW0CkQ6Y5kjohdytUqQBJDXSAnOPgeNcIntjRgWf3dONoTw4ZCzA0BzMqI9i0ogGbljXjktoYEqR0LEMdytVTBIFlpH0RAvpdAASZX2CAwN2ngq/AAoEFAgu86iwQAIQAIExq0PoBguIcCNKgT5lA5dWZf2BCy9sYfWEbNt/9WbTt3YV8fTPW/sXHseSdb4YRoz2m4VhDMK1O5DM9yGd7YdtJwB4E0AMNGcFhkORCTZuGcLSOOQTEHyBFQt2gyME00bUQMcARXQt5he8u3EU0Q7VY6k9ZeOlgH3710gHsPDaEtB3maEJFFJxOuH51CxbNqEBNIowQKzp6AMEzlgQI7guir4OAIP6Iwem7GU7qBgQbBRYILBBY4HdsgQAgBABhUkNuPIAgqYluxkHjpge66ANEqYKBERz5+n9jx33/jtF0ErF1V+LaL/wZps2dDsvq5dRBPtcGK98JoBNwhvlcNCcEXQ8DOgGAKhgkU0ydDEONCEVqoWnVgEb9CoQIkZf1MBgY8Gl4bZeYL0AvjeRtHOocxVPb2vDs7na0DeRga2EkQhZm15Xi2hXN2LCkHi2VMYTZ3xPIKHb4pzbX2GRCABAmNcCCjQILBBa44CwQAIQAIExqUBYDBJXD5/y7csiMDegf0ZgpvW0fXrrnC+h66bcwowZm/+mbsPyP18LUhmCbBAgGuOqAqxNouU+gADEYej0i8TkwwrUibUANjrh/AQkqhWUTI68NOZMhWQ3B4J4IBBlYZpmJkjryANoH0njuQC+e3HIchzuHMZIPwdA1NJYbuHxhHZMQFzWVozTCxZAu+dCLQqg4wqkBQyFAOGWpwqTsHmwUWCCwQGCB35cFAoAQAITxx14RD1EE6Xl5rzILco2umiFR3wN6jyoXTGA0h9b/egBbv/r/kBvsRqKlFCs+tw6ll9YAVgo6gQIqRdTiMPRKhKIUHSAeAbU5roJu1MtqA6o0MABqkcw+WmkJqAbPgjRIBEcqa3Qcg1f91NqY6I7DeQe7W0fw+IuH8dLBTgxmNNiOhnjIxtKWKty8fh5Wz61ETZyaRAn+ADMJOAzhgQEBFAT4mUjumc3D/wSkxN/XhBYcN7BAYIGps0AAEF7LAMEHArxfC5GBS8or6pzolvfJ7D5XFLBo0SAccwipV7qx/YvfQvfLz8DSTDS/fQ7m3jEH0bIw6w4YRhVC4enQQvUIhRqgR2ZB16tlHwNRriiElqUoMact/NLD4jz9Z8viTLK9c8p00NqfwZPbT+LpHa041ptD3jEQ1R3Mmh7FxsUNuHpFE2bVJRAnngGzH0X/B+4qqRHkUHsXx6VohGA3eMJOU/coBnsKLBBYILDAhWWBACAEAKHI0RYBBLlQJ//puUvhioU7tmBbo7DtIZi5I8hkjsEYHULXT/Zh5788BSs5AjQlsPSTl6Np0xxooSaEojMRitRANyh9IFsfIyYbGxESUFQ/rxODtyaXpYPyOaKohWwJxSWMJnQMpUz8dm8PHnnxCPa1D2E0H0beCaE6ZmLdghrctHYWls0oR3mMHL4AA+z01UVKNUSWgFbWkb/7BZGCOMGFNZkFZxNYILDA1FogAAivSYAg+xl4UXoxqqTHU0BA+kkpQqRC+3lRbkjCReYA8rlumLle1iuwrZMwcllk9o1g773b0Lm5FflwHE3vuhErP3ENSqtroOukT1ALjdsfRyXRUMYjZIifdYZsr5ujq0MoT4ESCoXO2YHlOJxO2N8+gmd3dOD5ve3oGMzAdnTEIzrmNk7DlYvrsXFJLWZMiyLK+QQhDS2SCipaIYGPjCgUChyoh88PE6b2gQz2FlggsEBggQvFAgFACACC8pMc1RcuU3Yb5MU8gQlympbsjDgM06SSxBPIZ4/ANI8Dzgg05KBrDiKjVWj7yQls+6fnkXYMhBcsxca7/xozr75M6h4YcBzSKJArdheZiJJJdthyJU+Ldi/ML1b69FlmAbjNnRzkbaBjMI3n9nXjsS0nsbc9ya+FnTyaq2JYt6gemy5twaKmUpQYotiR9RFEsEICBPVI+rgHLgoprkQoBigXyuMcnEdggcACgQWmzgIBQHjNAgTROlGVKnJnQ69pAMsJi9U19T9IctWBlWtDJn0UjnUCjtUPm3QMNJOdLRENjVAT7HYDu//+UZx4fBtSsTK0vPtdWP+xP0WssU6EKEg6kQSFOO8vBzIrKXoAgd4XhEgRO+A0ApEfWY643qzSAAAgAElEQVRZAgTJP+jPmNh+dACPv3IMW470YTBjMMgpjwKLmsvxurWzsPqSalQnQly6SPwC5ikQQHGDJoUO348LFFwqCllM3RMY7CmwQGCBwAIXqAUCgPCaAwjCK7P75zJAN6EgXa7owKiRcqEzhDxJHGd7kEsfhG22Q0MvoFMzJAo3VEAP1yESqUU40gzdaUDnA7ux5R++gmR/B8zZC7DxnjvRcvVGaOGQFBISS39WIZQ0RIoYMG7we2E+NwIUpLSowAOHFPjcTQc4OZjFYy8fx69f3IeTowbyWhwhzUJLBbBp5RzcsHYmmqeFEdYEvZB7J0kgIppDamCcwBENYYfxeQWBlsEFOn8FpxVYILDAebRAABAuEoDgOXq1KldrX7kadweRx/73svAECOh1aoyUkdyCY7Byu5DPkuzxAAMG0SchCt2ohR5ugBGejXD0EhihGgAJZA93YvvffxWtjz2IYS2Elnf9ATb8xccRr6X3/ZwCEZtQwX121KI+0Bvq7MHJMdOKX5QWEmAgYNA1nMfWQ3349dZj2Ha4Byk7AkM3MC2hY/XcKty4ugVLWypQESPgQZEHT1BJgBEbmu3XKKCeCm6sYPzHLWAknsdpKNh1YIHAAheiBQKAcDECBF8hgqIWeoOvsEpBNCGk5kijMK12bp2cS7fCMk9AdzoALSP6CWgJ6EYjQtHZiERboIfqAaMWQJlYgdsOOn/4S7z4T/+MZNtx5Frm4KrP/A1mXn8NtBD1RBAAoKAaQUUvFDiQTZt8mQ7mIKhGicm8g73to3hiy3G8tL8LHcMWchZQEgaWNJfjyhXNWDt/OlqqIghpgMEftEFhAtJSsOTBDUf2UVKSBVzFcEp5gwvx2Q3OKbBAYIHAAufVAgFAeK0ABIkLKJ8v/KSIFjj2IGyrG7l0O7KZY3Dsk9CcfgEaEIFhTIMeqoERaUA4cgn0cCM0VABaCbdK5rW9bcFqPYltn/8nHHr4QWQNHbVvfSuu/t+fQKSx3gvvu5ECr2BSMQV5P+MAhDx1ZDBtdA5msXlvD57cdhxHu4aRzAkp5KbKKNYvbmQlxHmNRELUOKXAX/xDRh80nQECXTsBBA5Q0DGZiuDv23Ben7dg54EFAgsEFnjVWCAACBcJQCAdQVoHcyNimbLn1D2H6T1naVN4HTk4dj/yuROwsvthZg/ANPuhIQ1oFjt/0R1xLiKxWQhFmqHpJdBQAkcjZUOlGSD1ClJpnPzRz7H9/34V/R1twLz5WPepv8TcG66EY0RhSIEh12kTAZKZgsKBc2GhrCjwlI9ICVFHf9rB1iP9ePSlo9h2dADDuRA0O4fyqINlLeW4cc1srFtYj7KYwUkI+pcM4CkoKPFDOoYUWvJRGtyoRpBCeNVMWsGJBhYILPC7sUAAEC4mgMDsf49sJ7h9yvPR60k46GNeQXpkPyyzFbrTBWCUHbSNGuihZsTiMxCJyTSCVsmAQbRMlo2R5NgkOWNYeeQPHsPmu/4BXc8/heFIBLPe9S5s+svboVWVQ0PYbbbs8SEJxNhwePmuweGKCeI30HeYUxbEHDjQncVDm4+ypsHJgRwcLQRYJubUxXH96pm4YmkDt2aOk6aBBELj+Xk/DXM8GmKQXvjdTDbBUQILBBZ4dVkgAAgXOkAopAyI0TWOF2RgMGZbcrgmHDvtRgyy6WOw81Sq2AFNI9GjKDS9EuFwNYzoXISis1jh0NHL4SDOoECJCLlxe04FUDmBDSeZwskf/Bybv/xPyA0Pwpo/H+v/lqIHm2Rwn/gLVJ6oTlqVNBIoEL0N+D/NYniQt0PoGTHx0v5uPLntGPa2jWA4a8AwgNqyEFbMrsJ1K2dg+cwKlEc1GJqogBAAQdZFsmSyKuH0PZCqdtL3UgAOXl0TVnC2gQUCC/zuLBAAhAsSIPg8fYHTF07W9bVuzN7flIDr92TgPsVtlXOZQzCzu2Fmj1LTY2hOFtAi0PU6aJHFiMQXcKkidOIWxGAzt0BEDEgdgTGJQ5UABfEJOLkc0jv24ZV/+Ed0Pv8k0olKzHr3H2LNn74fiaYGER2Q56Jghjh/JbwkHDpXJ+gaRvPAruODeGr7STy/txN9o3nRWCkMLGwsxQ1rZmH9wjrUlIQQ0UUHR00TFQp+5KQxYhgHLxVs9bt7yIIjBRYILBBY4NVogQAgvKoAgggfFNUhFC2RTTgONU3qg5U9inTqMKz8MehOJ4A0NC0BR6uFEWlBNDYLRmQud06kNsugbohqES73SgBBEQhV9wXhfm3Yg6M49I1vY/t9/w5zaBBYtRZX/dX/QuP6NUA0KhQKHQEwVJsjV/hIMBk4tZGzNRzuTeO5PV14bvdJHOlKcTvmaMjCzMoI1i6owzUrmnBJfQlKQwa3cqbyR02nCgdDCC/RWQqhA2i6AgyvxkcyOOfAAoEFAgtcGBYIAMIFDRCU2qHgEohyP8rZF+cS6G+TIwPUTdHMnUQmfQBmdj80h8SNMgDigFaDSHwWwrGFCEdnwtFqACcBm1bhHKJ3RJdjCUEE/1990XGVtKEDzcxj5KUdeP4zf4/u7S8jGw5j/sfvwLo/fh/ClRSJENsWruWJRAlYslMiXcZo1sK24wN46LkjePlwD4bzYWh6GNEQsGZ2Bd68YTZWzJ6G6qjgLRBHwesRISowXb6jihAE7ZYvjNklOIvAAoEFXtUWCADChQgQ5Kpb1OJJRUFWLlSCQaKnMblLuoEG9Umwe2DmjsLM7EQuS+WKfRwxIB6BYTTCiC5FNEaiRtXQDCIPRuFo5GwNfzWgpPy7nlauzj3JY8F10OB0dOHQ1/4T+7/3PxhOZxG+bC02ffqvUL9yKaBRLYHXM4ELK1mdUV6LpmHEdHC4M4knt53EEzs70DNqwrSARMjCnNo4rlregisW16OlOoYo0xhkeaZCBAIredkF32NI5Y/BV2CBwAKBBQILnJsFAoBwAQIE6hfA/o8lidUNlktlVRjIfQWIZDgAO9eOdHI/ctkDMJx2rlaglIGj1yMSnYVYyVwuWdR0UjSMSK8qKx6UZICsM3QTGLIfgr/hsqMLYiKxCQce/Q02f+nLSB3cg1R1PZb9+cew5B1vQric9BFCniiSLwxB8ICUEHuSJp7d3YlfvXQY+9qTSNkx6DBRFXNw+aIG3HTZLCxtLkNpmDgQnJTwVWP4yY6+EMfplBDP7TkJPh1YILBAYIHXnAUCgHBBAgSfkJBbo6eC9bSCzzMIMPNdyGcOIp/ZA9s8Ds0ZgaPFoRtVCEVmIxxfiFB4JjS9CpomOAZi2e3flxzzFKlgRUGFGCilIHQUVJEAlSNqpoV8Wyde/vK/4OgvfgHYFiquvRZX3fW/UTarEdApIiHcumIC0O8UPxjKWNjVNojfbDnBEsmdIxZMasccNrB0RgmuXNaI1Qvq0FQRRkynvXhcAn+qQ8keFsQJgqDBa27yCi44sEBggfNrgdcIQKCGP0A6ncY999yDe++9F6lUCvF4HHfccQfuuusulJRQrb9Q5/t9f/lvigghCKfNr+s5WPkumLmdyCQPwTbboKFHOHK9GnpkKaIlCxEKNXMqAVocDiKuVNGEV8epDHn9blpDWUKlOSwgmUb7936K5+/9GkY6OqA1N2PDJz+BS97yBujUkMnlSaiUgoGMBbQOpPHc7k48ua0NR7qSyFEraJicQqCowTWXNmN2XRzRkM0wxmB0Qk2U/KRMpeogQE4AEH7fIzU4fmCBwAIXswUuQoDgEfjc32xR9pdOZ3D3Pffgaz6A8NGP3oG77yaAkJg0QBgrTXDmoML/iYIzlmJHrryRCxCyrGVg5tuQHt0PM7cLOgZYXEjTKhCKNCKamAcjvASaQSWGdD0yCuDTFWTXKnfupS+KhniRpAKpNNKXbllIbt+H5z/9WXRv34ZMIoGm/+/tuOK2D6GEyhrljkXEwYFlA30ZG68c6sMjm49gz4kBjJoh5PMWppeFcOnsSlyzahYum1uBsgiBAVJCkJEDW4dGAkiy8yQxLqjpktek2QcQztz8F/MzHVxbYIEL0ALjCbqo6GXh6Qq2kb/9u/f+qR917123FHzMYSc4DyWIMuGkONakPANd5HPPxQ0Q3Ei9DyDcfTe+9rWvcQQhFotxBOHuu+92AQKL+pzi8TrFMD+7bj/uDv0wQfVLIA6CBTg52HY3sqktyKZ2w7I6EdJS0LQoYDQhEl+KSGIhdL0ecEoBLezJK8uMgrgm9a98AItxAeEA+ZZqx0x/M0CwHdi9A9hHxMT//CaSuRziK1dj/V2fRPOalXCotJAAguawdkEmb+NAZxJPbGvDs7vauDWzrccQCzmYVR1hJcRrljehvtxAxLG4J4KI3hjchpm5kFxSQREEOjH6NtwIjxBvCr4CCwQWeHVYYOKZc6xPHn9+KoYRgjalti2aDdwVlvcpRYcqrM46vfUm3v7i7+FyEQIEsdolD8Okf/Er/5NOZ3HP3XfjXgkQKMVAEYQ777wTZWUixeDp+I8/cGSwn9+kNa1wu2o0Tuyy1CArGM4Fz4ysSpAuUayUSc+gG/n0ASYhOuYROOiHTSkDbTb3SYgl5sAIz+IogqNFoRHLX2EB96AukcF3vp6d1AdYOtmNLqgUgVQ7zOQw8MRz2PwPX0by4B6M1NRhyZ98ECs/8F6EyktlzyWCEjpODObw/N5uPLH1GA60jyJpGjA0G/VlOtYubMR1q2ZgYVMZykKkhEhIgKIg8kZxyaWqXZSlnb6yTi8FFACE009twRaBBS4UCxTPN2KSElOzb3YUeU5XlI1mRVreGbRwsEkYTU1uYq52JzvaBy0spBaKmgaVwCz3p1FzjDqkTKmqJG7x7K32zusU3r18xdeeXjR7u3i/LkKA4KEChxj3Lu1OAITPfvaz+Nd//Vckk0mXg/BpAgilIsWgHORErl4BBCEaJJyUtzof/1N+HOALgrkVCmrc2fymaKbE7ZdzHcimdiKf3Q3L6WKNAk0rgxGeiUjJKoQjLdD1agDUSEnl6otaF/tOyfvVewDFSfhCB/7eDcRF4LcdpPcdwp7/+3UceeRBTh2UXX89Lv+Lj6F6yUKYFD1wNAynTew5MYRfbz2Gzfv70Z+xQfegNBbG4uYyXLuyBWvmV6O2NIwolS2qck5OJQjVRYZbMj7IgkeF2MYX0gsAwsU7LQVXdnFZwO+C1XwjAYJcvAnZdTlD+eYsVmLlai4HlmMh6aSRyiSRzIwihxxiWhwViXKUhksR1aNiRnY/L0CDqTnI2Flk8klopoYy2jZMTefkOWgO8tQbhqK1FKfUQqAG9bTcycHESH4UlmWiPFzOxzA43Okd5kLgrZ2v8XJxAwTpcMRFjg8QOIJw150oLU1MivTmRRAEQCjk2cvuhvJu+X2bF6by4IIbWuOuiw5sRgo5wO5FPnMIqdEdsK090LUR2E4Cmj4XscQixBLzoYUaWfzIscN8NFIXVgNe4RxGzKeIw4vjjw8QOMzPb9vAcBIHv/kdbP3a12CN9MNumIW1f/MXmPPGG2DE40hZOtoH0vjNjnb8eksrWnvTyGkxhDUbTRU6rljahOvXzGQSYpwqIWxbZiPEqoLSE2RJFfFRgGlcRUS5ggjSC+drSgj2G1jgfFjAW1q5qN9HFBC6qkXTlSROUwwhjSwODh7EzoFdON59HAND/cgihxIkMKd8DhbWL8TihoWojlRBlw6cog+2YyOnWTiYOozt+7ch5ISwaeaVaKyqd4XnCED0ZwdwqPsAR2DnVc1FdaKC5+NhJ4lnOn6L1rZWrKhfhtXNa1BiUEVYIaH9YgUJAUBQAIGqGJQYz5iR6j0wokOibFGskgtu2OsUKQYZvVf9FgtSZLxSN6FpaVjmMWSS22BmDsKxu7iJka7VIBSdh3BsCSLRFkCvFMqIrKMk9qSrHs8F2oeni4NwIkaE84gcySt61eiInDag5fIYfmYzXv7il9G942XkSsrRcsstuOzDH0C4vhY9KRsvH+zFE9tOYFfrMIbS1KTZRk2Jg9Vzp+OqFS1YPLsa0+I6QpqNkIwCMtKn4/Epiq6OPkxeMEMVxAoCZHA+Zu9gn4EFzrMFxgMIvkO6OQEvdUDzEa3gh+wktgxuxUN7foljvUeRskd5ytA0HbZlIWxH0BhqxobG9bjhkuvQXNnEq3wCFnnk0WMN4P5DD2D7ju1Y27ga71z5DtQmqpWIPIacETzT/iwe2vIQYmYc713zbixvWgRdN5BEFk/3PIufPvdz1Bg1eO9l78Li2gUMJESEU7SQDwCC715e2MbwpRjc3JYIUY2XYvjoRz+KO++6C6UlJPDjpr+gGv4UPzVq1e+qAha5MrnsHvOw+bJs/qdCOGgnB2AAZvY4Roe2ANZ2AENSHnkm4mUrEU0sBfQmFkDiBAHlI3xCSiSqJJy734OeCiB4dqJBTruzKccngwpi9a7Bam3Hti/8M44/8jPkcmnEL7sCV3zpcyidcwkO9qbx8AtH8fSOVrQn6YEJI6JZmFsbxRsvn40rl9WjriQE2pWohDBlAyihcCAaQqnwY2HDJb8Bg2TCeZ67g90HFjivFvBSDO6CRMULZBRTcKdE3F5BCQsmRpHC5oGX8a3N30JHsg1GWEd1yXQ0lDWjIlaBtqET6BhpQyaTRWV6Om5suR7vXPd2VIWn8X5GnTReGX4F9z3/TYSTIbx35Xuwcc5GTteO5pOcOtid2Ycf7/kJdvdsR73djI9e/hGsblqBMKLIOHkcd1rxw60/wp69e3Ht7E24Zd0fIWHEJftMJpjdRaI05EWykHlNRBDEClkAhM997nP46le/6nIQ/ACBsv+KFDse+YQHLi16hW8WQkKneLDGpBj8ZATGrxagZeCYbUgndyGf3gXHpqZKee6bYEQWI1ayBKHwbEAnTYOwR4dkgCDYNu5x3EE6PhzxxUEk60ahdcrzibAJ0TaIG6CT/sBoGsf/50fYdu+9yPV1wm6cieX/6+NI3HATnj7Qj9/sOIFDREK0QmyTlsowNiyqwxXLGrGosQylEamEKFsv247Fx6FiRU7OiHCMj8nhJWLO63wV7Nw3ixUMysAygQXOkwXUsy2av8l1iJzCiI8k+r2qCU6s/nM4kTuJb+/+Dp45+DRiRgyrZ63FtXOvQWOiEbpmYNQawbbubXhs/yPoG+jDTGMObl3zR1gzYzVCehhtZjvuP/hjPLHnCVxRvRHvv/xWVMar0Wv24qFXfonDw4dx0jyJHtKW0bJozM/E7ZffhlVNlyKGCPKOhUEM45G2x/DTrT/DDKsZt65+L1a0LGPiJEcPxlskBgDhPI2jc97tmUUQ7vjYx3Hnpz+FuIwgnK7MUYQZAFId9hMaCwa9DDNYOg18CkHpHMIXa2QpSIQ8NAzDzB9GNrkdufRewBmAToqHBqkgLkM0vgC6UcckRG6UxBEOr4ETSxBL3QSPzSdzeZMRfOJzU+herOjFKVKLxRxGX9iK57/wRfTveBl2eRWmvf3tMF7/TvzqaBrbjw5iMC3KR0tCNpbNqsZNa4iEWIPKuI4IPesMDBSXgbiOAl0R+BBwRFrNzUVeJE/VOY/h87yDYhwW4LLzbPBg9y4q8DWNF1UBNIfRZEDqq0RQVuDBwqiWwksDW3DfK/+Brt4uLCxfhFsvey8WVy9GRIvwvJpzcui2evCzgz/Hr/f+Ck4GeEPLzXjH2rehPFKBFwZewrc2/zeGhgbx7iV/iLcsfSMMhNCe78L3n/ke9o0eQC6axaDVh6Q9isZ8C26//HYGCHGbiIwO8loem4e34L9f+TZGO5O4ce51eOeqt6EsVCZBzThS8BfJVPaaiyD4qxgSpKT4sY/j02cBENyUv8LCvJoXblr6cNi6KBUUDH2Z0+dQex4g0aPcYaSTL8HOHmTpZE0vRygyD7HStdBD86Fp07y+CSr0Jo/D+5XhOX7MZDqFCToCSUwY3VAhPL4GbpksiolYW4BCfbaN3KGj2PKPX8WxRx5C2gZGF16K4de9Hru1Zhzut2HZOqJhoKU6jquX1WHj0ibWN0gQyUBBDVZB9CIcQvtknNphJefsqwdR1+aqOl20c2zxCv5MZ5bJfH4y25zKwP7Pn+n5XbQ3zlU49a7wbGzzGrGte5nefCDWBURapmlOAgQZWrBhocfpxSMnf4X7d38f1qCON8y6Ge9e+YeojMhusdQVlhRykcFz/c/hWy//F7oGOrA2fjk+cOX7UFs5HT86/AB+9uIv0GA04P3r34sNLZfzfDxsJ9E62opBcxBD1gieOfYMXul4AfVmMwOE1Y0rEXOobw2p19o4nDuOb+34NrYf2oGlFUvw4Q0fxMzyFlcO3l9+LVc/F8XAf80CBCWUdNvHbsenPvVpJEpjUi/QkxtWLYtlkb8k8/l4Cmo172McCkAg8mk2TAEfuLGSAAghJ4eQ3YF8dg9SIzvgWK1wNMrN1yMUWYxo+XJooRlwUApNo74G5Lol21+NPFr5SxDgH4Xuo+dTNBxvlEpcIfchIgYWlx0aCFkh6AODOP6d+7Hlq//KglId0+fjwMKr0DpzIQY1KqnUURXNYeW8Gly3djaWzCrDtKhcDRSlXbhMyQcSVOxAkSG9jg0S+UjAJdgJnPS5KB604CICC7zWLaA6wXKC0SFtFNI8ER1rifPEvWB43cP1BzhpdeD+Iz/BIwd/gdJkBT644gO4ft61iDpRFlYT8xgVheexM70HX3/xazjUcxDzrUX446vfj+rqavzH9vuw9fBWrCi5FLdueDcWVS1gp04zMzePg4leqw8/OPRDPLr/l6jPN+O2dbdhTdNKRBGWyvEOuqwefP/QA3h8z2OocCrw8cvvYBBBaQYxFcsVnFrAUVnZRfD12gUIyRSmL6zDDbffjCsv24BwhMoFxarc5gFLrD1Cjxocy4Ye0mGbNjRDl4Id1PtAjAAazGLwi5U85b7GGx6RXBpzEzouqUzD0E/AtinvBRxP2zg8GIaZvwRmpBHQqBuBCtFLSD3hYPMfyWUjTGJoqjiC+GnSNTo6aofKUbulFX0/+SVShw+grawRh2atw95F6zEUnwbNScIo7cSsKgurF8dQXRmHppuwNRuGLeqDi0ELZx1lyEWzvFzj2NxdkA+fxI0LNgks8Kq1AKVEI04Ul9auwILGeW4zOEHsklMwk6YttJkd+P7BH+LRow+iOl2HO1bejo2z18NwQnJdIZwyOfk92X2494V7sb93H+bnF+GWq29BtDyC+165D0c7j2BdxTr88cYPoqW0mQ8jarfE3Eopiu8c+h4e2fdL1FmNuGPdHVhFAMGm44jlzYA9hJ+1/hI/3vUAMAp8ZOmf4rpFVyOmR8cVz7mwifyTHz4XOUDwiALFJMVsJou5N83DJe9ZCNPJwjZUuZ8Ig3N+TKpvyU7IbgpBpsy8fBl7OslapDQ7U/RpnS35AA44J39ZqY6rG2sxrwowImnkHQ3bBnN4vGsIe4dMmLkIdKlr4A1f4VwpXaGERPhZYlUl33LdHxbwK4yNMxY8JC9hOIfqbFSkSjD30DBmP96Daa19yIdi2NW4GvsXrMPJ+hmwo6PQy9sRqTqKkngXYOS4NJJtxeWLBKq8cyI7qj4OLnCwyS4eNBBhRp/uegEeujhQ+Bk8jqcWrjjljiS4EqElqU4nP+CLcIlXzsKuPjVLjxVbdKzTYdXxuA8KCbt8lKLTGw/z+vczXoS++DOn2kaZ47TbTGBTd7yehU2lgzqr+zH5QXWBbCnmx7AVQdwqwbtX/gHetPT1gpyoiMrShKSYSJ1jT1gd+PHRn+KhfT9HeXoaPnLph3H1JVchpNHKXkqwEwdLs7ErvQdfffGrONR7APPzi3HLpvfCSlj4xuZvoH+gD1fXXI1brngvGqL1EhqognMHHXYvvnvwu3hs7y9RZzfho+s+itVNKxGxQ3LKdTDoDOPBEw/jR7u+Dyfp4JYF78Prl9yMUoOa4QlumJJ+Jl+jcxXYq//rIgQIChTYXLbnPXyiiuEzn/kMd3NkgHDzPMy8ZQ6y2ijsCNXvS6dbfF9V9NsfBVcPN+MIXyCcWwZIBUJ+3UYZDCwtieFNTVVYUBbmsr9BU8MrgyN4rG0Q+7J5aIYD0OqaVuGKyMCn48Ch9xS8ds9t/AmJQ/NSo1yoNQh9A1E1QP/bHM6zbapUoLAeXbeOSD6OOUdszHy8HU17krC1KNqnzcS+2Zfj+Lx6pGtGoU3rRDjeCSPWBSdswjEof0jIQD6urkSymAyE1oFnTAorMh7nLAyJMhv8cFO+UZhezRBn+WCNuT9F+xnjKE9h1lMFM8bbz3hjpgDsTOKazsbH+M/zTB3nZI43nh2KnelETrwYi5zp+Z2r85/ofhffl+JxczbjRH1mMjYtHgqTCZydbmxPGugUUScmO5bP9HkoPl9J3A5lYijLTsOtK/8Ib1r2Bk41FAIEh+VRKCJJHARyyj/edT/0wQjeOf/teMfyt6A0UupZ0AGyWh5bRrbh3178N5wYOIaFzjLcetV7MBwZwTee/wZGhkdwbe01uGXje1AXrRUQWfIXKLpJEYQfHPoBHtn9MOrsRty+8SNY07ASpKeoKsX8AMFOOnjP/FvwxsWvR1lYKvAq8jnxrgKAcDZPwSQmyCnZxAMISrNA/aRujqrdM7V+rltWj6s+ci1WrlkOh/obKQdVcHneSPe/7JL/pdYPr4TlAlrGIFgaNJbvRIXThqXTQphZQi2OKSTVgBGrBpv7c2g3w8hS9EJqiCsTSFkDWb0gHLDLiVCLmTG3QUIVfpil+LIjVvEEAvhKpLCHWNlrsIkJnM1i+Fg3pj28A3VPHkUiC/RUzMCJ2auhrb8MlQvqUDZ9CHZJN3KhUQYG/kWoBiGOZFHobzzbyfycW8fBCMYRAEVyFApuPe+jeEbyzzj+Wa34db+3Gm8pOdntz3Q/6pwn2r97Z+Uvk/EKk3ggxnOip/rY2W5/IT/ykzDTed3kTG064cmcalxPNL5ON+7O9bk50+dggsYQ1t4AACAASURBVHEtOdXhXAgl+VJc3rwGK5qXcd+VwoIrgSLJcQ87I3iq51l8Z9u3MdQ/jHVV6/CBtbeiZdoMNzpL3KlBZwgPtT2M+7f9CDSvX1N9Ld6+7m3osDqFfkJ/B66bfh1u2fAe1Mdq5TKQjkGpBgftVgd+dOgBPOoChNuwpuFSVl1UEU4BEB7C/bt+AC2l4X3z348bF96IkgipKhbJ2ytOwnkddL+bnV+EEQRvgHpdwpQOQqZAByEajeK222/DZ+75DCJlcZg+QqAwv3Cyqs+BX1ZZCfwIOqJ4sIUUkKrzN2HbPUBqKzIjm6E5x+EgBN2YhUjJekQSi5HXG+QRBdFFfKkWULRfYvbSEeg18bpahAnaolsoKM9TZdYEXVHSZ9h90zkaMqJB4ID2lnV0DI5q2L9zD9oeegDazx9HeU87eiMl6Jy3HvF3vQtXXLsai2ZUoCwsKJf0QAk7UDRATU6WxM+SiyGvRKggSORUFNZWxZ7eFXnYQlyVvz+E/2HwW0EdX9jC29fkgYHXw6I4SnN6EHLqz4pzENuMN8l6I+x386gHR7lQLeCr85Gn6F+UTDR+Tgd0TwUM1HNzZuBhorHsf71wG/UECEIgfYU4bkhbiQSsiLF6X7z6lk9yFlnsTx/GfVvvw66TO1CHevzBondg07xNqIiU86dTyGD36B58Z+d3sbtjO6qcanxw2Qexbv7lOJQ6gvte/iaOdR3DldOuwPvW3YqW8ia59qDoqeiWe9LuxA8O3Y/Hdj+CeoogbLgNqxovRcQJccaUzrzf7sPPTjyIn+/6KcKZEG5b9FFcuXA9ojpVOij+hFehFXAQLtSnzbfyFARZNTlTiqEQICQSCe7m+OlPfxpx2azJ1RuQpEN1meNGEOW+1SNsc1kfDf0sNKcTueRmZFJbYZu90BCFFr4EibLVCEfnA1olLBCZUQ5UtbpnDVEZMeCDk5OlaxgbnxWvFMYIxfVK+KDJpIlD+xBwgr6pZmIop2Nfay+2vLQHvY8/ifqtT6Kq5yR0y4F16UrM+9CtaLruBpRXkFyIg5CUYSa4LwSiZKdFFyR4rAkhNkVn7cvDnXIF6r+2ooFVsCDxbVdw2ad6XYKH025fBCpOu71vkvVfG+9mvPMpBi3jPEBns0ofb8FWOCS8A53N/tWni29R8XFPd8zJbD/Gjj4bncn+z2ZbP9ZUeNN/7cUYtRibnu18OJFdeP++MXMm41Gdv7vvov0UvC537McKxeO3ePsx9pWDY8w5+gzpUpOk7oGcG7iHjDu2RHhe0V0szcaAM4SH2x7FD1/5PtJWEvVoxvJZyzG7fhbikTjahzuw4+QOHB44CDtr4/Lq9fjguvehNlGL1twJ3Lfjm9h2dCtWl6zFBze+H/OnzRVVE3KeJUJ6h92J7x36ER7d/RDqnEZ8dP3tWNW4AhGE5TKFqhi68d2DP8Kv9z+KKlTjzy/7BJY3LHHFksTt9/WTOJdn7WzH0nn43EUdQRDPmOIDgMNPxUqKSgehhHox+HyJK/CjWAzuAtOTI3ZdohT6ESl4E7pzErn0i8iMvAjH7oHtlEALLUdJxRqEo3MBlLqVCmrdPB6W9+agUzjQokEhdMrEtyJJMulHVVloOo4P5fHM9pP4zXOvILRjP1oObcGcnl3QMxnos+di7V/+GWbefAO0BBFwHNGS2ZKRDXqiucpi8ud0Hsbtq3CXkwAIr8KrCk75fFpgomfsTF+f6Bynaj/j7X/8ffujaQwGVOzP5R8JgKBmsYyWRWv+BH555GH8Zv8TGM4OImSEYeghFlyzbBumled+DPMTC/DuVX+I1Q2rOR3bZ/fh/sMP4MGtv0CLNgsf2vABrGu6TE7bSqreQZfTg/858D08uvNh1KMRt238CNY2XoowL41oQZTHsXwb/mPHf+KVIy9jWeUyfHztR9Fc3sTn4LXsE6iA/w0Awvl8MKZu3woBiSqGND7/+c+z1PLo6Kho9yyFkkpLJfGlSGOgGOAL4p8k3mtCXshjjefg2N3Ip59DZpTAQS8clLG+QazsKhiRWQASsszBz8srJPPx1fsP7A9fjLdidKMPoohAIGSXhcAomFo0D6by2HasH09sPYE9h9sR6uzCJYe2YtGxF1Ce6kO2tgGL/uRDWPKutyNcVek7QZHioASKSLhEPYVEeasm/TxMRuFR3X4vRzR1A+L3saeC1dkkTmAyNjoX20xm/xfbPZiE2c95k8CukzKhf1UqPiArwFSaUEVQHR2mZiGFFNpyXdjc+QJ2du1E23ArUvlRXryE9TCqY3VYPG0Rrqi9AktqFiEeooWNjQwyeKr3WXx/yw+R7svgXcuocuINiDDhTHLGHAe9dj9+3fkkXjm2BbWYjjfMex3mTZ+LCAMEgHpCvDi8Bf+x5T/Q29WPN8y+Ge9a9QeoCFUIQODqzvhmwUlPiJMy2e9to4swglBoy1MBBH+KobSMAMJ4XnksXY6OIPJkNtfxiiGeh22f4KiBmdkK2N2wUAkjshQl5aughy+BBuoYWdgSWowtX2zO7Wo2FgnwoWRF4JjIpOzJwOF/Cb9p3+TWUxZwsCuJJ7edwLM7O9EzOIy6oSHMOrYVc46+iNrhDmRjUcz6o3fj0tv/BIm6WrfBokoTiEQHJSfoS7SYdp8yxUZQKRffRKlIke5dOZNJ9Pf2WAQHDiwQWGDKLeADtf55QUQS1DyqYgdCNIlaLpuajbxjYtgZRle2C+2jHRjMDsJybJSGS9FU0oimeCNqjGrmDdAUykFPx8TRfCu+t++H2LzrRdzYfD1uXfMeVCTKZSm7mNuzTgZ9Vj8GrSEk7Djq9OmIR6gpHrG4HBAXgvgH39n2XUy3p+N9l96K9TMvR5hJ2V6Sl32BIlBcHFWOvhQ9kMvnMTAwCIuiyb29fU5FRTkMw0+gk27hVTTJnw4g3PGxjzEHQXRzPFOAoDAFRQ46kU+/hOTIM9DsIThaBYzICiTKLkcoPBO2FmfWvqLkuGt8Isp4gszM6lXBuTELT0+oXJyp73RVlQM3gGLuhU6CzugYzmPLwW6OGuxtG0YyB0wf6cOcQ1sw7/jzqBzphhGPoeraa7H2jg+jfPECbnPKuUGOkAgyogDcMpJAKQY3cXjq5fEYIPMqGjtTPkEGOwws8Bq1gJiv/Inb8Q0hgIPq40ZVVmKio4p1oXtoIkv/OiKaGUEIMY3+DXOHRq4k47JuATgGMYSnup/Ddzd/B412I25Z80dY1rwUVE9GK38x29JCiuIEJlMo/dULpmOh1+nFN3d8Gy/sfQFXNmzErZe95/9v7zrAq6jS9jtza3oPpNMhEjqIgEgvCquogK6soKu7q6AublFX8P9pYsUKIq666vq7rmXFsrsqihQRUQggJRSBJIQkkATS7s2tM//znZm5d3K5IQkQCDfn+mDalHPec2bOe77yfmjHsiGUwArtXpwgaPvGS+gl3xyCUG/KBgbi+ImtepiSqifTRJVPwWX/AY7aDRDkI/DKiTCYBiA8+koYzVmQYVWSDJXoPd3uW++r0v4W3DalzH1/PIVWe8Fnf1BLNguUa0DZCS4Be4prsHZbATbnHUe5TVnkE0Qbsg9uR6ef1iCxphh1BjOirhyK4XNno92AfpCNioojtZOO16J41WKsuloKmvdQHwh6+kOvweZr5yU0d9rou5x3myPQIgjooxL8b48zvz/8+yDlvakXbleupwmvafkTisS9Ytk1wEUVId3H8Paut3H4QAGGZw3FlP7XId4az17FWp6VYtmtp2gDqj7rkF3YVp2L1799E5Y6M265/GYMzhwMC9NIULRlfARBe8lRw7gFoUXm0Hm/6LkTBHWJYwUVmMPJv8QLXkAqhcu5HfbqTfB4iyHKJhhMlyM8liwHXSBTzAFNYjqWfbSZoxIBHx84M0HQFm2/toPywCgPmvLYUDqjSwKOnXJg7c5i5lIoKHfCI4sQZTc6x3pwubEMMV/+B+Y92yDCC7lnfwyaeze6jBkJWEijQb2Taq2o7xBhPVErQDadINQnXiHinDvvM5VfkCPQdhCoRxD0ptAGYqwaQ6b+BkpVnRWYOgtqYceu2j3I3ZULk9eEiT3HIjMuS5V5VkvOa7r5KglhZET2okqqwbqfv8Wugp/QJ6M3hnYeigRTvBqIqLzL6hEEraEh8ppr8zEI9953H+bPmwdfFoM6wLqgWl8QjRagqMQCkCm/Cm7HTtTVroPXUwgZYRDFbETGDoPR0p2RA1lLNdRSD0+bToEz6fSs6GAPhzJwfrOGSwYq7F7k/lyBdTuOYldBJU7WKaa6hAgBA7PCMSCsBsb/fgLb+nWAvRLmjl3R/a7fouu1E2GOpcqRKouuV45Z5f26ZgZG7QZtX2NPNP87R4Aj0IYQOH3lb3gN9f/l9IBG7QWtfPXFLrCcdi0lQgl6ZO4KkWrnulEt21DrqIXgBhLC4hFuDldjtXQbNXWPxlpK8vYgC4ITZfZyVocnNiwO0aZIpcgUO0TL3dSIgm44OUG4NOZ2YxaEphEElSOoZnfyzUOuhtedB3vVt5Dcuxk5EIzZiIgZBaOpE2RBH5Dol9RRmLN+9pwtQZAgSxJkUYDDAxwotWHNtgJ8u/c4jlezZEtYRA86Jppxdb90DLPWoPTd91D02afw2iohxbZD9t2/Rc8Z02CMj2G11cnAppV9ZtmMev0FThAujQnPW8kRaJUInB+CwN6kurog/uBGnW6EyhV8blJmXfX63KNUlI7ed0olyWAEgWpBKEHorLKkGtNAaeMsdVw7hREE/4ux3pucE4RWOQtPa1RzCIKerVJ+KzMz+aIGFDO+MjdrIHkOwlHzLdzOPEB2AYYeCIseCou1L2RQwCNNJE3vkBS2tPoEfhtUcGuajwYHpaPaXz2yDPp3vNqFzXllzJ2w92g16rwGGEQB7WOMGNwtAeP6pKKrZMPRV/+Gg//6AO6aCngS2iP71pno8cupCEtvz0iGEq6jiCAp8Qb66AHFteJ3rgS4SS6NqcBbyRHgCFw0BBpSRtU3SFtVz3J1lWhJV9Zv/bvVL9zm/4NP6VA9kB2jE23yn6+8BxXXrkpHyCtB70ztZXnRMG35G3MXg87FUJ8gKIugZvDX1AxZqp9UCEfNV3DYNin1CoVOsEaNhDW8NwQhQSlUxBQH/bLJivoHTTD/Q6CfhKw8gTa12cRTyIUv7ledoPQ7Eja2yQL2H63BpxvzsGl/OSqdJsiiBeGiAz0zIjFlaBcM7Z6A6Ipy7H7xrzjw4fsQak7BbjYj/ZczcMXcObAkxwEiCZ8qk18JsajHyf22jqD0+Cwf5Jaf1/wOHAGOQKtCwF8jR2mW/t2hvQm1351lhB8ZdrU+U9q33gMQsN/RdBD0RUoZQQiCmU9kTv0bK17LCULbSHNsyMWg56GMOLD0GTdE+QSc9s2oq93IshcgZ8AaNQLW8L6MHDDTlc8MpZtuKq3Ve6s0mSWv4AVJflKKjUHTVWAaBlrJabJcKEfXeUUcKrNj/c4SbNpTjMIKJ5xeAWaDjMwEK0bkpGB4Tio6xplgKjqGg2/+A/s++ACeqlPwxsYjddJE9LvjVsR06wSZyIGSz+gjCYEKYL7HOCgX4AShVb2DeWM4Aq0WAe1dGEgGgjX4LN8rPtdCAyAEVJU/jafoTqtvQQh+PS3NsdVCfh4axi0IwYIU2WJe31BF6YxAFTyObbDXrIXXWwBJSoLJOhiRMcMgiikAzPWiW9U0WT9hDqCnPoKgUAGlgIl6DJU7ZZoGlGooU1CMgHK7hC37yvBNbgF2FFbB7jKwYJo4iweDu7fHuIFZ6JEegwQzIB0uwIE3iBwoloPayFikT7kWA+6YiZguHQGDWt1Rva/iOzn9wWyYIJzlQ3weJi2/BEeAI3CpIRDcodrQ0ntWvVNvcaY7NfetdaaQcU4Q2oBQUsMWBK1WijLdBIo7kA6jruoLuBx7WY6tYByEiBjSOuiikgNlN66Yr3S2giCz0peEQKcwbwKZxOhcRYyIrAUk0kGn1rhEHCipxfqdx7B573GUVnvglo2IMEno2j6MWQ2GXNYOmfFhMEpeOA8V4OAb/8DPH38MqbIcHmsYkidPRu87ZyE+uztgoppq/k/9ymNqu+vZ3gJNgmf1+PKTOAIcgTaLwIUjCM2CuFHGoKMIAV3gBKENEgQWO6CKDfjNK17I3sNw2NYzQSTIbshid4THjIXZ2gOgjAXV4uBfbP0qW2xeBT4fbMNOWqJanIMWs6CUbKbS0HUSUFbtxKY9x/H5lgPIL3fA7jGy4kmJkQYM65mK8QMy0TklClFmCQaPhLp9R5D31js4/MnHzK3giYxG8ujRGHDX7Yjv1QMwmhl50eqOBT4foVKmtFkvCX4wR4AjwBHgCJyGAHcxBLoYNJ1PtYAI1Vhgegd1m1BX8w1k6RRkIU2NO7gcEGJ1UbOaW0KtC+4rixyEPWsWfV9JaiII5FKgSFwRNS4ZuYcr8XVuAbYfPME0DmhhjzLL6JWViNEDO2BA53gkRhhhJKuDyw3H/nzkvvwajn3xX8i2ajiiYtDxuinoffstiOqaBZlZDigoUanz6HMq6FN1uNIhf01wBDgCHAGOAMsc9a9dbbIWg9/FoCge+lZ7tfgRpTR6PXthr/wasnsPJDkeBoo7iB0FQWivFPTQSSj7CiqJSlYAq76gL1KiefpV3LUdvJaSa/dKyC93YtNuRQnxULkXkiDCDA86Jlkwonca+9c5wczqJQh0osOJyp17kPv626j4Zi2MtioWkJh49TUY8NvbENW1E3lElA8JiPgkStXfaaSAMhg4QeAvBo4AR4AjwBHgBCEceoKgKXFraS0soVAqgtO2Bk7bj5BlB2Dog/DokTBbegKCxR/9719/2Xf+EqAUZKgkK7JMG5UYaMGI7F6CUo75RI0Tmw+UYe32IuQVVaHGRR4II5KjBFzeNRkj+6ahV2YMoi0iKYErmQ32OlRs/AHbX3sD5T9sgeD1Qo6NQ4frJiNn5k2I6pIFiEp5U8U4QvKjSk9J60EjC0qj/e3mTwdHgCPAEeAItG0EuAXB52II9y2WBAor5YxTcDu2w171OSSpArKchLDocQiLGAAIcbrddpBIl/pazeruXfdFJQpeWUa1S8K+Y1VYv+MoNu8rQWmtDK9XRoRZQLfUGIzqm47B2cloF21CuIEEOhStcan8FI6t3YC9b/0fKnfthInIQXoHdJ4yGV1vuA4RXdIBI2VGaOYDhSVoORMsJjIgc4FbENr2C4H3niPAEeAIaAhwgqAjCCxikLzzjCC4IXn2oq7mK7gcuYAQD8EwCFFxo2AwpitGel/IgV/8yDe1TiMIqqwnqwCpWBPIanD0lAMb95ZibW4h9hfXwCuGseumRnlxRXYqJg7qgB4pYTCISkYDnSl6ZUgVNTj23ifY8fe3YSs8CIE0DZIz0f3Ombhs6nUwJSaokoiCrwyqkmFRnyCohgPNgFBPOpQ/JhwBjgBHgCPQdhFoEwRB62RdXR0WL16M5cuXw2azITw8HPfcey/mz5+PyAiKQVDLMckUmFgBV91G2Gs2QJKqIBh6IjJmLEyWHgAifIu1Vk9RFUDQHA2nzSjFYKCQA49MmgZu7C2oxle5hdj68wlUOgTIogmxFgm9smIwoX8G+ndOQGIEBRQqmQ0skMDlgv3wURS+/zEOfPgvOI8XwW0wIiw7B71/dQsyJ46CMSkBEmUqyORG8BWh9Fej9MUcKL+iOAnlK/9wBDgCHAGOAEdAtXa3hSDFZhEEtsuuhNf1M+xVX8Lj2QdZSoI5fBgiY0ayrAVWIkz149fz4Z+mAu6fZpKa1uiUgJ9L7fhyWyHW/VSEslrAJYkwiTI6JVkxfmAmRvZqh7RoM0wiZTXQP6qTIAI1DlRs34nt736A8s+/gKGuBm6zFfGDh6L37b9C6vAhQIRV1VMQmFozBTFScROfK4FJQKsWDzUGQcto4ASBvxY4AhwBjgBHoE24GPTmEfqeLAiLFi3CihUr/BaEe+5hFoSISNIyoIBBLyAVw1G7Hg7bd2ohpgGIjCVBJLIeUMCfX2VRWXq1n7WlVifULCsFRLwyWGGlH/afwDc7CrCnsArVHjNEUURSuIxBXRMxun8GerMgRJJWpopjdF0P4BXgqqjCkf+uwc8f/AvVu3dBctiA2ESkjRmL7BnTkNS7J+RwK0S1vDRzgbCoSHWomXiT8j1TRWeaTkrLgzhI+BPCEeAIcAQ4Am0cgZB2MTSFIMy5h1wM8xBJBIECE+UqVsbZVvkFPN58CEiBJfIaWCN6QhDimPVAL7/p25mzhViXJsmKMymhjpVuGfuLqvF17lFszitBea3MXABmUcJlGXEY0zcVQ7OTkRZjhpFCCCk7QSUIsseN2gNH8PNHn+Lwp5/BW3gIXkGAMzEV3aZej97TbkBE5yzIZiOVkYKRuRaUWc2qjWkfHQvQOAMnCG386efd5whwBDgCZ0AgpAmCJCkVEbUPWRAWLlqEl/QWhHvvw7x5DzOCoFRqzIfLtokVY5IkA0RzP0TGXQ2jMQ2ybFRKgmqlkFVSoK/QSPdSNu4ynF4Zxypd2Li7BF9vP4r8MgccXoESC5AaZ8awy9phRK9UdG0fiSgzXcXLyAHTVpAA78lTKPpxG37+4GNUfLsJcs0pCCYTorplo8u0aci4ZgzMqe0giFRaWoQkKHIHmkqiZj3wx0tq5c10VgUdPo2qjvJHiSPAEeAIcATaDAIhTRACLQh2ux0LFizAypUrQd9TkOLs2XPwyP88gsiICEioA9y5sFV9Ba/nACQ5E9bIkQiPGgIZ0Wp5BS2XQNnpK6WdRUWwiMUZCOQUQJVLwrZDlVizNR/bDp9EldPA0hPjzC70zIrFxMFdMahbImIsMoy0slNpJoEKOUswuL1wHilG4SefY/e/Poaz8BBkrwdiVDwShg5FzoxpSBl2ObzhFha4SEGGLMxQrQPh1zrS1YNQp7RPFyuADXBy0Gaeed5RjgBHgCPQJAQ4QfARBAsr3+ypW4u66nXwynUQTQMRET0aRnNnyLBCCKx4SAJI6rqs2RXskoC8olqs3XEUW/adQHGlCx4YYBGVwkpX9UrD8Jz2SIk1w2KQleVdlVsWZC+8FZU4/v027Fv9Kcq//x5yZRm8dEy7NHSbdgO6TpmMqE5ZgNXCYgk0JQPFreC3ECgkQbVt+EMm/JOCM4ImPSD8II4AR4Aj0FYRCDmCEGg10A8sWQ0WLlzILAhamqNmQYiKkCF5j6Cu+j9wO3ZDQgIs4WMQHj0MEGMA0i5kxZX8u3J/FUbALQPlNje+3VOKr7YVIK+kFnUeEwyCB8mRIq7ITsGYvunolhaFWKtXIQUwQpRFpnct2+yo3fczDnz6H5Ss+RrOY0fh9TjhtlqQ2vdydLnpRiSPuALmpETIBgMjFsQJiCQYKLaSmkaeBh9PoGwFnrrYVh9s3m+OAEeAI3CuCLQpghAsi2HOnHsw/5F5iIyww123BXU16yB5qSBTd0TGjYPJchkgmBUNAr+5QHEnMA+DjEqnF7sKq1jthO/3H8dJm8SyFqKsJlyWasG4/pkYnJ2CBCqsJFLegwwvuSaoaJLDCfuxEpSv/w75qz9Fxd7dkO02GAxGCGkZSJo0AT0nT0BM945AWBjI5qCkWaraBYpSM/sQd/ETBMXdwQ0F5/qI8PM5AhwBjkDbRCDkCYImHRw8zTEMc+bci/mPPISIsONw1HwJp30XZNkCY9iViIgZAkFMBUiqWK1loAX+0c7d6QWOnnRgw65jWL+zCPllNjgkI6yiF+1jLRjWKx0je6WiU7twRJgoUkBRQ6TsAsnjhXyiAqVbtuHnL9bgxI9bIZQWMXUFxCag/YAB6HDNBCSOHIrwdgnMOsAkjQQDIydKLIEuPFI1bnCC0DYfZN5rjgBHgCNwvhEIOYKgz1ygzhFBoH8aQdCUFMndEBZmhWJBuB9hpjzYq/4Lt6cMkDMRET8eZmsvRTVRtd0Lol8mudIlYeuBk/jP5gPIza+G3WsGZDfCRQeu6JGG8YO7oneHaMRbyRVAYYuKXqEoyfDW2FH6Qy6O/HsNyjdshLu0GJSk6BSNiOzUDV2n/ALpE0YjoksmBCtdl85kpRsVSkC+A/Jv1Ku8qPTRV0tB7Te3IJzvR4ZfjyPAEeAItA0EQo4gBItB0BMETSiJCILVagXpIDwyfzbMwndw1H4Nj2SBaOyLqNhxMJhTldgD+qjh/za3FwdKbPhyexG+zzuO0ioPk06OMHrQOTkMV/XNwvCcFKTGWmGiugssDkCG4PHCWX4SlTv3ouiLr3Fsy2Y4iothcLngFQ0wp6UjdeRV6H71eET3yoYYFQEYjWzBJ80EcmcoQZJ6Dcf6k1RRTdQCE3np5rbxCPNecgQ4AhyBlkGgTROEMKsV99w7B/Pn3QK418Ht3AoJGbCEDUdY5FAIhmi2c6dlmWwAZdVefLv7GL7alo/9peROoN29jJQoAVdkt8eYARm4LDUa4Ua1ThLt9iUvPMXHcWLHLuSv+xbFW36Aq6gQRqeDLfymlHSk9O2LTpMmIP6KAbAkJ0IyUkokBReo1g8dQfFPA71Eokob/JmOavxBgO5By8whflWOAEeAI8ARCEEEQpogaO4GzeyuL9akWRB+f9/v8JcHx0FyfgevdAQQeiEydjRMlhzIsDDrQKXDiz0FlVizrQA780+hzKYUdYq2ApelReGqPukY0CUJKdFGWMj675EgO+pQm38UpTt3o2zLj6j8YRtqTxRDcrkgGk2wJCYjdeBAtLtyCNoN6g9rRioQrtRRoHLMRlUEWVN11osissJKPkGDgFmplVlgv+YEIQSfWd4ljgBHgCNwQRAIPYLAqiJpHgF/KJ8ECY46R71aDGFhYbj33jvxlz8NBjw7IEmnIJouR2TcaIhiBtyyCYfK7Fi/qwTf7CjC4bI6eAUjk0hOjzNhVJ80jOidgQ7twmARZIguDxyVlbDnF6JyKAVi7wAAGzhJREFUy3YUbNyEsp92QK6ugpksCUYzzMntEdevHzqMGIbMEUMhJicBZhNgMCiuBBZbQIqKLMcBolpQia37GktgxzXEEPShCZwgXJCniN+EI8AR4AiEIAKhRxBYHQNtG+0L92fSx4EEwRpmxb1zp+DP91wOUT7MpJRNYSMRHnMVymzh2HH4JD7flo89R8pQ4zHDKRmQHClgYOd4jOqbjoGd4hFtkoGqWtiLS1G6bz+O/PAjavfuh/vgYci1FZA8DsBgRnh6FpL79EPW8CsRe8UAWDNSIIZZ/dkIPiLASjtBYoLJRBIUlSP6TiEFqtiBVm8h2KTURybyKMUQfGx5lzgCHAGOQMsjEIIEQamEwCoWqksr23xLEpyO+haEcLMJc+8aifv+OAhGQxlkdIQcORmF1Rn4YksR1u8uRrlduRKVY+6YZMXkwZ0wOicZcXDBUVKKykP5KPkxF8dzt6PqwCGINadIc1G5s8kEc0o6Evr3RdqE0Ugd2A+GxAQIBq1SoyJmxJwBzCqglVYMsA6wAEX933UlGNU50rA9oeUnEb8DR4AjwBHwZVBxKEIGgRAlCGpJY83VQFUVZRkuHUGw220wm8y4b2Yf/PHhATAYDSh398GWY5dh/U8i9pfYYPeIMItepEUBg7vE4srO8UhxVsF1+DAqd+9BeV4eqguPwlFxEkaXCwZBhDUsHIiLRXSP7mjXtzcy+vZBRI8uEOOiIZIrQVSiC3T/808mbbfvW+3Vb1i9B7UzDdRmZkf6CEbIzE/eEY4AR+ASQYAThEtkoJrRzJAjCBTgx9ZSZkggx4KyakqSFy6nyxeDQAQh0mLE3Jm9cfeDvWE0tcOmQx3x4eZw5FfGw+CVYa2zo521DgMzBaRLNliLimDfkwfnsWOQKk9BdtnYfURTGEyxCYjLSEdqTi/E5GQjul8OwtJTYYyKhGxUZJGpXaJaUMmvf9i00WrMU+Ar4axezk9CmnZ9fhRHgCPAEWguAnrtFU4Qmote6z8+dAkCySAzyUGVIECCy+GsF6SYkWDFiw8Ox6Cr01BbE40NWxKxKdcEl9uCCEcNEioKkOkqRYSrEqiphFBXB4PbCSNJHYsmCHEJiMrMQmzXrojK6YH0PjmI6JgJISICsJggi6KinUhlmJkkssDUmk9LLtAVUzqNCAQrtBRkXp3mYmiMUbT+uclbyBHgCFxiCHCScIkNWCPNDTmCoOUwyJTNoCoo0lpJLgaKQaBiTS+99BLcdXZcEWvFg9f3Z2qHR4/Wobw0ElW1ImRJhNVdgyhXDSLddgheJwSjCMFggiElAzEdOyExqyOie/ZAUk4PhKW2h0DCRhYDYCBhJWYrYFYDIghUr4HSEpWww0CPQgut5C102dCa/rw3HAGOQGtDgJOM1jMioUcQfM54Mh6o7gbmbZDhcDiweNEiLF+xAmZHHaaER2NoRCzCvQ7QXh+CiaUWKmGOMryCAZJoRFhcApK790D7zp1h6tsTUdldYU1IgBAeBpdBEVJSVI+p/LPysyaDzNogakGJpJbMwwlbz/TnLeEIcATOBwJNeqvJMkSDAZRebjSqCrVBbs4JwvkYkfNzjZAjCEohI8W1wDIEVMJA63IgQRhnsWJcZAIM8MIlAzYZsHs9cApAjdeD424n3GYLDB06IiI+HqbwcEiUmmi1sEwEZh3wV05S4x3qD0zwya5FRvBt/vmZxvwqHAGOwMVCoClxCNpCk5XVAbfeeis6dMjy1cjR6uVo7ecE4WKN5On3DUGCoDoZWICiTlBIAEhJceGCBXhp5Up47Hb0Mgi4PCwaXkFEmceNSq8LtV437CCCIMMuy+x7t1IKgZVwJsuAQbUCeDUXRr2iSWceXA3wpj4E+gFqPdOGt6SlEGjqvNDufzbz40Lco6Xwac3XbS6uzOYYIhbFpvSdXpO9e/fFyytXYuDAgRANYv0Cc+rgNuVarXkehFLbQo8gaEqKuuA+zWWgEYSVK1fCbrMhShAQKYpwSRLspJ1AJZNZ3IDyr4nxgaE0H3hfOAIcAY5AiyHQu3cfvLJqlY8gBLsRJwgtBn+zLxx6BEHHyPXkXJYl1DkcePbZ57Bq1cuw2Wz1wOJkoNlzh5/AEeAIcASahUBOzxw88+yz6NevL3MxBCMDnCA0C9IWPTj0CIJqQWDmOx10LOhQkpCXl4eDBw5A8npZ8KDPzKemQyrRAUpKovqNGsagpkxSiqNyln9yBwgbEaiKN0K5Bp/wLTqH+cU5AhyBSwAByiyLjYtF//79ER8f3+C7kb8vW89ghh5B0FsQNJxZ4KIimUwVHrUqj4wGqDygIV8gTVYlzrFJcbqtZ2R5SzgCHAGOQCtDgN6nBoPhjJsmThBaz6CFIEHwg6tZA7QdPxECpcOKRkI9bWJVyMh3dgBxqJdvoJZFUCwN/iqLvpLMGpdgqkiaIYJnLLSeac9bwhHgCLQGBDgZaA2j0HAb2hBBCAChgaCDRmMRgq3zAcYF3zV0x/pcFq17PvDWcQQ4AhwBjgBHgCEQegSB9UqzGZzBLRCECWjreYNnBSEHapQBn04cAY4AR4AjwBEIKQRCkyCE1BDxzlwoBALjUFj8SUDsSUuaRBvLiW/qvRu7js/t1Qz9jgs1Bvw+HAGOQOtBgBOE1jMWvCUXGIGmLqT6ZjV1kW5uV86mLc29R3OOb6l+NqcN/FiOAEfg4iLACcLFxZ/f/SIiEGxR1v9OsyAEk5I93wuodl/9vTRogv2uKbA1RjrO1Ifz3b+mtJcfwxHgCLQuBDhBaF3jwVtzARHQL8qBt6W/iaIiBXuhCYKPGDCxcMXNoYnKnIlI0Hn6Y7V0Xm2x184NXPz1rhTte+o7/3AEOAJtGwFOENr2+Lfp3gcjCHpCoC2SgVYFAu1MO+xgO/fGduTafbVFnn1VCYI2SPpraEQg0Lqg/9mn9yEo7a2XSRMQpKu1WSNFjRGEs+ljm55svPMcgUsQAU4QLsFB400+Pwg0SBDUhVlPEDSLwpnuHLhTP9tWNsU1EHiM3h1C99UWeo3MBDveZ6kIsJJo55+p/a2FILSWdpztWPPzOAKtGQFOEFrz6PC2tSgCDREEUr8qLi7ByYoKpKenIy4urp7pvqFGtRRB0KwLje3qKb3X4XTg6NGj2Lt3L/Lz85lqHZXY7datKzIyMhEWZvW5K8rLy1F6/DjaJycjITGRdaup8uCtZWFuLe1o0YnKL84RuEgIcIJwkYDnt734CJAJPlgqIxGEVS+vwscff4y5c+di/PjxTJ6bFuhAM79+UW1Oj4K5LfQ7ev33hw4fQnlZObp37+4jK9rf9e3xer348ssv8fLLL+Pw4cOM1BiNRqb3mZSUiOnTp2PatGmIjY1lp3/66Wd46+9v4baZs3DNpGvq9a0pLpHA/p4ptqEplpezxY/OC3S1nO/7Nadt/FiOQKggwAlCqIwk70ezEdAIgvbVdwEBWLRwEV5//W94+umnMHXq1ItGEGjRf3H5i/hqzVeYP38+rrjiinraDJorgfqwZ88e/PnPf0ZlZSWmT78Jl18+CKJowE8//YQPPvwAJcUlmDdvHm6ceiMsZjO+/34L1qxZg3HjxrLrBiMdDYEadOeusKV612nMXXI2BCvYNTlBaPb05ydwBBpFgBOERiHiB4QqAsFcDKyvRBAWLcbfXv8bnnr6KUybOhUutwtOpxNmswUGUURNTQ2cLhcsFgsiIyLYTp2WRqoY6nK5YDSZWIGv6upquFxuREREICIinFkh6EMLf52jDmaTGWaz2QexJMtwOhxsN0/Xrqurw8JFi/Dvzz7DsmXLMHLUSHa8qFYV1fpgt9uxatUqrFr1Ch544AHcdNNN7H70oftv2LCekYNu3bpj2bKnkZSUxPpD17darewf/ex2u3V1yWRW8ZT6Rf2j9mgWFyIkVDKdzjeZTIiKjoZRK8JDQZFaNdQmTJ7GrBWBl9CPG92HxsbhcMJqMcNkNvvaqHf5BLNuNKFp/BCOQJtGgBOENj38bbvz+smvfE9LocR2wQsXLsLfXn8dTz+9DNOmTUVRURHeeust9O7dmy2WH61ejWNFRUhJTcUN11+PMWPGMH//kfx8fPnFFxgwYCBKS0vw0UcfgXz9Xbt1w/Sp01ipW5PZhJLSUvz1lVfQf8AATJw4EQaDyBb9k6dO4f3330dUVBQmjB+P1atXY8VLL+HI4cOYMGECZsyYwe4VHq4s/vShtldX12DBgv/FN998g2eWPYNRo0ZBEJXdPP395MmT+Oc//wmbzY5f//rXiI+Pw/YdO7B582YMGzIUl+X0xH//819s3LiBkQQFC5kRHSIDfXr3YTgQ0SFSsGnTJnzyyScoLCxEfEI8Ro0ajfHjxqFdu3YKxwpQadR2+IFfz2UGstgMyMwysnr1x0iIj8fosWOQmJCoN2T4bsFJwrmgzc9tiwhwgtAWR5332bdw+qFQCIJWAVRxMbzOdu3kYti5YyduuvlmJCTEs8XVYgmDIMjYtWs3C/B7dMmjGDp0CFtwf//7uWjfvr1qXQiHYBCxd89eFj/wl4cfxsiRI7Avbx+mTJmCG264EYsXL2KWBFqTjx07ht/+7ndITk7G4oWLGFl49fXXcLSwEMOHX4mZM2dh8uTJjCDod8h19jq8+tprzDowduxY3HbbbejWrRuzbpitSmCirbYWkiQjOjqKkZn/e+cdPLNsGf5w/x8wddpUvPvuu/j3v//NCAL9nYjB3r17UFJSilmzZmHx4sXMWvDP997DX1/5K6xhFmSmZ6Cqugb5R46wxXnu7+ciPSOdWU+CkgSVtCgFVc++wqn+xXXkSD7+9Kc/YdvWrRgxcgRuvulm9O3XD4mJCay9GknS3DFNDcTkjwlHoK0jwAlCW58BvP9+skA7UnXNWrJ4CV57jSwIT2Pq1BuxY8cOXHfddWwHTYsR7ebJv//uu//ASy+9hF//+g7cd999+PHHHzDrttsQZrFi3iPzMZEdJ2Lt2m+wcOEC5ut/8qkncfRoESZPmsRcAUsfXcqsCrIsobi4FL/5zW9YUOGyZc8wa8Vjjy1lC/fSpY9h7NjRsFitPheD3opw4MBBtoivX78O8fHxyM7ORk5ODjp07IgePXqgS5cuiI2J8e3w//7223j8scfw4IMP4tZbb2WxC7W1tao4FHDgwAFmlSCXyaNLl2L0qFHY/P33uH/uXHTt2gV/+uOf0LFTJ9TW2vDGG2/g/ffew/33348Zt/4KZnVhDqbdQERIlmRmiXAxa4VaNp1hX7/8ma9yesA8ZbYDGi+JSFUR68Pnn3/OCAGRs7Fjx2Hy5EkYPHgwEhOTYDAaIBI50RGTcyEo/LHhCLQFBDhBaAujzPvYKALsQdARBC1IkXbkzIKwcyeuvfZajB83HouXLEFychK75tatWzFnzhwMGjQIjz/+BHJzt+G222/H2DFjsGDBAqSlpflM/H/5y1+we/durHxpJUSDiEmTJrHMgqWPLYXJqOx0i4uLVYKQhGeeeRYxMdFY8ugSrP5oNZ5//nlcddVVzMqhj0HQFjqP14N9eftZvAG16+DBg8xl4XI6kZiUhOFXXolf/vKX6NUrByaTGW+++RYef/wxPPTQQ5g5c6YvE4AsBwUFBViyZAl27dqFe+65F9ffcD2LMXjuueexatXLePTRR1XXiIFZAvbs2YsHHvgzLuvZE48uWYLEgLRJhYWp678AFpvxySefIjc3F6JqSWjOgs2IA/2P3Cs11fj6669ZWqf2oZgKwn7kyJG4+uprWOwGkSMmGHUW92t0AvEDOAIhiAAnCCE4qLxLzUdA0RrQnAwyFi5YiL+98YYvBmHnzp9w7bW/YNYBCvYzmSgoUUBeXh7uuOMOdO7SGctfXI7c3O2YM2c2syaQmZ8C++jjcDiYpeGdd97B0qVLkZqayggCpR3SzyzwUBRRVHQMd9zxayQlJ+O5Z59DbGwMswr866N/4cUXXsSIESN8Cov6FE1NK4GFBwpgloCysnKUlJTgu+++Yymbu3btxKRJkxmRycrKxJtvvomnnnqKBTWSBUGi7bgMnDpVycjI8hdfZC6Ru+++i1lOaFEnMkGxDHSdlNQU5rKgdtTZbSzFMisrCytXrmTWCv2HSUZrddgB1i4iTJ98+omvPHtzR42Nl6AEfBK+Ho+n/j0FgcVyjB4zBv/7P/+LnJye9VJVm0NImts2fjxHIBQQ4AQhFEaR9+GcEfAvsMrWVCMITz39NKZPm4afdv6EX1z7C9x+++1sYTMSQRAE5O3Nw5133sk0CmhRJYJw33334s+USTB9OjuOrk1m+pdWKAThscceQ0pKio8g0M9kGqfrUdAfuRgoBuG5559HXGwsFi9ajI9Wf8SuTwRB++jVE2ttNhY4mJyUjJxeOT4TP1kDKDuBrAlERNatW4dXXnmFxTG8/fbbeOKJJ5h5niwI9KmpqWXBmJRaec3VV+MPf/gj0tMVKwgRBOrXhx98gCuvHO6zopBXgCwaRDA6derEiFFqSmpQbQLthUOCTnv35DGioDGE+lLQZ4hPULMkvF6FEJw4UYaXX16Jbdu2+bBJSEhgAaFEwsaMGYuOHTvAGhbms1bQgZwgnPNjwy8Q4ghwghDiA8y71zQElAdBsSLQgrdk8WK8+irFIDzFdvk7duzEddddy6wFDz70EEyU1igITLEwkCD85jd3Yvbs2bjrrrtY+iAt0ixdceFCbNi4ESuWr4DFYlZdDDexhdtoVEz1lFkwZ/ZstgPXEwSyILzwwgvMxaAtbnS8Vm+B1BOn3ngjcnr1wpNPPqkoI7LOKB+6//LlK/Dkk0+wwMsZM36Fd975v3oEweP24LN/f4b5j8xnhOfZZ59Deloa8917vUpa47x585l2wit/fQV9+/TxXZ8sCSUlxSwNNCMjg/XvTNoEDG1JUq02TRsjpeP+Y7WXV2HhUfz+9/fhs88+Q1hYGIs7uOGGGzBhwkRGbswWM7P26IMUOTloBub80DaLACcIbXboecf1CNS3IID52F999VUWUDh92nS2cFOQIqUIznv4YbbYkO98DxGE39zJMgZeeP4FFsxIEf99+vRh1yCfPK2C27dvZ8GN5Jt/cflyVFdV4RfXXovevXrh6WXL2EJMizhlTpDZn1IZlz3zDPObUyzAe++/z1wOY8eOqaf+yB5gAaioqGDZE/v37WMuEDqfzOu0EHrcbuQXFDDLxYYNG/DXV1/FyBEj8Pe//x1PPPE4HnzwIcy4ZQYjL5RRQQGERBIoroKyGejD+iuKrH2PPf44HnzgAWZ1INcDZT1s2LCRuSwog2L6TdMRHkZZHvVFk+g6gaml2s/Bjm1ohup1EMhtUZBfwNwwRJKuu24KyxLp2LEjI2ea7gSPPeDPO0eg+QhwgtB8zPgZIYiAniDQsraIWRBeZbtxyjRQLAhEEG5niobaoknqhWRS75Hdg1kGiCCQG4IW7SlTrmeR/+Qj/8e772LH9h2MJMyaNZOZ65Xd+JeYOm0ahgwZgsKCApat8OOPP2Li1dfgheefY9kI5NN//PHHcfPNv8Ss22ahe7duysItgFkQaPGje3yzdh0WLPgfJox04403ol+/fkw46MTx41jz1VfY/N0mXDNpMnORJCclKYv9Y0vx8MPzmDWD3AmrV3/EtBlGjRwJg4GsJMq2nWIsyOVALgEiFMePl+DWmbNwWXY2jhUXM1EpssAsWLgAQ4cMVSWe/RMlMJuh3hQKqCx5pt29/oVFLg36uaqymqlIUrxGly5dYbVamLuDiA5pQRhEheRoH249CMEHmHepRRDgBKFFYOUXvdQQ0O9Kqe2UAvjN2m9w222zmFn/50OHsHjRQowZMw633HILM7trMQPPPPMM0tLTMPvu2cwPftddd2PEVVexTAWSOab4APKJX3/99cwaQSmMtLBThsCKFSuwfcd2WMwWZGZmYdiwYSxeIDUtFb/73e8QEx3NMiieffZZHD9xAjfffDOLiaDdsT5IkXbKdnsdM/+///577NoUuEdtiIyIRPuUFNaPG2+4ER07ZEE0GPD551/gww8/wPSbbkJ2jx4sIPPggf0QjQYYDUrsBHNjyDL69umL2XNmIz4uDj9u3cpEpLZu2wpyS5AVITMzE7fMuIXVrSAzf6DOwRkJQsBkaSpBYBYJ+k+SmYIly4YIcEFQbITeesDozjnoL1xq85q3lyNwLghwgnAu6PFzQwYB/YNAnaqqqmIm/+joaLbgOV1OVFScZIthtGq6p+PIvE76AbTg0mK+adN3mD37bqYHMHHCROzeu4dlFGT3yEaXLp19WQ3a/U6UlWFfXh6TCu7evRtLzSNVRFrwKcWRvlJ0fmlpKVNDTG7XDu2Sk+uVc9YPAhGP8ooK7Ni+naX90aKZmprGLBxUmZKyKrSFn2IKSMMgIjKC1WY4deoU3G4l8I8IkJYlQNckIae4hHgYRQpGlFFeXoFtuduYWmRqShp69eqFxKREGA20INcvanW+F+VAMseIghpvQRYDIgz6e2r95emNIfO48o5cIAQ4QbhAQPPbtG4EAgmC5nJozm6TzPzffruJEYS5c+/HrTN/xSwDwRbIYL73YAgFpjJq1wpsl3Y9Mq0Hq4MQeHywfrE+Q1VA9Mc3+uMG1N25/vr1AhFJY6AZ1oBznRFagKb+OvrATa2PnCCcK9L8/LaKACcIbXXkeb9PQyAwgK6xna+28GgLq+SVmAWBdBDuv/8PmDHjFqZvEGzn2lSCoG9kU87RghZ1kgO+SzSH7Ggn1SNOAQShKe05m3s2dWoGkrqmnteSbWpqG/hxHIFLAQFOEC6FUeJtvGAINGfRCSQIZNomeWLSOhg3dhyGDB2iVHlswz7vlux7c8Yq0MpwwSYUvxFH4BJGgBOES3jweNPPPwINLTp6U3+wu2pWBJfTDZvdxtL8KJCwMSuEdq2GTP6N9VBvRm/s2DPdq6Fzm7IItyQJaGqf+HEcAY7A+UeAE4Tzjym/YhtBQB+noKXcaTUStFgAfR5+G4GFd5MjwBEIEQQ4QQiRgeTduDgIaDoEGlmgKD1Wd0BNEeSR8xdnXPhdOQIcgXNHgBOEc8eQX6ENIxAssDEweC8wD78Nw8W7zhHgCFxCCHCCcAkNFm9q60MgGEEIbCUnCK1v3HiLOAIcgcYR4AShcYz4ERyBMyIQGMhXTxtAPZMH8vFJxBHgCFxqCHCCcKmNGG9vq0NAH6zoi0VQCxxpjeUEodUNG28QR4Aj0AgCnCDwKcIROEcEAt0M+gBF+l7LZDjH2/DTOQIcAY7ABUWgGQSBtFcVKTW+G7qgY8Rv1soRaEwrgD8vrXwAefM4AhyBoAg0RBD+H1zCFL41xv5fAAAAAElFTkSuQmCC;" vertex="1" parent="1">
                    <mxGeometry width="394.72" height="334" as="geometry"/>
                </mxCell>
                <mxCell id="3" value="&lt;h1&gt;Conceitos importantes&lt;/h1&gt;&lt;p&gt;&lt;b&gt;A notaÃ§Ã£o Big O leva em consideraÃ§Ã£o o tempo de execuÃ§Ã£o e o tamanho gerado na memÃ³ria de acordo com o tamanho da entrada do algoritmo.&lt;br&gt;&lt;br&gt;N -&amp;gt; refere-se ao tamanho da entrada do algoritmo, ou seja, a variÃ¡vel.&lt;br&gt;&lt;br&gt;Existem variÃ¡veis:&lt;br&gt;&lt;br&gt;- Constantes, que mantÃ©m seu nÃºmero de operaÃ§Ãµes independente do tamanho da entrada.&lt;br&gt;- Lineares, que quanto maior for a entrada, mais tempo e mais recurso computacional irÃ¡ consumir.&lt;br&gt;- LogarÃ­timica, que executa mÃºltiplas divisÃµes no vetor atÃ© encontrar o valor da entrada.&lt;br&gt;- QuadrÃ¡tica, que executa mÃºltiplas vezes a mesma instruÃ§Ã£o e dependendo do tamanho comeÃ§a a ficar mais lento.&lt;br&gt;&lt;br&gt;&lt;/b&gt;&lt;span style=&quot;background-color: rgb(28 , 28 , 28)&quot;&gt;&lt;b&gt;&lt;font style=&quot;font-size: 12px&quot;&gt;Big O Ã© sobre o comportamento quando a entrada cresce muito.&amp;nbsp;&lt;/font&gt;&lt;/b&gt;&lt;/span&gt;&lt;br&gt;&lt;/p&gt;" style="text;html=1;strokeColor=none;fillColor=none;spacing=5;spacingTop=-20;whiteSpace=wrap;overflow=hidden;rounded=0;" vertex="1" parent="1">
                    <mxGeometry x="407" y="5" width="410" height="425" as="geometry"/>
                </mxCell>
                <mxCell id="4" value="" style="shape=image;verticalLabelPosition=bottom;labelBackgroundColor=#ffffff;verticalAlign=top;aspect=fixed;imageAspect=0;image=data:image/png,iVBORw0KGgoAAAANSUhEUgAAAigAAAGECAYAAAAcO9uNAAAgAElEQVR4nOzdeXxU5dn/8c/smcm+ko3sCYR9UREEF0AR9w1X1LaKrVZ92vr8tMWquLS1tvpoq221Kq61KlqsCi4goigoKiBb9n1PJpksM5n1nN8fAyMBEgIkTEKud1/2BZOZc66ZRM83933d99GoqqoihBBCCDGEaINdgBBCCCHE/iSgCCGEEGLI0Qe7ACEGW11dHeXl5Qc8bjabSUlJYdSoUYHHmpqaKC4uRqvVMnPmzAGtw263s2vXLoqLi3G5XGRnZzNx4kSio6P7fYyOjg62b99OSUkJAOnp6cyYMQOz2TygtQ6ETZs24fP5SEtLY/To0QNyzK6uLrZt24ZOp2PSpElYLJYBOe7+CgsL2b17Ny0tLcTExDB16lQyMzMDX7darRQUFAAwc+ZMtFr5XU+IgSYBRRz33nvvPd58881evz5hwgQeeughQkND+fDDD3nppZfQaDR89NFHA3J+RVGoq6vjzjvvpLm5+YCvL126lNNOO63Pi5yiKHz11VcsW7YMRVF6fC0mJoZ7772XcePGodFoBqTmgXDPPfcAcO655/KLX/xiQI751Vdf8fDDD2MymfjTn/7EmDFjWL16NRUVFWRlZbFw4cKjOr7NZmPZsmXs3Lmzx+MajYZzzjmHm2++GZPJxMaNG3niiScAeO2114iLizuq8x5MS0sLb7/9Nh6Ph3PPPZeMjIwBP4cQQ5nEfjGiGAwGzGYzJpMp8NiOHTt47733AIiOjiY+Pp7ExMQBO+fWrVu55ZZbAuHEaDQSEhIS+Pqf//xn3njjjT6P8fHHH/P73/8+EE5CQkICx2htbWXZsmWUlZUNWM1DVVhYGPHx8SQkJGA2m/H5fHzxxResXLmSjz/++KiO7fV6ueuuuwLhRKPREB4eDoCqqrz//vs8//zzR/0e+quxsZF33nmHlStXjojvrRD7kxEUMaLcdtttgd+yi4qKuO2221AUJXABmDdvHjNmzOgxEqGqKp2dnTgcDlRVxWw2o9VqcblcGI1GIiMjez2foii88MILdHd3YzAYuPLKK1m8eDFarZa1a9fy6KOP4na7ee6555g9ezapqakHHKO1tZXHHnsMRVEwGAz88pe/5Mwzz0RRFJ5++mlWrlyJzWZj9erV3HrrrYGaOzo6cDqd+Hw+9Ho9kZGRgWDm9Xqx2WyAfwTGZrMFaoyJiQGgvb0dt9uNRqMhKiqqRyDy+XyEhISgKAoOhwONRoPZbCYiIqLPURxFUbDZbLhcLjQaDSaTiaioKDQaDU6nk87OTsAfRMxmM6qqYrVaA5/71KlTeeKJJ9BoNERERNDS0oLb7QbA4/HQ3NyMRqNBVVU0Gk2PkY1938/+Ix6qqvLUU08Ffg6mT5/O/fffj8lkoqamhjvuuIPW1lbee+89brrppgNea7Vacblc6HQ6IiMjewRQl8tFR0cHXq8XVVXR6XREREQEpuX21rX356q9vR2dTofNZmPvIsuOjg6sViuxsbG9frZCHG8koIgRa/To0eh0OhRFISEhAYBVq1bx8ssvo9VqefvttwH47rvv+Nvf/kZtbS2qqpKUlITBYKC5uZmcnBz+/Oc/93qO3bt3s3v3bgBmzJjB1VdfHZjKmTdvHvX19bz44osAbNiwgSuvvPKAY6xatSowcrJgwQLmzZsHgFar5dprr6W+vp7q6mrq6+sDr3n//fdZsWIFTU1NeDwezGYzeXl5XHvttUyePJni4mKWLVuG2+3m7LPP5pNPPqG1tRWTycQJJ5xAamoqH3zwAe3t7ej1eiZNmsQf/vAHtFott99+O11dXSQlJdHd3U1dXR06nY7ExESWLFnCrFmzDvpZdHZ2snz5cjZs2IDNZkOr1RIbG8ull17KRRddRFFREQ888ABer5esrCz++Mc/8tZbb/HGG2+gqipLliwhMjKSP/3pT4SEhHDTTTfxl7/8he7ubsAfOJcsWUJsbCxWqxWNRsOf//xnsrOzcTqdPPDAA5SWlpKQkMAzzzzTo7bW1lY+++yzwOd6xx13BMJcamoqS5Ys4dVXXwWgsrKyx2vffPNN1q1bh81mQ6/XM3XqVH71q18RFxdHTU0NTzzxBIWFhYE6jUYjubm53H777WRlZfHggw9SUlJCbm4uHo+H3bt3Ex4ejsvlwuPxAPDPf/6TFStW8NJLL0m/ixgx5CddjCgrV67kwQcfZOnSpVxyySV4PB5MJlPgoupwOLDb7XR1dQH+noSlS5dSVVWFXq8nNTUVp9NJRUUFdrudjo6OPs/3zTffBP48depU9PqevxMsXrwYnU4H+Bt0D6alpSXw5xtuuKHHBSosLIwHHniA5cuX87vf/S5wzieeeILa2lrCw8NJS0tDq9Wybds2nnzySTo6OvB4PHR1ddHV1cWKFSswGo1ERUXhcrn44osvePPNN7FYLERHR+P1evnuu+/417/+Bfh/47fb7ZSUlOBwOBg9ejQGg4Gamhruv/9+2traDvo+3n77bd59913sdjupqalER0fT3NzMP/7xD4qKipg0aRKTJ0/Gbrezfft2nnjiCZ577jk6OzuJjY3lzDPPxOl0Br4/qqoyatSowGiFwWAgKSmJs846K/Ccd955B/ihUdput3P22WcfUFtjY2NgJOaEE04gPj6+x9fnz5/P8uXLWb58OVlZWT2+9s4772A2mwkPD8fr9bJ582a2bt2Kz+fjySefZOvWrXi9XqZOncq0adPwer3s3LmT1157DfAHN7vdztatW9m5cycmk4nw8HBiYmICo1ERERGkpKQc9HMV4nglIyhiRCkrKztgPt9oNPYIAfvad/TizjvvZPbs2VRVVXH33XcHAoWqqoGL9b6ys7N7rB7qrZHSYrHQ2dlJQ0PDAV/z+XyBqRidTkdYWFif78/j8fDyyy8D/qmbxx9/nMTERNatW8ejjz5KRUUFX3/9dWDECPzTGb/97W9pa2tjyZIl+Hw+pk6dyn333UdDQ0NgSmPLli0sXrw48LqIiAgeeughcnJy2LRpE/fdd19gSuuXv/xlj7rsdnugz+biiy/mRz/6EW1tbdx2221YrVYefvhhXnjhBe666y6sVis7d+7kww8/BCAhIYFHHnkEg8HQ45jJyck8+eST3HfffWzevJm8vDwee+wxVFVlzZo1VFRUUFBQgN1up6Kigq6uLsLDwznxxBMP+NxsNhterxegx2qd/jjrrLO4+eabKSoq4p577gkEWJfLRUZGBmazmQkTJnDppZficrm47LLLAtNZPp8vcByNRsO1117LtGnTiI6Opq2tjTvvvBO3282SJUuYO3fuYdUlxHAnAUWMKPPnz2fKlCl4PB6+++47Nm/eTGdnJy+++CJz5sw54PmNjY2Af0nyqaeeCviX9mZkZAQCitvt5vHHH6eoqKjHa++9994eS5gPNtqiKAoulwvgoMuNtVptIJT4fD5cLlePBl9VVWloaMDpdAIQHh4eGMGYO3cuSUlJgH9UICoqiqamJjZt2sQFF1wQOMaCBQsICwsL9H10dXUxfvx4zGZzj4v1/gEsNjaWvLw8AGbNmkVkZCTt7e1UVVUd8D527NgRGKFYuXIl7777LkBg2qO2tha3243RaOSKK67osVrpsssuC/TF9IdGo+Gqq67i4YcfpqGhgdraWlatWoWqqmRlZfX4nuwVGhqKTqfD6/UeNCja7fbA9zsqKqrH1y644AIsFgvZ2dnEx8dTXV1NR0cHFouFa665hqKiIjZs2MDPf/5zKioqAp/D/pt4Z2VlcfHFFwe+372NRAkxUkhAESPKpEmTWLBgAQDnnXcejz32GKtXr6a6ujowrbOvvUPsPp8v0HipKEqP33y1Wi06ne6A3gCdTseUKVMCvSw7d+7krLPO6vG8Tz75JHDBOtiFU6PR9GjCffPNN3uMYthsNn77299SU1NDREQETz75ZKC2fRs19Xp94L3s/z5DQ0MPeL/71ri36XR/+49ohISE0N7ejqIoBzx/33OGhoYedCTI4XBgNBpxuVw9Xt/e3n7Acw9l7NixREdH09raysaNG9mxYwcAJ510Ekaj8YDnJyQkBM69efNmHA5Hjz1W3n33XZYvXw7Ab37zmx6v3RtYtFptj/Bot9t55JFH2LRpU+AcM2bMYPv27YFRsX3Fx8f3+J4JMdJJQBEjisvlCqzGcTqdgQvn3tUV+9sbGtxuNytWrGDevHlUVlYGNkoD/4X6L3/5y0HP5/P5iI+Pp7m5mU8//ZTZs2eTn5+PTqejrKyMxx9/HPCHgIkTJx70GHPmzOGtt97C5/Px9ttvM27cOPLy8tBoNHzzzTdUV1ejqirTp08nIiKC8PBwmpqa+Oqrr7jqqqswGo1UVlYG3uvUqVOP/APcR2trK21tbYFekr0jDAdbyTNu3LjAny+//HIuueQSwN/Y2tTUhE6nIyoqiu7ubl566SVUVUWr1aIoCq+//jpz584lLS2tz3r2jkSB//uWnZ1Na2srr7zyCuD/Pp133nkHfW1iYiI5OTls2bIFh8PB008/zbXXXktYWBg2m41169YFVlHNmTOH1atXB17b26olq9XK1q1bAbj11lu58MIL8fl8PQLmvnQ6Xa/Hstvtfb53IY5HElDEiLJixQrWrFmDqqrY7Xbq6uoA//D6wXZjXbhwIa+88kpgKfCqVatoa2vr9wVDp9Pxox/9iMceewyn08myZctIS0tDr9dTV1cXuKied955TJky5aDHGDt2LIsXL+bFF1+ks7OTBx98MDB1U1ZWhqqqREREcPHFF2M2m5kzZw6lpaUUFxdz3333kZqaytatW7Hb7URGRnLqqacedMO4w9Xa2sr9999Pbm4u27ZtC4x6XHTRRQc8NzExkenTp/Ptt9/y73//O9AM+uWXX+JwOFi4cCEnn3wyDz30ENXV1QBcd911vPjii3i9Xn7961/z17/+9YDjajSaQONxeXk5S5cu5dprryU/P5/TTz+dzZs3B547d+7cXnee1Wg0LF26lBtvvJH29nY++OADtm7dSmRkJM3NzYEepQULFhw0yPZm72eyY8cOkpOTWb9+feBYqqoedGRqL4PBEAgsr732Gjt27OCuu+6SVTxixJCfdHHc2/e30sbGRgoLCykqKqK2thaDwUBWVhY333zzQV8bFRXFU089RV5eHhEREdjtdjIzMwO/zfdn59YzzzyTJUuWEBcXh8/no6ysjKKiIrq6ujCbzSxatIjbb7+9z2NdeeWVXHHFFYSFhWG32ykuLqa4uDiwRHrx4sWMGTMGgKuvvppZs2ZhNBr55ptvWLlyJRUVFURFRbFo0aIDNqHb97yHsxOtXq+noqKClStXUl5eHhihmD59+gHH12g03HjjjWRmZtLe3s7nn3/OmjVr6O7uJj8/n5/+9KesW7cusOpp1qxZXHPNNfzv//4vOp2O5ubmHrsB761Tr9eTnZ2NXq/H4/GwefPmQO/G/PnzA6FTr9dz7rnn9vl+oqKieOihh8jOzkaj0VBXVxfY7t5kMjFp0iSuu+66fn9OMTExjB8/HoBPP/2UpUuXsn79+sCUncPh6DHqs7+UlBRSU1PRaDQ0NzezadOmPgONEMcbjSo/8eI4V19fH2h23Z/JZCItLS3Qh9HQ0BBokpwyZQqlpaV88skn2O12Zs6cSVJSEiEhIdx///0UFRVx4okn8vvf/75fddTV1dHY2EhBQQEOh4Nx48YRGxtLdnZ2v34rV1WVsrIyrFYru3fvRqPRMGbMGDIyMg7oX3G73ZSWllJTU0N9fT3Z2dmMHj06EKy6urooLS1FVVWys7MDO6bu2LEDr9dLYmJiIMjsnaYwm82MGTOG888/H6fTSUZGBnfddRdFRUUoikJWVhY5OTmBHo+9r4uLiwtsQNfW1kZZWRmlpaVotVrS09PJyckhOjqampqawOhCfn5+oJ9j+/bt+Hw+TCYTiYmJVFZWotVqycnJwWKx4HK5KCoqwmaz4fF4mDJlCjExMXi9Xq6++mra2tpIT0/n0Ucf7XNTvb06OjqoqKigpqaGyspKMjIyyMjIIC8vL/B9slqtgZGe8ePHYzAY8Pl8lJSU0N3dTUxMDGlpaVitVnbt2kVVVRXR0dFkZmZiNpux2WyYTCZycnIoKyuju7ubyMhIMjIyeoQfq9VKRUUFNpsNs9nMzJkzh9TtDIQYTBJQhOhDaWkpt9xyC4qikJSUxM0330x5eTkvvfQSAL/+9a85/fTTg1zlsbU3oGRlZfH0008Hu5yDuv7663vsMnvBBRdw2223BbkqIcThkCkeIfqQlZXF7bffjl6vp76+nnvvvZfly5fj8/m44IILmDFjRrBLFAfR2toa2NZ+ypQp/PjHPw52SUKIwyQjKEL0Q319PZ9++iltbW1EREQwc+ZMsrOzg11WUHz77be4XC4iIyMDPRZDTUFBAe3t7YwdO7Zf0zpCiKFHAooQQgghhhyZ4hFCCCHEkCMBRQghhBBDjgQUIYQQQgw5ElCEEEIIMeRIQBFCCCHEkCMBRQghhBBDjgQUIYQQQgw5ElCEEEIIMeRIQBFCCCHEkCMBRQghhBBDjgQUIYQQQgw5ElCEEEIIMeTog12AEMdCy0dr6dy+C4bwvTE1ej1xZ55B2Pj8wGMdW7bRun4Dqtd3VMc2p6WScOF5aE1GAByOdrZtfQ+n03FUxz2Y8PAYJk1eiNFoAcDutPPhlvexdrYN+LkiLGEsnHY+EZYIAFweFx9uXU1jW+OAn2uwJccmc9aUszHoDMEuRYghQQKKGBHq7/sd+Qvno9Fqgl1Kr1ydXXy94CJOrykMPLb1sks56U9TMEQaj+rYVf+pxnnCVCxZmQDs3rWWyIhXOGF62FEd92C++85GbU0amVknArCtYgtlnU9x4vjwAT/X9pIuNuwO55zpFwBQ3VLFwwW/x5I/8O9rsNm/72RK5jRSYlKCXYoQQ4IEFDEiaAG96egu8oPNEhONs6mlx2Meq42QBPNRHzskwdBjFMbtdpOXa8ZgGPhZ3oQEI16vJ/B3j9dDcoIB4yCcKyM5BGeLO/B3n+KDMA0a/dANor0KBUU5upEyIY4n0oMihBBCiCFHAooYUSptbfxr6xYAfIrCyp07jvqYv/lgFa3d/l6O9eVlvLn9+x5fX11YwC/f++8Bjx8Or0/l5Q/LuP/573nyrULaOt2HfM3fVxaxpbj1kM+rr3dy//07uf/+nfzxkYJen+fxKPzh4d34fEfXx7Nri41/PlLIP/9YiKPLe9ivL/y+nf+8WHnI5znrnJT9o5yyf5RT9Wo13iM4114dOzooe7qc6n/XBB6rfq2GgocK6CrqOuzjOeuduJpdR1yPECOBBBQxolS12QIBxasorNy5EwBVVfEpCsqeJlpVVVFVFUVV8anKAY/tfZ6iqvxuwUJizP6G0GpbG7ubmno8Z+GYsczJyKSgualHLf5jq/Tncu/1Kbz8YTm/uW4CHXYPdz+z9YfjKCo+RQ30/6qq/7FvCqw0tjoPeezaWgfNLS7uvXc8d905tudxfSqK4j+wTqfhrjvHotNpejxHVcHn8382h1JTbufxu3dwxU1ZXP+LXEIsusBxlH3eA+oPjwXsecza6KRoe/shz9Vd343t+3ayfpZJ2jWj0YfpQfUfB0Dd79jqfudXFTXwnIgJEWQuycBeZg+8ZPRVqegjDLjbfpjO2nvcfY+tKmrgeHs1fthI8/oW+vXNF2KEkh4UMeK0Orr5trYGl9f/G7XD4+Gmt1cQa7HQ2NXJX86/iK+qq3h289ekRUXxVVUV/776GtaXlfFRcRGRISG0O5387aJLWP7NZtaWlPDi5VcQFxoKwKdlJTR1dVLT0c7fL7qEpPCIA2r4z84dvLNrJ6qqMiczixtPPKlftdc0OaizdnPq5AQAXlhVytpvG7CE6MlNDefG83L4zdNbQKPhyx0tLDojvV/HbWtzU1jYgdmiJz3NwmefN/PY/xWRlmZh9ep6Nn4xj78+WcwXX7Sw5uPTAbA7vNxw42aSEs1UVNiZOjWKe+8Z3+d5PlhRy6nnJBIR9cNKlTXv1PH56gYMRi3hkQZuuSefpx7cTafNjcetMnNeAmcvSuXt5RXs2tKGo8tLVKypX+/L1+XFUe5Aa9JiSjJRu6IOr91L1ORIGj5oJO+OXOxldiqWVxKSYiYk3kTqohRq/1OHo8KBy+om4/o0wvP70eCrQtPaJpo/bUH1qURMjCBxwSi++9lWoqZF4mn3kHj2KAzRRpo/s6I1anHWu0hcOIqwnNB+vR8hRhIZQREjTnV7G89u/prl334DwOvbtpIdE8sT51/IpMRkHtvwGU6vl91Njfx+wUIumziJEL2BTpeL0ZFR/HHhuczJyCTabOZXc05Fr9UERksAfIrKIwvP5cycPL6sOHAqwun18pM33+CKSZO5d/58Piwq7Pcv0mffsZZ13zVw2tRRNNtcPPjidv7882ncfFEeHq/Khu3NREeY+PsdJzF7Yny/P5ONG60svXs7zzxTCsATTxTx9N+n89ADE2locBISouPupeOI3ScYqCrU1nZz3nnJ/PqusWRkHPoiW17QQXySmarSLn7z4820t7r56K1a/vfhidzxh4m8+68qPn2/nreXV3DnnyZz/z+msWZlLV6Pwsa1Tdzz16lcsLh/oQvAUd1NyZOl1LxZg+pRSTwnkYb3Gti1bDeZN2SgNWrZee9uki9MJvf2bEZflYpGr6Hpk2ZSLksh5qToHtM6ffG5FKpfr2X01amkXpFK7Vt1eB0+PB0e0q9NI/36dDqL7URNjiT+tDhGzY8n57YsCSdC9EJGUMSIMzkpmb9fdAkur5efvv0Wrd0OIkL8F95Yi4WKNv9+HZdOmEi4ycSdp/lHDIw6HWdk5xAZEsItM2f1evy5OTlYjEaa7V2MTTgwJHR73CioFLe00NDZyQ0nnER/15wUvHoBH35dzyV3r+ePN08jItRAXFQImwtacXsVCqvamT0pAbdHobLRfugD7nHOOUn89S/T0OwpxGDQMmpUCEVFnX2+LiHexLy5/tGcGTNiD3meKTNj2bbJyunnJmIJ0+N2KWg0oNVpMJq0hJh1dNg8hEXoMRj8xRhNWuydXmIS/KuwGmu7+/2+wvPDmfToxMDfVcWHOdWMy+pG8aiB6RetaZ/f1VTwdnqxbbWh0WkYdfaofp1LVVRUn0JXsf9zz74lC41egzHWSEhSCF6HPfB91mhBFuwI0TcZQREjmwYumziJD4uKqLK18e7uXVw7bdphHcKjKNR1dOBVFEBDe7eTlTt3sL6sjEmJyYHntTudNHR1EW22MD87FxWYn5tLv9MJUN5gZ+239cRGmJiUHUWnw8tb66v4nyc209bpYkJWFO99UcPT/y1m446WQx+wFxqthrVrG1l693ZUFZxO/9VUVVVqa7txuZQjOu65V46msqSLxlpnoP8kMdXMmnfq2Li2CY9H4fTzkvB5VT7/sIFVr1cTFWsiNEKPrcXNli+t/Pvpsn6fz9PqobOwk64SO4pboWV9C6FZoWTdlEnB7wtBgeSLk6l5sxaX1U1XcReqomJJMxOeG0bE+Ah8jh+ShK/bh6vRhbpPo7C71Y23w4suRIslw4LP4SV6ehSKu+dntO+32ZxuoWNnB84GJ46qgd8sT4jjgW7ZsmXLgl2EEIOt+bkXSRibi0GnIzkigjHx8WiAiJAQpianMCosjPcLdnPO2HzOys3DpNcxOjKK0VFRgWOE6A2kRkYSZe65L4mCSlFLC/kJo4gMCaHZ3oXd4+GWmTPJiI4BwKjT02y3U22zMSU5mQvGjWN3UxPf1taSFxdHaqT/PCXrNpBzz12BY5c//AhZV+eiQUNUmIFvC1vJSQ3nrmvGExVmZExaBJUNDu6+bgLpiaGclB9Hs81FTISRxWdlMi4jiqgwI13lnZgmnI8x1l9PTfUOEhJ2YjLp0Ou1JIwK6TFFkz82nLWfNHH99ZlMGB/J1KlRmEw6zGY933zTRmqqhchIA5FRRnJze/Zn2GxuFPVUYmNHA1DZVEGn8jnR4QYMRi35U6L4cm0jYeEGJs+IYeIJ0RTv7KC12cUvHpzAqGQz8y9M5vuv2/C4FRbdkElouIHIaCPFO9u57CcZpOeGkZxmodvlw+eYRv7ocQBYO1t4p3YlxmgjWr0WrUmLs8GFp9WDJc2C2+pm1MJEQjMsaDQaDFEGYk+OQaPVYP2iFY1OQ2iGhcgJEVg3teJscBIxLgJjjBENGtxWN44KB6EZFrQmLboQHd013aCqmFPMRE+LxlHZTWdhF6EZFsypFkwxBkJzQtHqtRiiDJgSTJiTQvDZfdi2tROaYcEYbcRtdbEo8woiLZED9FMvxPCmUfvTei/EMLdz5lzGX3ROsMs4pA/u+QNnu62Bv6+NimPeewuP+rj1n9QSceUzhOblALDxy38zYfwbhIcP/Lbq5eVdeH13k5vnnwZbv2Mdtd7fkZlsGfBzWdvduFtu5JKZlwFQWFvAj7++ntDM4beTbFdRB2/MfYvRcWnBLkWIIUGmeIQQQggx5EiTrBgRFL2e7rb2IX0vHneXHUtGz9+eTSlJdJZ2YIg4upEOR72XKMMP/7qHhFgoKbGTmTnwoxq1tW5S035Y7RNiNFFZ5SEy7NCbyx2uokon42N/eA96nQFth+aoNmULFl2XDr1O/pMsxF4yxSNGhLYvNmEvLh3idzPWET1zBpacrMBjXbsLad/8LarvyJpS9wpJGkXMvNPRGvxBx+nspLBgPU5X/1fE9FdYaBR5Y+ZgMIQA0O3uZsOu9bQ7Ogb8XKEhFuaMO52wEP+Ujtvr5ouCz7F2WA/xyqEnPjKBU8bOlpAixB4SUIQQQggx5EgPihBCCCGGHAkoQgghhBhyjtlk56JFi7j55JnMzc4ZmOO9+jL/vOSyA/akGGj3fPQhIXo9d8+dN6jnGUnauh3c9PZbXDV5CpdMmHjoFwghhDj2NCrE22DW9UE5/Ukoa9oAACAASURBVDELKCtWrGAhWvAeXbPfvsf765hxEN6Pm3gdhU9XrybMaISU0YN6npGkrLaWt1as4CK9EQz9u+mbEEKIY0SjgskDGbWgdADHeUARYq/KtlbQaBgb3/+b2QkhhDgG9D5IbYKEVjAEd7m+BBRxzBVbW9AAeXESUIQQYkjQKRDmgNxqMA38nkVHQgKKOOa21dWTFRtLuEmmd4QQIugsTkivh6gu0A5MG8ZAGPYBpa27m6LmZiraWkkMjyAvPp6kffpStjfUo9FomTDqwFumexWFHQ0NpERGUNDUzJzMzH6dU1VVqmw2SqwtNHZ1kRMbx8TERMx7NsFSVZX/7t7FjNFpmPQ6qmw2tBotGdHRPS7Kbd0OOl1u0va5Id3+XF4vHxYXsiB3DCb9sP92AVBha+XicROCXYYQQoxsBq9/KiejPtiVHNSwXmZs6+7m4pdf5Pfr1lJitfLs5q8589mnKbX6d5FUVJU/fPoJUSEhB319p8vJdW/8m5r2Dpat/YiKtrZ+nXdtaQnznn2a17ZtpdLWxv9b9R7nLH+OFrsdgILmZm5Z+TYNnZ2c8czTLFvzEbf9dyU/X/mfwDEUVeWBtWu46KUXsHX3vpunXqtlxfbtPLv56/5+LENeRWsbl0yQgCKEEEGhUSG+DSaWQHpDsKvp1bAOKHesepdRYWGsWHwdd8+dx8tXXMkF48az6NWXcXm97GpsRKvRkhwRQanVSnW7jc8rytlWX4/H5wscJyokhNnpmTz86SccamNdj8/HsjUf8du583n20kX85vS5vH3t9TTZu/j7po2oqsorW77lwbPO5qPiIqJCQnjzmutYc+NNbK2vpaGzE4AWu512p5OFY8aytrQEAIfHzfaGBkqtVj4rL2N3UxNarZZfzp7D8m820+50Dt6HeYx8W1tDi8POyWnpwS5FCCFGHrMT8iohrwrMLn9YGaKGdUBZVVDAj084EYNOF3jsumnT2VpfR2FLM09/vYnpKSk4vV4ueukFLnzxBZ788gvmP/s060pL0Wg06LVazAYDF44bzyelJbT2MZoBsLu5iQ6nkwvyxwUei7VY+OPCc/m8ogyPovB1dTWXT5rM9JRUHl54Dnqt/2MO0RtQ9gSgv2/ayPycXH528kze3b0LgBKrlTOe+Ts3vvUmf9+0kYXPP8tXVVVMSUpGp9VSbbMN9Ed4zK0rLSUnNi7YZQghxMii90FGHUwshbj2YFfTL8M6oABkREf3+HtyeAQaoKGzk7UlJaRERIKq0uFy8va11/H61Yu58cST+K6uFr1Gi8VgINZiIT06mnank6auzj7PV2q1EmMJJcTQsx9kSlIyLXYHPkWhw+XCqNMxLyeHk9PSsTocPLh2DTEWC8kREZS3trL8m80syMsjKTwcrUbDx8XFKIo/vDxx/oW8csVVTE5O5uOSIjQaDYnhYVS3D/+A8ll5GfkJCcEuQwghRgadApFdMLEYUpqDvnT4cAz7gNK234hHh8sFgFmvp7C5iThLKAAZ0TFkRMcAMDY+AZfXi16nJTE8HINOR4zZjFajweHx9Hm+hLAwuj1uvPvdXba+s5NwkwmH241PUdBq/I9X22xc9NJyvq+v49lLFwGwtb6OP597HrGWUPRaLb84ZQ7rSkvwqQqRIWZSIyPRabWkRkbgcLsD9Tfv6XEZruxuN+vLy8iLkxEUIYQYdCY3jKmEcWVgcQW7msM2rJeFpEdH89b27cwYnYZW408EqwsLiAsNJX/UKIw6HTaXv29DtzcxAOD/s16rY0HeGACcXn+qPNTS18lJyVgdDrY3NnBKesae13p4eN1axo8aRURICHa3G0WFXU2NnPL3p3jwzAXcOuuUwDEuHt+zQXRSUhKTkpLYWleHRgMazQ+17m2JaXU4eqxOGo4q2tqwu92BoNgfiqri8LgJNRh7fC7g/9w1aAZkdZPd7SbUaDzq4wghRNAZPRDXBplDc3VOfw3rgLJ80RX86I1/E6LXMy8nh52NjTz86Se8ePkVxFlCOSM7h9r23ufaOlxOVu7awYzRaZgNBsKMJqLNlj7PGWY08qs5p3LVv15l6RnzyE+I59WtW1hfUc7nP70Fg06HxWhAVVVe+u5bpqekkBkTw+qiAgDmZedi3Kdnpr/qOzsYNcwDSqWtDVVVGXeQJd/7U1WVN7d/z2Off0a700m0xcwjC89jdoY/FCqqyi/fe5fFU6Zxyp7HDqawuYl3du3iztNODzzW6XJx/9qPKWhq4rpp01k0cTIPrP2YW2bOIj0qutdjCSHEkBfb7u81MfU9GzAcDOuAkh+fwMrrfsRfvtjAH9d/SqjRyHOXXR4YFbn9lNm8u3sXOq2W07OyA6/LiI7CYtSj12jJjI4hxKDn8/IyxsTHE92Pmw/+dMbJRIaYeWfnDv6zazuZ0TFs+59fkRIRAcBJo9PYUFlOQmgY0WYLL3z7TeC1J6WmEWs5eAiKMps5O28spj0BZnpKKkadnvrOTpq67CSEhh3xZzUUVLS2oqpqv3aQXbFjOw+s/Zg7TzuD8aNGsbGykstffZnnLlvEwjFjKWhuotTawslpaX0e58XvvuW1rVuZnZHBrPQMbM5upv/lCebl5HDl5Cnc89GHRIWYmZ4ymmte+xef3PSzIwqQQggRVKHdkNLkv7nfcWJYBxSAqckpLF90BW6fD4NW22MaYF52Do9+th5FVbl33pmBx0/bJ6w8eeHF2N1uXtnyHf+45NLAipu+6DRarpkylasmT8Hj8x0wxXDZxEkseetNCu+4k1/NObXf7yUjOponL7wo8PefnHASAHeueo+rp0xlVNjwDig7GhtICAsjITS0z+d1uV3c+s5/eOrCi7ls4iTA/33udLm49+MPmZ2RyWtbt/DjE06ivK2V1YWFeBQfL3/3LZdOmMidp52OUaensauLXY2NvHrl1Tzz9SZmjE5jd2MT1e02Hj/vAixGI2WtVpZ/u5nnLrucn/5nBVvr6jhptNwYUggxTOgUSG2ERKt/pc5xZNg3ye5l1OkO6FEw6HTccOJJbKio6PO1drebRZMmH/a9YbSag/c/nJ6ZxZm5ef3e+O1QtflUldtmnXLA+xtuCpubOS9/3CHfR6nVP9JyQuoPQUGr0XD5pMk0dnVhddj5praW7JhYrA4Hv/lgFWVWK7fNOoUXvv2GnY2N+BSF/33/XS6fNJlZ6ekYtFpqOzoYN2oUX978cyxGo38n4T29RBaDgZlp6Wypqx3sj0EIIY6eVoHoTphQ4r+533EWTuA4GEE5lCsmTeZQ29DEh4Xx0xknD9g5dVotf7vwErQDkCdCjUYeWXguun6M7Ax1JVZrj2bh3nS6XGg1Wkz6nlMt4SYTHp8Pl9fH9oZ6wk0mOlxOsmJi+L/zLsCg07GzoZHKtjYMWh2lVmtgBObcsfn87pM1PH3JZZyQOhqrw8H1b/wbt8/HkpNmAP5m5Zo+epaEEGJIMHkguwYiO0E7dDdaO1rHfUDRaDQcKidoYMBHJ3QDkU4Cxxr+4aS+s4PGrk5Oy8o65HPTo6Po9nqo6+ggKTwi8PjWujrCjCZC9HoUVcWw53NJjogMbNZn3PO1cJOJf1xyaaCfZH5OLt0eLz5F4dvaGu5c/T758Qncf+aCwChYnMVCq6PvjfqEECJojB6Is0Fag39q5zh33AcUMTR8VFxMcngEEaaD3xdpX6kRkZw7Jp/l32xmekoq4J/q+uNn65ibk8PoqCj0Wi1d7t5vCZ6+3wZ+YSYTV02ZQl1HB+e+8Dz/uPhSLh4/IbA8Hfz3UJqclHyE71AIIQZRdCdk1fj3Nhnes/39JgFFHBMfFxeRHRvbIxD0RqPR8MdzzuGGFW+y8PlnyYyJYXdTE7EWCw+dtQCtRsOcjEya7V1EhIRw4A43vdtYVUlbdzfvF+xmdaF/6fcZWTlcPWUKm2uquWj8+CN/k0IIMdBCuyG5GRKOvqdxuJGAIo6Jz8rKWDh2bL+n0kZHRvHOdT+i1eGg0tZGVkwsMRZLYMpm8bRpvL1zO385/yJeu/qawOuWzp0XmPo5mHPHjKVu6T09HjMbDOxqaqKkxcqstN73VBFCiGNGq/ibX5ObR8R0zsFIQBGDrrrdhtVhJyc29rBGJs0GAymRkaRERh7wtRmpaTywZg0VbW3k7rN1ftghdoMNMRgIMRgOePy1bVt4/rJFxPSyR40QQhwTWgWiuvxLh8Mdwa4mqCSgiEFX3tqGV1HITzj0DrL9FWOx8Nbi67AcJGwciZ+edDKpBwlCQghxzBg9kFPtDyia43d1Tn9JQBGDrrKtFa+iMDb+8PaZOZTkiIhDP6mfRkdFDdixhBDisBg9EN827O42PNgkoIhBV9zSgl6nIztW7mIshBA9RNghr8q/Okf0IAHlkNQRs6RrsOxqauTs3DHyMQohxF4jeHVOfw3/HcAGkaqqqKr/3jviyO1qauKsvNxglyGEEMGnUf0NsJOLJJwcgoyg9EFRVRRVRa+TgHKkulwuylqtgTtMCyHEiKRRIabDf8fhEb46p78koPRBBVRU9BrdIZ8rDu6z8jKiQswkhw9cQ6sQQgwre1fnRHcGu5JhRQJKH/ZO8egH8L46I817hQXkxMai10nIE0KMMAYvJLRCcos/pIjDIgGlD4qqoqAeFzfrCwYVWF1QwKmZmejlMxRCjBgqhDlhTCWEuIJdzLAlAaUPKvhHUKQH5YjUtrfT1u1gbHxCv+7BI4QQw57F6d/PJKE12JUMexJQ+uCf4lHRa2V64kiUt7Xi8nqZlJQU7FKEEGJwaRVItEJmXbArOW5IQOmDsjegyDLjI1Le2orb52NiYmKwSxFCiMET2y6rcwaBBJQ+qPh7UKR/4sjsaGxgVFgYaVHRwS5FCCEGnsntHzGJbQ92JcclCSh9UNU9PSgSUI7I1ro6zhmbH+wyhBBiYOm9/umcRCuYZHXOYJGA0gdFVf37oEiT7GFTVZVt9XX8bMbJwS5FCCEGhkaFMAfk1PibYcWgkoDShx+aZCWgHK6C5mY6XS5mpqcHuxQhhDh6Fqe/zyTe5g8qYtBJQOmDiooiUzxH5IPCAkZHRhFmNAW7FCGEOHI6n/+eORn1/pU64piRgNIHRfWPosjNAg/f6qJCMmNiMOnlR0wIMUzJ6pygkitvH1TpQTkinS4X39fXkxUTg0G2uBdCDDchLsirgrEVEk6CSH697YOCKqt4jkCVrQ2n18OkpGRk/1ghxLCh8/nvmzNKVucMBRJQ+qCq7NkHRUYBDkdlm41uj4epScnBLkUIIQ5No0KEHTLqIKw72NWIPSSg9GHvKh65WeDhKbY241UU2eJeCDH0mZ0wuhFiO6QJdoiRgNIH/1b3MsVzuL6rrWNWegZmgyHYpQghxMHpfRBng/R6/5/FkCMBpQ8qsg/KkfiuroYrJ08JdhlCCHFw0R3+URNpgB3SJKD04YceFGn17C+Hx82uxkbOyskLdilCCNGT2eVfNjyqNdiViH6QgNKHwN2MpUm23z4uLibWYiEjRm4QKIQYIrQqJDfJvXOGGQkoffDvgoI0yR6Gj4uLSIuKJkQv/SdCiCDTqBDZBWkNMp0zDElA6YO6ZydZ6UHpH5+isK6slLFx8dIgK4QIrhCXf3v6qE7Qyeqc4UgCSh/2jqBoNdKD0h/1nZ20OhyMTUiQUCeECA69F+La/U2wRpnOGc4koPRF9Y+i6CSg9EtNuw272820lNRglyKEGImiuvzLhsNkOud4IAGlD/7xExWNBJR+qbS14fB4mJacEuxShBAjidkFyc3+Jlhx3JCA0gd1zz9auZtxv2yrq2dUWBjp0bKCRwhxjKQ2QVIzGL3BrkQMMAkofVEBVZUelH76sqqCs/PGyOclhBh80Z17NluzB7sSMUgkoPQhsMxYLriHpKoqGysr+cUppwa7FCHE8czkgcxaWZ0zAkhA6YOq7pnikZ1kD2lNSTEmvZ5pKdJ/IoQYBHofxLf5d4KVzdZGBAkofdh7Lx5pkj209woKyIiOIdxkDHYpQojjTaTdP2oS2h3sSsQxJAGlH6Snom8en4/1ZSVkREcTZjQFuxwhxPHC7ITkFv+9czRqsKsRx5gElD6osg9Kv9R1dNBst3N+/jgMOrlvkRBiACQ3+1foGGR1zkglAaUPe/dBkRGUvlW322h3OpmVnhHsUoQQw110B6Q0+++hI0Y0CSh92dMkKz0ofStqacHudnOKBBQhxJEyeCG7xh9QtDKdIySg9GnPNigygnIIGyrKmZmWTkRISLBLEUIMNzqfv8ckqQVC3MGuRgwhElD6oO75n/Sg9O3z8nKun35CsMsQQgw34XbIqfZvVS//mRX7kYDSB3XPKKNsdd+7KlsbFW2tzM/JDXYpQojhYu/qnPg22WxN9EoCSp9UmeI5hNWFhYwKCyM1MjLYpQghhoNEq/+Ow3pfsCsRQ5wElD6oe/5fmmR790FhAalRUURK/4kQoi+yOkccJgkofdi71b1Otro/qHZnNwXNzUxJTibcJBu0CSEOQqtAbjXE2YJdiRhmJKD0yb/VvUzxHFxtRwet3Q5mZ8jyYiHEfjSqf2WOrM4RR0gCSh9+aJKVgHIwde0dtDq6mZOZFexShBBDSVg3jKmQYCKOigSUPqh7/pGAcnBf11QRbTYzPmFUsEsRQgwFIS7/9vSx7dIEK46aBJQ+qDLF06dPy0o5KzcXnVaWYQsxomlUiLf57zgswUQMELmy9EFV/cuM5QJ8IKfXy6aqKs4eMzbYpQghgimqE8aXQW6VhBMxoGQEpQ+KqqKoKiadfEz721RViaKqTEtOCXYpQohg0CqQVevfpl6IQSBX3j74A4qCUa8LdilDzkfFRSRHRBBtMQe7FCHEsZbS5N9wTZpgxSCSgNIHnyIjKAejqCqflJSQEhFJtNkS7HKEEMeCRoXQbsir8t87R4hBJlfePiiqgk9VZQRlPw2dnbQ47JyfP44QvfwICXHcM7khrQFiOqTPRBwzcnXpw94eFKOMoPTQ2NVJi93OaVnZwS5FCDGYtArEtUNGHRi8wa5GjDBy5e2DL9AkKyMo+ypqbqbD5eJ02aBNiONXVCeMboRwh396R4hjTAJKH3yK/zbgBgkoPXxcUsys9HSizNIgK8Rxx+D1B5NEqwQTEVQSUPrg8noxSY/FAT4oKuR/Zs0OdhlCiIGW3AxJVv+OsEIEmVx9++Dy+mR6Zz/bG+pp7urijJycYJcihBgIe1fnZNdCmCPY1QgRMCwDiqqqHIvN590+rywx3s/qwkJSIiIZFRoW7FKEEEfL4IHMeoiW1Tli6BmWV1+voqDRaBjsW+S4fF6MMsUToKgqa0qKSY2KJD5MAooQw5bOB7EdsjpHDGnD8urrVZRjcgM/l9eHSfZACWi226m22bho/HjZ/0SI4SqyC9LrIaxbmmDFkDYsrzI/BJTBDSluaZLtoamrk/rODhaOyQ92KUKIw2X07GmCbQGtBBMx9A3Lq69nT0AZ7DEUl/Sg9PB9fQNGnZ4Zo0cHuxQhxOFIaobkFrl3jhhWhuXV1+vzyRRPEHxUXMiZubkyqiTEcLB3dU5GvX9aR4hhRhvsAo7ED02ygzzF4/PKNvd7+BSFVYUFnJWbF+xShBCHolMgpxrGl0k4EcPWsLz6Htsm2WH5EQ24zbU1eH0KU5JTgl2KEKI3Oh/EtvubYI2yOkcMb8Py6utVfMekB0WaZH/wSUkJCeFhJIaHB7sUIcTBhNv9m62ZndIEK44Lw/Lq6/UdoxEUn1d2kgU8Ph/rSkvIiI4mzmIJdjlCiH2Z3P7t6RNb/FM7QhwnhmdA2buKZ7A3apMpHgBaHQ5q2tv5+axZ6LTDsm1JiONTYgukNoHJE+xKhBhww/Lq61F8x2QfFFlm7NfY1UVDVydn5uQGuxQhxN7VOekNENUZ7GqEGDTD8urrPUb7oHR7PMSFhg7yWYa+r6qrSIuKIjcuPtilCCFyqiFG7p0jjn/DNqAM9hJjgG6PG4shatDPM9R9VFzEGVnZx6TvRwhxEDoFYm3+UROjTOeIkWFYNhT472Y8+BdLh8eD2WAY9PMMZXa3m4+Li5gv+58IERyh3TC5CLJrJJyIEWVYjqAcKw63B4vBGOwygmpjVSUmvZ6s6JhglyLEyBLihkSr/x+dTOeIkUcCSh+6PR4sI3wEZUNFOTFmC0kREcEuRYiRY5TVP51jkM3WxMglAaUPDu/IDihOr4fPysuZmZ5OtNkc7HKEOL5pVAh3QEoTRHcM9iJFIXqlKCrFNZ28tb6K/26oYdPO4NQhAaUP3W4PZuPIDSg2p5Oadhs3nTQj2KUIcfzLroE4m2y2JoKqpd3FI6/u5MUPyuiwe1h0RnrQapGA0geHxz2ie1DqOzpodzqZm5MT7FKEOD7tXZ0zuglCXMGuRoxQiqJSUNXBG59UsnxVKS6Pj/NPSeUn52QzY3xc0OqSgNKHbq93RK/i+aioiImJSSSEhgW7FCGOPyEuyC8Hs9s/vSNEEDS1OXn41Z28uLoUh9PHdWdnsewnk4iPCkGvC+48owSUXqiqinOEN8n+d/dOzhmbH+wyhDi+7L13ziirbLYmgkJRVXaVt/Pqx+W88lE5qLB4QRbXnZXJtDExx2Sfsf6QgNILp9ffPa/XjsybBRa1NPN9QwN/OPvcYJcixPEjrg1yaqTPRARNvbWbh1/ZyfJVJbg9Cj+7KI+HlkzBYtKh1Q6NYLKXBJRedHs86LVadEPsG3asrC8rI9IUQnqU7KQrxFHpsTqnU6ZzxDGnqvB9aRsvrCrjzXWVGAxabrl4DFefmcGk7Ohgl9crCSi9cHg86LRa9CPw7r1eRWF1YQG5cXGMloAixNHJrIXEVgkmIijqWrp58MXtPP9+CYoC/++qcSz7ySQMei1DZCanVxJQetHt8aDTaEbk/Wc6nE5KrFZ+dMIJI/L9C3HUdIp/yXByM1icwa5GjEDfFbXy7LslrPy8mnCLgbuuGc9V8zPIT48Mdmn9JgGlF91e/wiKbgSOoHS4nFS0tXJ+/rhglyLE8KP3wsRSCSYiKOpaHCx7/nuee68UVVV54MbJLL12wpDrL+kPCSi96HbvCSiakRdQ3tqxg7HxCeTGBm/9uxDDjtHjHzEZ1Sqrc8Qxt7nAyrPvlvDulzXEhJt44MZJXDkvk+yU4btNhASUXjg87hHbJPufHds5NTMz2GUIMXzEtEN+RbCrECOMqkJts4P7ntvG86tK0Wo1PHLLNH51ef6Q7y/pDwkovej2eNFpNCNuBKW4pYXv6mr5f6edHuxShBj6Iuz+1TlRncGuRIwwm3a28M93i1m9qY7EmBAeuXkaV8xLJ21UaLBLGzASUHrh8LpHZA/K5xXlhBqNjImPD3YpQgxdGhXS6yGlOdiViBFEUVSqmx3c++w2XvmwHHOIjj/dMo0l5+cGfdfXwSABpReBHpQRNMXjVRTWl5WSFhlFetTQXRsvRNBoFYiX1Tni2PtyezPPvFvMms0NpCZYeOJ/TuDS09NIij1+7zQvAaUXDo8HnWZkNck63G62N9Rzzpj8EX0PIiEOoFH94WR8mX/TNSGOAa9PpbrRzr3PbeO1tRUkRofwu5umcvWZGRj0x/+1SQJKL/w7yWpG1BRPY1cXpVYrF44fH+xShBg6DF5/n4mszhHH0Ofbmnjmv8Ws29JIVnIYz955MufOSiE+KiTYpR0zElB64fC49+wkO3KmeFYXFZAUEcGJqaODXYoQwadR/c2v+eUwcv4zIILI41WoarTz22e38danVWQnh/HordO59LS047LH5FAkoPTCMQL3QVnx/ffMzpDlxUIQbofRTRDZKeFkIKnQ3O4kzGzAbOp5I1a3R6HD4SEu0hSk4qDD7sGg1x5Q27Hw6ZZGnvlvMZ9tayI/PYJX753N/BMSiQ43HvNahoqRc/U9THaPG71m5KziKbFa+bKqkjOys4NdihDBo/NBWj1MKoHoDtDK/XMGgqKqbNzRzMTr3yN/8bskXfQWN/xhI22d7sBz3ttYy0sflB3yWE1tTiIWvE5xdceA1/lNgZV7n9uGeoy+7S6PQklNJ1fc9zln/+8nFNd08rdfncSHj85j0RlpIzqcgASUXu29WeBIWcWzsbKCUIOR/PhRwS5FiGNPq/h7TCaV+EdOxID6bGsTl9/3OUuvm8B3z53DhqfOwquo3Pp/XwPgdPv4x8oiLpideshjKaqKijooIWJKXgwffV3PtpK2gT/4ftZ+28D1D33Bqbd+hL3by8rfn8YnT8zngtmpw3Jb+sHQ7ymerq4uioqKmDBhAnq9HpvNhk6nIzJy+Nx46HB0e0bOFI+iqqwrKyXKHEJWTEywyxHi2NGo/ibY3CqI6gp2Ncclr0/liTcLOOfkFK6anxF4/P4bJnHarR+zraSN3ZXtAGQmhnHDwxvJSAzltTWVGPQaXrl3NhOzDn5X9W6Xj2XPf8+/Pi4nMymMx//nBKbmxuDy+PjdSzt4YXUpcyYlEBlq4EfnZDNjnP/2HYqi8su/fktmUhgrPq2ktK6LZ+86mXNnpnDhnFT+8U4Rf79jxoDvxup0+6hucvCbp7ewelMdJ4yJYfnSmSw4KXlgT3Sc6NfV1263c+WVV3LJJZfQ1dXF66+/zpw5c5g7dy4ff/zxYNcYFA733q3uj/+A0u3xsL2hnrPHjCXKfPyuqReiB4PXv9nalCIJJ4PI6fbRbHNy+dz0Ho+PijaTHGdmS1Ermwus5KaGo9NpWL+lkbYuDy/fcwpTcmP407924lMOHC5RgZ/9+SuKqjt475EzuG5hFqfd+hEFle089XYhuyra+e8fTmfO5AReWF1Gp8PT47VldV08v6qEP/18Og/cMJnfPrMVgKm5MXxfasPh8g7o5/DR1/UsfvALZt/yIagq7z9yBqv+NFfCSR/6dfUtKipiw4YNvPLKK4SHh/PAAw8wf/58Zs2axcUXX4zL5RrsOo85/z4oGvTHww0NbjjfFwAAIABJREFUDqHd6aSkpYVLJ0wMdilCDD6t4l+dM63AvxOsYWAvRKInVVVRVA5YEanRgEajweNT+GpnCzmp4QBEhRv5+cV5TB8Tw/VnZ9HW6T5oQOl0eHh9bSW3XTqGyTnR3HheDqMTQvl6t5XHXt/NdQuymJoXw88uzCUx5uBLc392YR4zx8dx5omJtO7ph8lKDqOr24PTdfRLyu1OL7sq2rl46Xouu+czuhxeXr9/DiseOo3Tp44i1CzrVPrSr0/H4/GgKApjxozh1VdfRaPR8NBDD1FaWsozzzxDTU0N2cdRc6Wqqri8Xgw6HdoRMIKycucOwkwmTs3MCnYpQgyuMAekNUCk3R9UxKALMeqIizTxzhf/n737jm+zvBo+/tOWbcl7xytxFmSROIuEbEKAMkOAQoAySoEWnhZoGZ3wwFPelpYWWsooEFpGgACBACEJkDCyyd7Le29Zlq153/f7xy0nDoRgJ5I1fH0/+CNZlqWLJLaOznXOuaqYMfZYjVujzU1ds5Mxg5NRlJKjzVImgw69Tv29qzlJLYbXpwAK5m4dNykJJlweCZdHxqDv+l4NJ4hvAEiwGPz3OPY8Bp0WrUaD5jTenDrdEh+ur+Klj4rZtK+JC88ewMonZjO6MIk4swhKeqpHf1I5OTmkpKRw9913s2zZMm655RYsFgv19fUoioLJFLq2sGCQFAWfLGM1R9f/14lIiszrO7Zzdl4+Zr34wRGilMEHmU2QVx/qlfQ7Br2WH180mDv+upnLp+UyenASbo/Ev949yLC8eCaekUJOeiyHq3p34GKS1cjgnHg+3ljD6MIkiqvb2bC3kUdvHcNFUwaw6utaJo9I5esDLTS09vxYgtI6BwkWA3Hm3rcat9g9rN/TwGOv7OVgpZ0ZZ2Xwyd/OpWiYqO07FT16RcrKymLRokU888wz3HDDDTz44INs3LiRu+66iylTppCZmRnsdfYpSZbxyTJxhuhv8TrY2MjmqkqeuWx+qJciCIGnUSCtVd3KiRFn54TKBZOz+X+3j+XnT21Br9XQ4fIxJCeef90zEYBLzsnhPx+X4JOU4zpYTpbD0Grg/cdmcNvjmzjvns9wdHr50+1jmTIyjWF58fz0r5uZ84tPyU2PY3h+PFrNtx9Xd4Ln2nWklYGZFkzGngcoTW1u3vi0jBc/OkJpjYNbLhrMM7+cxNBcK+ZePI5wvB4FKBqNhhkzZjB69Gi0Wi1Wq5WysjKuvvpqfvOb36CPsnfekiIjyTKx/eA8mnVlZZh0OsYOGBDqpQhC4GgUMHlgYA0kB35ehtA7Br2W6+cN5LrzBlLV2EGS1YSlW/3Fgpn5/OPtg1TUd/DV0+cdvX3m2Axmjj1+9EFmcgztK3949PNP/34uja0uEixGjAZ1a6i42sGvrx/JyEGJtNg9FN2ynJRuA+C0Wg0f/Gnm0c/zM+Moe/ty7B1eln5ZybO/mtSj/6+aJifvfVXJP945iKPTy/wZeXz051lkp8b27g9IOKEeRRZut5uf/exnbN26Fa1WS2ZmJpMnT2b27NlIUvSdTSHJ6hZPbJRnUHyyzJriI+QnJXFmuph/IkQJvU+dZZLWKgpgw4xGA7npcd+63WTQctulQ/hwfRX/s2B4rx83Len4Ili9XsNP/ryJ9CQT1U1Orpqdz/D87x+JsfVgC7OLMhk35ORbMlWNnTzz3iHeWl0OCtx5xTAunppDfmZcv5md1Rd6FKCUlJSwdOlSFixYwLBhw/jiiy9YsmQJzz77LE1NTTQ1NWG1WoO91qNkRf2HHqwR1JIiIykyscbozqB4JB87amu49qyxov5EiHw6WR1RP7gSTN7vv78QVq47byDOAHTOAEw6I5XPnjyXQ5V2BqTFkpPWs4zGpDNTmDoq7YSvLT5JpqTGwX9XlPDKylLMRh23XTKEX1x1Rr88J6cv9KqL56GHHiIrK4u7774bu91OQ0MD9fX1xMb2bTrLI/nQabTHVV4HUlcNSrRnUHbV1lJtt3Nj0YRQL0UQTk+sCwpqIMEhxtNHKINei0EfuK7JJKvx6GC2nor9jg6b7YdbeOKN/azeVkd+poXHbhvL7KIMMpPF3Khg6lGAkpuby6BBg1i+fDk33XQTWq2WhIQEEhISGDJkSLDX+C0eSUKrDVZ4om7x9IcalP9s28pZ2dnkROk0YKEfMHohvQXy60K9EiHKOJw+dhW38sIHR1i2ror8jDj+/NNxXDUrP6CBlPDdehSg2O123G43v/rVr6ivr+faa68lPz//tPrET4fbp2ZQgrnF45NlYo3Rm0FpdTp5ffs2fnHOtFAvRRB6T6NAqk1tGzZ5vv/+gtALH2+s4f+9tpcD5W1MGZnGGw+dw4QzUkmIi+43reGmRwGKxWJhzpw57Nixg1deeYXHH38ci8XCzJkzmTRpErfddhuGPsw2uH0SOq0miFs80Z9B+bqqEpfPx/SB0TNgT+gnYl2QWwepbaFeiRBFmu1uvt7fzFNLDrLlYBPTxqTz+h/OYeZZGehEjUlI9ChASUlJ4cknn8TtdmOz2WhpaaG8vJy1a9fy5ptvctNNN/VpgOI9WoMSHD5ZxivLWKJsAF0XBVhTXIxJr2dUlM2wEaKYXoLcetGdIwSULCu8/HExTy89RFVDJ1fMyONv/1NEQVYcJoOYYRJKPW7daGpq4uOPP2bv3r2kp6czYsQI7rvvPh599NFgru+E3JKaQQlWhOKTJXySRHyUBiiSLLOpopwrR48m3WIJ9XIE4eS6unMGVUNM9J37JfQ9RVGoanSyZlsdTy45QLPdzUVTcvjJg4MZXZgU6uUJfj0KUFwuF5dddhm7d+9m3rx5rFu3jt/85jfMnDmT999/H2Mf12p4fMHt4unKoFhNJz5gKtK5fT521tXy6LzzQ70UQTg5kwcKq0R3jhAwjTYXz7x3mP+uKKHN4eEXVw3nR+cXkpkSI9qFw0yPApRDhw6xd+9eXnvtNS666CIURWH37t3cdNNN3HbbbSxatCjY6zxOVwYlqFs8UZxBeX3HdjItVqbkF4R6KYJwYkavupVTUBvqlQhRQJYVDlXaeXN1Of/5uIS4GD3XzxvIzRcWkpvx7cFxQnjo8SRZWZYpKioC1NH3o0eP5qGHHmLBggX87W9/IzExMagL7U6WZbWDKFhbPJKaQYk3R2cG5YWvN3N2fn6olyEIJ5ZqU2eaGEWdiXD6DlfZ+cvi/Sz9spKEOAMP3zKGCyZnk2w1HnfujxB+enyacWxsLEuWLOHOO+9Eq1V7wI1GI7Is09bW1qcBSrD5ZBmfJGGNwgzKvoZ6tlRV8svpM0K9FEE4XpwTBjRAmi3UKxEinCwrbDnYzKLlxSzfUENeRhx/vO0srjm3gLjvGMYmhJ8e/U1lZmby0EMPcc8993Do0CHuvPNOHA4Hf/3rX0lJSSE7OzvY6+xTPllSMyhRGKBsqaxEp9UyJiu6/s6ECKbzd+dktKidOoJwGjbta+LhRbtZt6uBs4Ym8d/fTmHc0GSssdE7NiJanTRAkWUZrVaLRqPhtttuA2DRokXMnj0bl8vF8OHDWbVqVZ+2GPcFh8eDSafHoIu+FrNPjhxmSl4+Q1JSQr0Uob/TyWrxa14txLlCvRohgrV3evliRwOLlhfz9f4mRg1K5NXfT+XiqTmhXppwGk4aoDz66KOUlZXx7LPP4nA4+MlPfsLChQtxOp3IsozFYiEuLvoKjNpd7qjc3lGAbTXV/Hrm7JBNARYEQD3Mb3ClGqBoRHeOcOre/aKCB5/bTmVDJ5dPz+WDP81ieF48JmP0vcHsb04aoAwfPpzS0lKqqqqYNWsWer2ecePGMWrUKIYPH05hYSF5eXmkpaX11Xr7RJvbRbw5+gKU7dXVtLlczB85KtRLEfqrru6c3Ho1gyIIp6CmycmKTdX85+MSSms7mF2UwcuXDOXskb07HFAIbycNUK666irmz5+PVqtl+/btHDhwgFWrVrFs2TIeffRRjEYjJpOJsrIyrFZrX6056OwuF1Zj9AUoz23eSNGAHGKibEtOiBBJdnWmidEbtA48Ifo9ueQA//ff3cgy/Pjiwbz2h3PISo4R4+ij0EkDFJ/Ph8vlorm5mXvvvZennnqKhx56iIceegibzca+ffvYvXs3pj7eDgl2QtjudmGNshZjm9PJkl07+c3sOaFeitDfWDohu0nNnAhCLykKHKy08+H6Kl5eXgIo3LVgOFfPzmdobnyolycE0UkDlOLiYi688EK0Wi3l5eXceuutZGZmotVqSUxMRK/X8/bbb7Nw4cI+nSYrKbJ/imxwIma7yx11HTybqyqxOZ2cUzAw1EsR+gutrG7lZDep1wWhlxptLh55eTf/WVFCfJyBB68bwY0XFhJj0oskXD9w0gAlMzOTu+++m/Xr11NZWcm1116LVqtl1KhRjBw5ko6ODlavXo3T6cTSh2e6SLKCVhO8SbJ2tyvqimRXHznC4JRURmdmhXopQrTTypDUDjn1YHGGejVChHG6JTbta+LVVaV8sK6K4XnxPP7TcVw8NYeslJhQL0/oQycNUBISErjzzjuZO3cuq1atYs2aNVitVlasWMHSpUtZtWoVl19+OampfVuY5OuaJBskdrcr6jIoq4sPc/e06aL+RAguoxeGVEJCu6gzEXrtq50N/PaFHazf3UjRsBTefmQaZ49MQ6/ThnppQgj0aFDb0KFD2bNnD4mJiZjNZm6//XZuv/32o3NS+pokywRzQrHd5SbbmhC8J+hjO2trqG1v59qzxoZ6KUK0MnohvVWdBCuGrQm90Ghz88nXNbz8cQkHKuzMHpfBr68fxYyz0jGLVuF+rUfRhUajYcmSJaSmpjJ06FAeeeQRDh48SH19Pddffz12uz3Y6zxOVw1KsGKU9ijb4nly3VrOyh5AQpQV/gphIr4DxhyG/FoRnAg95vJI/GvpQUbd8AHXPbKOQdkWtr94IYsenMK8iVkiOBF6lkE5fPgwDz/8MFdddRUHDhzg6aef5qmnnsLhcKDT6Xj88ceJj++7amo1g6KBIG3z2FzRMwel2t7GO7t38ch554d6KUK0sTghq1HNnAhCD+0qtvHGp6V8sL4ajUbDLRcN5pq5BYwcGD3nuQmB0aMApbGxEbfbzVNPPcXXX3/NU089xeLFi5k/fz6XXnopmZmZwV7ncYJdg9La2UmiOTqKsbZUVdHh8TBjUGGolyJEC40COQ2QVxfqlQgRQlHA5vDwq6e38tLyYgakxvK7G0dxw/mDRKZE+E49ClAsFgt6vZ4jR44wdOhQGhoaAPjlL3/J+eefz7XXXtung9qC3cXT4nSSFBsdAcqKgweYkJvHiPT0UC9FiHQaBVLaILsRrJ2hXo0QATpdPj7f0cDiT0pZs72ekQMTWfyHczh3QhYp8dGRpRaCp0cByrBhw0hNTeXaa69lw4YNVFZW4nA4jh4SWFtb26cBik+Rg7W7g9vno9PrJcEU+fUaiqLwRWkJv5szF30UHnwo9CGTFwor1fZhQfgePknmy50N3Pevbew8YuOc0Wks+V+1I0cQeqpHAUpLSwv33XcfBw8eRKPRMHfuXObMmYPH4yE7O5vs7Oxgr/M4XTUowYhRbC4nBq0Wo65HfzRhbeXhQ3R6vFxyxpmhXooQqYxeSG+BrCYw+kK9GiHM1TQ5WbauktdWlXGwws78Gbn87a7xjB+eQoxJvEkSeqdHr8JNTU3cf//9rFixgvj4eJ544glef/116uvruffee/t0SBuoAYqG4BTJtjqdGHU6jPrI/mFSFIWnN6xjfI44e0c4BRpFLYIdWg5mT6hXI4QxWVFwdPp4ftlh/vbWfhxOH7f8YDAf/mkmCZa+mzAuRJ8eBSiDBw9m8uTJLF68mKKiIhISErjjjjuCvbbv5Ovq4gkCm9OJQafDGOFbIkdamvnsyBGeuuSyoP1ZCVEqzgkDGsXZOcL32nKghVdXlvDRxmriYw388pozuejsHIbkRs/hsULo9ChAqaurw2g08ve//x2AX/ziFyQnJ2Mymfr0DJ4ukqKgCdYWj9PlD1Aie4tnW3UVkiwzfaA4e0foIa2sbuUU1IZ6JUIY83hlDlXa+dPre3lnTQWJViOP3XYWP7pAdAoKgdWjV+Hk5GRmzZpFfHw8n332Gc8++yyDBg1i4MCBDBw4kL/85S99eqKxJAUxg+JyYtBGfgblw/37mTt0KENTRVGa0AOpNtGdI3yvd7+o5MWPjrC72EbRsGRe/f1UZo3LJMkqtnKEwOtRgJKQkMDPf/5zZFnG4/Fgt9vZvHkzK1euZNmyZTz22GN9G6AoctBajFu7tngiuAbFI0l8WVrCM5dfEeqlCOHO7IGCGrV9WBC+QVYUOpw+Pt9ez+9e2ElJjYOZYzNY+th0ioamhHp5QpTr8T5GSUkJjz/+OMXFxYwcOZI77riDgoICnnzyyT4/j6erBiUYSRS1BiWyu3gW79yOSa9nlhjOJnwXgw8ymyGjWW0hFoRvqGzo5LVVpbz9eTlNbW7mT8/jhfsLKBqWErQxD4LQXY9ehe12OxdccAEGg4EJEyawZcsW9u/fz4033sjHH3/MpEmTgr3O40hK1yTZIHbxROgWjyTLPL9pE+MH5ETs/4MQRBpF3cYprIJYV6hXI4QZn6TQYnfz3PuH+cvifVjjDPzo/EHcecUwslKiY3ilEDl6fBZPfX09GzZswGazcf/99zN9+nRuvPFGFixYwKFDh4iJ6bt/vD5Rg/Kd9jXUs6u2hjsmn40uBCdNC2Es1gU59ZDapgYqguAnywqb9jXxnxWlrNhYTWZKDH//+XhmjcsgP8MiMiZCSPQoQOk69yYmJgabzQaA2Wzmyiuv5J///Cd1dXUM7MNuEcl/Fk9wungiu814a3U1MjBj0KBQL0UIF3pJHbaWX6d26giCn8PpY19ZG399Yx+ffF1L4QArj90+lmvOLQj10gShZwHKoEGDyMrK4pFHHuG66647enttbS2yLJOQkBC0BZ6IT5aDMrpdVhTaPW5iDAYMERqgvLd3D1eMHEVugjgZVEAtfh3QILpzhON0uHws/bKS598/zN5SG/MmZbPkf6dTNDyZRDFcTQgTPQpQEhMTWbp0KfPmzePll18mJyeH3/3udyxevJirr76a5OTkYK/zOD5FxoAu4Cca+yQJt08iqQ+3qwKpxm7nq9JS3v/RjaFeihBqMW7IrYM0W6hXIoQJRYFGm4uVm2v5+1v7qWroZFZRJv+4ewJjBieFenmC8C09blUZPnw469at49NPP2XPnj00NDTw29/+luuvvz6Y6zshKUiTZL2yjNvnIzkpMn9Y/7F+HQXJSYzNHhDqpQihopPUKbDpLaI7RzjqSHU7i5YXs/SLSrySzPXnDWLBzDyG5lrR60WtmhCeehygOJ1OqqurAZg7dy6FhYXk5+cfPdG4LwWrSNYrS2qAEhMb8McOtgaHg5e2bOa6sUXi7J3+SKNAgkOdAhvnDPVqhDDgcPoorm7nuWWHeW1VKemJZm7+QSG3XzZUDFYTIkKPAhSPx8Mtt9zCe++9R0FBATabDUmSWLhwIY8//ji6Pq7X8CnBKZL1STJuyUdqXOQFKLvqarG7XFw+YoQ4e6e/iXVBbj0k20URrECny8fSryp5eXkJu4tbGTcshZd/PYWzR6aRmWwO9fIEocd63Ga8YsUKnnzySX784x8jSRLLli3jZz/7GTk5Odxzzz3BXudxgnVYoFdSMyipsXEBf+xge3v3Ls7KzuacAnH2Tr+h96k1Jnl1aqeO0G8pClQ2dLB8QzVPLz1Ek83N9DHpvPm/05g+Jj3g9XqC0Bd6FKA4nU4kSeK8885Do9Gg1+uZP38+drudO++8kzvuuKNP56BIRyfJBvaHzitLuHw+UuIiK0Bpd7v5YP8+Hr/wolAvRegryXY1a2IR3Tn93c4jrTy37DAfb6jB7ZW4/dIhXD2ngIIsCyaDqC8RIlePApTs7GwyMzNZs2YNN9xww9HR9oMHD8bj8VBTU0NhYd+NVffJclDeEXgltUg2NcIClFe3byPGYOD8ocNCvRQh2GJckOMvghX6rZZ2D1sPNrPoo2I+21pHVkoMP79yGDf/YDDxcaIGTYgOPQpQvF4vkiRxzz33UFdXx6233oper+e1117DYDCQlZUV7HUexyfLaIMwpq1riyclNnJqUNrdbp7ZuJ7JefnEm8X+ctTSKOoU2MwWMIrunP5KlhWeee8Qz7x3mKrGDmaPy+SV306laHgyKfF9d2CrIPSFHgUosbGxzJkzh7179/LSSy/xxz/+kfb2dgDuvfdedu3aRUZGBhkZGcT2wYu7Okk28CfxdG3xRFINyoHGBsptNh6eOw+9GG0ffTQKJLZDntjO6a/cXonSGoc6WG3ZEWRFYdbYDJ6/bxJTRqaFenmCEDQ9ClDS0tJ47rnncDqdtLa20tLSwqFDh1i7di2ffPIJzz77LElJSdxzzz3cfffdwV5z0Ipk3T4JT4RlUFYcPEh6nEVs70QjsxsG1qjtwzrRndMffbWrgaeWHOCrXQ3EmfX8bP5QrpyVT256LFqtKHwVotv3Big1NTW88847fPbZZ9TW1lJYWMj48eO5+OKLufzyy9FoNDQ3N7N161YSE/tmvHqwimSbOzuJN5sj5pA9t8/HO3t2ccuECWL2STQx+CDVBjkNYjunH6ptdrJ5fzP/XnaYtbsbGDUwiYdvHsOCmXmkJIhtHKH/OGmAUlNTw6WXXsrhw4eZP38+Y8aM4ciRIzz66KP85S9/4YEHHuCuu+4iJSWF8847r6/WjE9WglIk29TRQXIEZU8+OXyYeoeDq0efFeqlCIGS2C6GrfVTjTYXz71/mBc/LKa2uZPLp+fx5T/PoyDTIgpfhX7ppAHKq6++Sn19PV9++SWjR48+entNTQ2PPvoojz32GJMnT2bixIlBX2gXSZZRFCUo9RZNHY6ImSLrkST+/fVGRmdlkWG1hno5wumKcakj6jNEd05/4nRL7CmxsWRNOW+tKceg0zJ3QiY/uWQI44enhHp5ghBSJw1Q1q9fz/33339ccAJq2/FTTz2FoigsXLiQw4cPB3WR3UmKgoKCMQjTa5s6O0iOkIMCS1ta2FRRwR/OnUus2N6JbDn1kN2kbu0I/cZHG6p57JW97C21kZFs5sHrRnLJOTmkJZrQ6yJjm1kQgumkAYrT6cT6He/O9Xo9F110ES+88AK1tbV91mqsZlDAEIQApbGjg6QI2eLZWFGOrChcfMaIUC9FOFXJdjU4sYrunP5AlhXK6zr4alcDL3xwhJ3FrYwbmsyTPx/PlbPyiTH17ZEhghDuThqgTJgwgQ8//JAbbrjhhF/PyMhAq9XS0NDQtwFKsDIoHR2kWSwBf9xgeG3HNhaMGk1OQkKolyL0lskDhdVqd444O6dfKK118OSSAyxZU46j08f8GXk8+YvxDMuNJ9bc4zNbBaFfOelPxvTp0/nb3/7G008/zW233YZef/zdt2/fjs/nIycnJ6iL7M6nyMiKEpQMSlNHB8PS0gP+uIG2rbqazZWV/O/ceaFeitAbeh+kt0J2I5hEd060czh9bDnQzH9XlvDO5xXkpMVyw7xB/PDcAkYXJiGOxxGEkztpgDJnzhzuvPNO7r33Xt577z0effRRxo0bh8/nY/HixTzwwAPccccdJCcn99V6kWQFBYKSQanvcJASAScZv7RlM4UpKRERTAl+CQ4YVK2ePCxENY9PZsmach5/fR+HKu3kpsXyj7sncMnUHOJjDWJ+iSD00EkDFJ1Oxx//+EcKCwv597//zZw5c+jo6ADU6bJXXHEFf/7zn/v0pMyuLh6DLvBp0Vq7nYy48N7iqWyz8eH+/fyoqIhEc2QU9PZrsS61ADatBbRKqFcjBImiwL6yNj5cX8Wbn5VT2djBlJFp/PqGkfxg8gDiYsQ2jiD01vf+1Oh0Om699VYWLlxIZ2cnZWVl6PV6cnNzSUhIwNDHHSRdRbLGALcZO71e2t3usJ+DsrGinGp7G9eNLRIp4nA3oFEtgtVLoV6JEERHqtv530W7eO+rKtxeiZsuLOTNq6eRnxmHUZwmLAinrEdhvUajIS4ujri4ONLSQnv2g6SoRbKBrkFp6HBg1OmINRgD+riBtmjLFm4sGs+Q1NRQL0X4Lsl2GNAA8R2hXokQJE1tbtbtauSVlSV8vLGaYXnx3HvNmVw1M48zCkThuiAEQsTlHX2yom7x6AMboDQ6HBh1+rAeGb++vJyNFeV8cdtPQ70U4UQMPhhcCUnt6iF/QtRxOH289NERnnr7IBX1HQzPj+c/v53KD84egNmoE1lNQQigiAtQ1AwKGLWBzqB0YNTrwnbomVeS+NeGdYzIyCC/j848EnpIJ0Fms/ph9oR6NUKAyQqs3dXAW6vL+XhjNR0uH7PHZfK3u4qYOTYDa2x4/s4QhEgXeQHK0SLZYGRQdGGbQalqa+PL0lIenDWbeLM51MsRulg7YGiFCEyi1Ifrq/n9izvZXWxDkmR+e+MofnPDSAw6rejGEYQgi8AARVGLZINQg2IK4y2ez0uK0eu0LBg1+vvvLARfrEudZ5JqA50YthYtJFlhT4mN5RuqeffLSoqr2pk8MpU750/igsnZZKWIzjlB6CsRGKDIyMEoknWoWzzhGqA8v2kjNxZNIC0uLtRLETKboaBGBCZRZk+JjYde2sX7ayvRajVcc24Br/1+KkNy4kVtiSCEQMQFKD5F3eIJdAal8WgXT/gFKB8d2E9ZayvXjDkr1Evp35LtatYkwRHqlQgBUlHfweqtdbz+aRlrttUzeUQKT9w1nrnjMxmWlyACE0EIoYgLUI7OQQlggCIrCq3OTuKMRkz68Poj8UoSz23ayKisLPJEcWxo6GS1OyfVFuqVCAGgKNBoc/HXN/bz9LsHcbolZo7L4Mt/nsfZI0X7viCEi/B6Ne4BX9dhgQEMJLySRKfHS5Y1PmCPGSilib1aAAAgAElEQVQVNhtbq6t45vL5YRc8RT2NomZMRHdOVLC1e1i9rY4layr4Ykc9qYkmfn7lcC6dlsu4oUnodWKomiCEk4h7xevq4glkBsUrSXR4PQwL8RC6E1m6dw+5CYlccsaIUC+lf7F0wrByEZhEOEVR8PoUFi0v5g8v7qTZ7ubMggSeuKuIK2bkYdCLoEQQwlXEBSg+WUYmsFs8Hjk8Myh2l4tFW7/mvukzQ72U/iPGrY6nT7aLEfURzOOVWb+nkXc+r2Dl5hrcXplLp+Vy9ex8po5Kw2QM/GGjgiAEVsQFKMcyKIHd4unweMhJCK8R1R/s30eH283MQYWhXkr00yqQ1qp254jAJCIpCri8El/uqOfRl/ewaX8T6Ulm7r7qDH56+VBiTCIoEYRIEnEBii8IWzxun0S7283glPApkOv0enl1x3bmDB7KgDALnKJOkh1yxNk5kWx3sY0la8pZvrGamiYns8ZlcM8PpzF1dBrpiWKwoSBEoogLUCRZUUfdB3KLR/Lh8LgpTEkJ2GOerkqbjZ01NfzfjfPQB/jkZsFPJ8GgGkhvCfVKhFPg8khU1HfwyMu7eeOzMuJiDNx84SDuWziCzGQxUE0QIl3EBShH56AE8LDAdrcbDRoyrNaAPebpemX7Vqbk5zNuQE6olxKdBjSI7pwIVd3UyftfVbFkTTk7j7QyeUQqi349hWmj08nPFIMMBSFaRFyAIskysqJgCGANSnmrjZzEBMJlJlNDRwcvb93CS1dcFeqlRBeNAhYnDKlQi2GFiOHxytQ0d/LCB8W8+NER3B6JueOzWPW3OYwfFj6ZT0EQAifiAhR1DgqYArjFU9rSTH5iUsAe73QoisLzmzaSaDYzbsCAUC8nepg8kF8LSe2iCDaCKAq880UFi5YXs+1gCwWZcfzm+pHMLspkSI5VtAkLQhSLuAAlGHNQSltbwmZKa3NnJ2/s3MEdk6eQKs7dOX06GVJsUFALBl+oVyP0gE+SaW338v5XlTy+eB/1LU5GD07i3/dN5qKpImgXhP4i4gKUYHTxlLa2Mik3L2CPdzpWHT6EXqvl+rHjQr2UyJfYDrn1YO1Ut3eEsOaTFNbtbuD1T8pYvbUOrVbDgll5zJ+ex5jCRPQiWyII/UrEBSheSUKn1aILYGdLaUszV44aHbDHO1Uur5fHv/icG8YVEW8WrZGnzOhVA5OMFhGYRIBmu5sNe5p46u0DbNrXxNDceH517Zlcc24B1tjwO7xTEIS+EXEBilvyEWswBvQxK9vaSAuD7ZQ3d+2k3tHOpWeKsfanTHTnRIy9ZW289VkZ731VSW2LiwUz8vjDjaMYWZhEQpwITAShv4u8AMUnEWMI3C+vFmcnsiyHPGPh8Lj59+ZNXDX6rLCaxxIRurpzBlWrZ+gIYUmWFVodHvaVtvGvpYf4eGMNyfFGbrywkLuuGEaSNbBvPARBiGwRGKD4iDEEbtk1djsmvZ54U2gDlC1VVVTb7bw9c1ZI1xFxDF512Fqi6M4JZ/vL7by2qoSPNlTT0Opi7vgs3nz4HM4amkxGktjOFATh2yIvQJF8xARwi6fWH6AkmE0Be8ze8koSj3/xOZeeeSaZYTQsLqzpJEhtU1uHRXdOWGpqc7O7xMZLHx7h4001pCeauWJGHjf9oJBB2ZZQL08QhDAXcQGKxycRG8Atnsq2Nsx6fUi3eD4vKWZ9RTm/P3duyNYQURLaoaAO4pyiCDYMFde088qKUt79soKaJicXTM7mzYenMXJQIumJZjThMhFREISwFnEBirrFE7gApay1hRiDEasxNBkUjyTxwtebGT8ghzFZ2SFZQ8QweSC7CTKb1NOHhbCgKGonzsGKNp5fdoQP1lWRnmhmwaw8brloMAOzRLZEEITei7wARQp0gNJKfmJiQNuWe6PGbufL0hLevu4GzPqI++voO9mNanBiEt054aS4xsErK0p476tKapo6mTshmzcensaYwiQykkVtiSAIpy7iXhHdPl/Atng8kkRzRwdDUtMC8nin4s9frGFibh5T8wtCtoawpVHUrpyCWojvCPVqBL9Gm5tdxa28uqqUlZtqSI43cfHUAfzogkKG58WHenmCIESJfh2guH0+WpxOBqeGpq13d20tb+zcwaIrrw7J84c1nQyFleLsnDBS09TJix8W8/qnZTS2upg7IYv//nYqowsTSU0wodWK4hJBEAIn8gKUAG7xuH0+Wp2dDElJDcjj9YasKLy2YzsZVitTC0T25Kiu7py8WjCK7pxQa7K5OVhpZ9FHR3j3y0qyU2O4fFoO188bxBkFCaFeniAIUSzyAhSfj0RzbGAeS5JodToZktr3AUqHx8O7e3fz4Kw5pMaGfoptWLB2wOAqMLtFEWyIVTV28p+PS3jjszIq6juYNzGbJY9MY3RhEmmJorZEEITgi8gAJVBbPE6vF4fbTX5iUkAerzf+vvYr4k1mbioa3+fPHXbMHshqgoxmdWtHCImmNjc7Drfy5uoyVm6qIdFi5IJJ2Vw/bxCjCsPjtG9BEPqPiAtQXF6JWGNgApSy1hbS4ix93sGzp76Ov371BU9dclmfPm9YymqCnAb1gD8hJJrb3Dy/7DAvLS+muc3NzLEZvPjA2YwdkkxyvFHUlgiCEBKRF6D4vMQFaGbJvvp6chL79p2hrCgs2rKFDKuV84YO7dPnDhtd3Tl59eqIeqHPNdvd7Ctt49VV6kC1rJQYFszI5+o5+Zw1pO8zioIghBEdYFDAABhDt90eeQGKFLgtnr319eQm9G2hX1NHB6/v2MY/L72cTEs/HWs/pBKS28R2Tgg0tbl58cMj/OfjEirqO5hdlMniP0xj7NAkUuJDd9yDIAghFKOARYE4Wb00otYB6lA/QiTiAhS3z0ecMTBn8eypr+vT+SNeSeLuD5dxVlY2V4wc1WfPGxZ0MqTaIK9ObOf0seY2N9sOtfDuFxWs2FxLfKyBCyZnc+3cAoqGiZOzBSGqaVBf6btnRMyKGpSYFYhVIDRzSr9XxAUoLq+PuADVoGypquRHfVikuraslHf37GbJwuv77DnDQpwThpeBySvOzulDbQ4P//7gCM8tO0xDi4tzxqTx7C8nMvGMVBLiDKK2RBCikY5jmRCLAnH+TIjWH4iEaTByIhEXoKhdPKefQSlpaQFgQHzfTL6UFYWnN2ygaEAOMwcV9slzhpzZDVnNojunD9kcHrYfauWt1WV8sL6a1AQTV8zMY/70XIqGpaATQYkgRDYtajbE2HWpQAzHMiImRc2aRIGIC1BcAdriOdTYgNlgIN3SNweZbams5LPiw6y/404spn6w15/RrI6oF1Ng+0R7p5d/f3CEZ987TFVjB+eMTuelB85m8ohUrLF6NOIIYUGITCblWDbE6g9CtP4gREvUBCMnEpEBSiAyKAcbG4nR60mLC36AYne5uOuD97hi5CjOSE8P+vOFjEYBayfk+LtzovgHJ9QUBWqbnWze38T7X1WyZns9SVYjP5gygKtn5zN5RN8PHxQE4RQYOJYJMaAGIEdrRAB9/90Wj7gAxe3zBqQG5WBTkz+DEvwprisOHWRbdTV/v/jSoD9XSBVWQlobaMV2TjAdrmrnX0sP8ubqcuwOL3PGZ/LSA2cz8cxUYk06UVsiCOFKi1qUalHAKqsZEb0/G9KVERGOiqgARZJlvJJEzGlmULySRLW9jYKkpIBkY77P0xvW86Oi8UzOzQv6c/W5ru6cnHp1IqwQcIqicLDCzufb6/lwfTXbDrUweICVO+cP4+IpOYwYmCCCEkEIBxrUTIjRXyNi9GdBzN3qQ0QQ0mMRFaC0u93odTr0pzn51S1J1Le3M61gYIBW9t1e276NClsrn/z4J9FXB2B2w5mlamAiunOCYt2uBv7yxn5WfV2LVgPXzh3IX+8soiArDqNeR7T9kxKEiKLnWCbEKh9r2dV0+xBOWUQFKC1OJya9/rQ7ETw+H3WOdibk5gZoZSdW227nwRUf86OiIoy6EE67CbSus3PSW0QRbIApCmza18SKTTV8vKmG4up2zh6Ryj9+MYFzx2eSlyEOlhSEPqNDzXoYFTD5r5u6siGEdMpqfxBRAUqrsxOTTo9Wc7oZFB/17e1MyAlugPLmzp1Uttm4YVwUHQiY1gqDK8Vpw0Hw+idlPP76XvaWtaHXabh/4QjuveYMYoynH5QLgtADMQrEd2VEvtGyK34E+1yEBShOzHo9utPMax9obMSo0zMwOTlAK/u2Fmcnz23eyF9/cDFDUiO8o0KjQHwHDGj0d+eI4CQQbA4PG/Y08sG6aj7ZUovPJzN1VDq/v2k0M8emk2TtB+3ogtBXNKjdMl2Zj+6ZkK7MSBQluqNBRAUoLZ2dAdni+bKkOOjtvr9buZI4g5G7z5kW1OfpE4OqIbM51KuIGk3+04P/tfQQNU2dFGZbeeC6EVxzbgExJr2oKxGEQNApYEGtDYn314hE+dyQaBNRAYrNX4Nyuls8nx45wuisrACt6tvWlpXy/OaNvHDFlZFbGKuTIbVVzZrEuEO9mohXXtfBmm11fLC+mvV7GklLMHHNuQVcMDmbiWekYomJqB9FQQg9LccyH6ZvZEJM/i6aCP31K6gi6rdiSwC2eLySxNqyUq4eMyaAKzve419+ztSCgX16zk9AGXwwshhiXaFeSURTFIVDle389Y19/HdFCV6fwtTRabz0wGTmTcpGG6nBqyCEgolj9SHx/o4ZIapFVIDS2pVBOY0tnj31dRh1OgYmBaf+5M1dO9lZU8vHN/84KI8fVCYvZDeK7pzTtONwK6u+rmH5hho27m1kwhmpPHrrWcwal8lZQ5JEwasgnEhXfYj5G1mRrnqRiHq1EgIhov7KW53+GpTT2OLZXVeHWW8gNyExgCtTVdhaueXtt7h14iSGp6UF/PGDRqNAchsMLw/1SiKSooBPkvlyZwN/fm0vn26pQ6/XcPn0XDY8dz5jhwSvGFsQIkr3jpju01StsjrmXRC6iagApbmz87S3ePbU1WE26MlJSAjgylQvbfma1Ng47j5neuTUniQ4YECDein0itsjsW53I8s3VvPJljpKqtuZMTaDZ381kRlnZTA0t29OyhaEsKPl+CmqR+tC/LUhUXTirhA8ERWgNHV0kBoXi+4UJ8n6ZJnilmbyEpJIjo0N6Noq29r414YNPHXJpeQlBj47E3BaGfJrIbsp1CuJKD5Job3TyzufV/Dk2/s5UN5OcryR684byJ1/nMHArL45HVsQQq77tFS9/3yZeFm9jBMj3YXTFzEBioKaQclNTER7igGKR/JRYWtlzuAhAV2b3e3ihjcXU5QzgPkjRwX0sQOuqzsnu0kUwfZCo83F6q11LFtXxbrdjXh9CueOz+Shm8dw9og0slNjQr1EQQgePcefJ2PudtaM0V8fIjIiQoBFTIDi8flw+3zEm0yn/HPgkSTKW20BD1A+Lylhc2Uly268KXxH2msU0Enq2TnWzlCvJiK4PBLVTU4WfXSE55cdpr3TR15GHHdeMYwf/2AwidbgHzQpCH1C840Ps3KsNqRroqog9LGICVBcPh8+WSbBbD7lx6hus9PudnF2fn7g1uX18n+rP+Xm8ROYNagwYI8bUAafetpweqvozumBgxV2Vm6uYdnaKrYdaiE1wcy1cwdy2bRcxg5NJiFOVPMJEa4rCxLjrxPpfgKvQUxUFcJDRAUokiyTYD71VPpnRw5TmJKKxRiYd76yovDY52toc7n4v3nnh99cC62sjqYfXi7G05+EJKt1JVsONPOvpYd576sKrDEGhuRZ+ccvJrDwvOCfei0IAdU1MVWLOlE11p8R6eqcEfUhQgSImADFHYAMyieHDzMqMzNga9pTX8c/1q/lN7PnYDGF2bkp8R2QWw/xDhGcfAefpLBiYzXvfFHB5v3NHCi3M3NsOo/fUcTsogxGDEzEaBC/yYUwp+VYNiSmW32IQVFbdw2iY0aITBEToLh83tMKUHyyzMrDB3n0vPMDsh5ZUXjiyy8ZlJzCzyZPCZ/siV5S24ZzGkK9krDU4fJhc3hY9FExzy87QlObi0SLkStm5LH4oXMYXZgU6iUKwvG6MiEa1FPEjYDF3y1j8QclYfLrRxACKXICFG/XFs+pBSi7amvRACMzApNBeXfPbtaUHGHJwusxG8KgJkErQ5rozvku+8vb+HB9NR+sq2JfWRuxJh0XTcnhknNyGF2YJLpwhPBhUCCG4zMiXdkQvZioKvQfEfNP3eXz4VNkEk+xBmVbTRUmvZ5hAZjweripiTvfX8rlI0YxNnvAaT/eadEoYPTC4EpIFMPWuvgkmWa7h60Hmnl+2WFWbK7FGqPnzIIEnriziMum5RIvil2FUNB2ffhnhcT6MyFxsnr6rkFsyQoCRFSAcupbPIqisL2mhuz4+IAMUXti7ZfkJCTy0NzzMISyrVh053yLw+njk69ree+rSjbsaaKuxcnkM1N58n/GM3V0GoXZVmJMokVB6CNdLbsx/kLVGP8Wjb5bRkSUOQnCCUVMgNLp8eKTJFLi4nr9vT5Z5lBjI5edOeK0AgpFUXhj5w7e2LGDD268mQxLiKaG6mS1+HVoRb8PTBQF7J1eKuo6ePvzcl5dVUpDq4vs1BgunprDTRcWMnJgotijF4Kje6eMFjX7EYs6SdXiP3FXBCCCcEoiJkBxeNz4ZJm0Uw1Qmpp4dN7pFciWtrbw+09WceukSUzKzT2txzpllk7Ir1MDFG3/TgXvK2vj7c8r+HhjNQcr7CTEGblsWg6XTc9leH4C6YlmwqV2WYgSerplQ2S1VqR7NkSHCIYFIUAiJkBp6uggLS4O/SmMuS9uacYrS0zKzTvl5/fJMv+3ejUxBj33z5jZ91s7Ri9kNENefd8+bxjxeGXqW11s3NvIf1eWsnprHQlxBsYOSeYfv5jA/Bl5YvtGOD1a1CBD6w82zP5gJM7/Ye7fbwqE8OVySZhMum+9KfP5FGRZwWj89mtnR4eP2Fh92L6Ri5gApaHDQU7CqdWPfLh/H0WnWcz6xs4dfHL4EG8tvJ6U2N5ncU6ZRlFrTAY0gNndd88bRto7fazYVM1rq0rZVWyjurGT2UWZPHPvRCaPSGVglgWDXuTRhVNg8gceXfUhJn+XjB5RHyJEhK1bW/nz4weorXMRY9bxs58O5pJLso9+/ZVXy8jKjOH887/dwfq73+/h5psHMnJEQl8uucciJ0BxOMhJ6P0foqIoLNu/j3MLT/38nUNNjTy4YjlXjxnD+JycU36cXtEoakBSUAvJ9r55zjDSYndTXt/BktUVvPZJKTaHhwGpsVw9J5+FcwcyclAEnBgthJ4OtT5Eh/rbLlaBWPlYRkQk3IQItmuXjQVXreeWmwdy111DOHDAzs/u2orPJzN/fg5er8zS96p5Z8mUE37/zJlpvPxyGX95fEwfr7xnIipAGXAKAUqdo53t1dXcP2PWKT/3nz7/nIHJyfxm1rmntMXUa3qfOgU2zaZ26vQje0vbePOzMt5fW0l5fQcJsUaunpPP1ecWkJ8RR2pCmE3sFcKH1l+gGqsc++g6V0bUhwhRxuOWuemWr/nh1bn8+sEz0Go1nDM1FbNJx623bWHatDTWfN5I4SC1meP554tJTTXxyqvlDB9u5cEHzmDaOWn86U8HcDh8WCzhFw6E34q+Q73DcUozR3bX1QEwOCW1198rKwr/2bqFZfv3svymW0iKCfIwL52kjqgvrAKTN7jPFSa8PpmK+g427Glk8adlrNhUS056LCMHJvLr60dx2bQcTEbxNldADS703bIhxm6BSFd9iAhAhH6iodFNeXkHl102AK322D/8OXMysNu9HDni4N2llUyfloYkKfzuD3sZMzqBiy7K5q9PHGToUCvXXpNPfLyBz1bXc+klIZ7pdQIRE6Cc6hbPurJSClNSGZLa+wClwmbjj2tWc8eks4M/kC3WBQNr+lV3zuJPy/jvyhJ2F9uob3Eyb2I2r/xuClNGpZGdGotR1JX0b0aObcd01YjoOH7bRhD6KafThyxBvPX4gZNxceoPht3uZfnyOn54tdockp5uYum7U4mL06PTaaio6MRg0JCQYGDr1lYRoJyOho7eb/HIisKGigquGXMWxl523bh8Pn6/agVZViv3z5wVvK0doxcyWiCvLjiPH0YabS5Kahy8taact9dUYO/wMijbwi0XFXLlzAJGDgrPQi0hSLq2XrqKUrsGmsV1254RBOGEkpKN6A0aDh9xcMYZ8Udvr6xyoiiQmmbC4fASF6u+9qWlmoiLU1/y4+P1NNS70Go1xMbq6XCE5zytiAhQXF4vbS4XWdb4779zN7KicKCxgRcXXNnr53xu00ZWFxfz3g0/Is5o7PX3fz8F0m2QWxf12zlbDjSz+LMyPlhbRV2LiySrkevnDWL+jFwGZllIsgbjz1cIO93bdeNkdXZI92yI2J4RhB5LTjJy1ZW5vPBiCefPyzzaRvyf/5QyYXwyo0YmkJRkpL7hu7s/JUmhrc3LzBmnfwRMMEREgFLZ1obFaCSml4fyvb17F1lWK7m9bE/+oqSEP3+xhnunzWDcgCB07cQ51SLYlLbAP3YYsDk8lNQ4+GxLHe+trWTboRZy02IZNyyFBTPzOG9CljgHJ9poONaa21Uf0nXYXVediAhABCFgtFoNf/y/UVz9ww1cctlaisYlcfiIg9JSB28unoLRqOWaH+ZRUdEJ8I1ZJ+onHo9Ma6uHoqLwPMU9IgKUclsrCWYzJn3vtmle2vI1E3J6N/G1uLmZ699azMVnnMnPzp6CNpATbPSSupWTFp1n5xyqbOe1VSW880Ul1U2daIBLz8nhDzeNZvSgRFISTGJeSbTQ+TMhlm5bMl31IVpRHyIIfSE+3sBbb06hvLyDkpIOLr88h4L8WFJT1W7H++8bzv/8Yjsmk5Z/Pz/+6Pdd9IMs3O4MWlo8xMbqGD68d7sTfSUiApSKVn+Aouv5cstaW/n0yGF+MnFSj7/H7nZzz0cfkJ+YxMNz52HSB+iPp6s7Z2ANxETPsLUOl4/DVe2s393oP5yvkYzkGMYMTuTeH57B+ZOyyUoJcueTEBxd58ro/Zcmjs+IGEVGRBDCgdWqZ+TIBEaO/HYNX05OLGaTjoOH2hk+7FgQkpSkbqs//MheFl6bj04Xnj/MERGglNtaiTebMfYiYNhWXY1Wo2F0VlaPv+fPX6xhd10tK2++NXAHAZo8MLhSDVCipDunvsXJf1eW8sanZZTVOvBKCudPzGbxQ+cwfngKyVYTRoPIlEQUc7eMiMU/UVWL+m9Wi5ioKggRSKOBP/2/0d/59QvmZTFiRHhmTyBiAhSbP4PS87zxl6XFFA3I6dH8E0mWeXnrFp5c+xUvLrjqlFqSv8XohfQW9WC/COf1yRwot7P1UAtLv6zgq50NJMQZGD04iVsvGcz5kwZQkNmH4/+F3us6zM7gP9iu64yZGAXM/q8JghB18vJiv/NrEycm9+FKei8yApTWVvISE3t1QN+mykpuLBrfoxqScpuNhz/9hHumTWf+yFGns1RVqk3dzjFEdndOh8vHf1eU8MrKUg6Ut+HySMw8K4Pn7pvM9NHpJFoNmAyi2CDsaDnWLWORwaocqw3Rom7NhGdGVxAE4aiwD1C8kkRTRwdTCwp6/D176+spb23lytHfndrqUtXWxsI3XmP6wIE8PHfe6SwVLJ3qoX6pkdmdI8kKhyrt7DzSyvtfVbFmex0GnZbRhYn84abRzJuYxbC8hLA9+bLf6KoPMfgvTf4sSNccETFRVRCEKBD2AYrD48Et+cjrRavww599woTcXFK/59Rhp9fLT997l0qbjdevWXjqi9T5u3MyWkAnn/rjhIjXJ/PWmnJe+qiYbQdbcLolJpyRwp9uH8e8SVkkWoyYxbj50DEoahbE4s+IxKB20Wg4lhERBEHopY4OifoGFw31LurrXdQ3uKivd9Pgv+y67cCB0Kwv7AMUm9NJp8dLQXLP9sr2NdTz9u5dvHDF9w9n+/fmTeytr+PNhdczMOkU9uJ0MiS2q8PW4ly9//4QURQorm5nZ3ErH6yrYs22etweidGDk3jwuhGcNzGbkYMS0YdpZXfU6eqUMaJ2x5j8WRCzPzNiFPUhgiCog9U6O310dkp0dEjHrvsvOzt8dHRKONp92Owe2mxe2trUD1ublzabhza7F5v/dq9XITZWR1ycjthYPXGx6qV6m57MLDOFhQFqGDkFYR+gNDs76fB4GNTDAGX1kSMoisLMQYNOer9l+/fy21Ur+PcVVzI1v+fbR0d1deckdIAmcl5APlxfzfPLDvPFjnqcbokzCxJ4YOGZXDotj5R4I0aDTmzhBFusAlb5WFakq2W3+4cgCP2GxyPT0Oimvk7NZNT5Mxp1dS7qG9zU1Tmpr3fT0uJBkmRkGWRZQZYUJFk59rmsIElgNGrJzDSRkWEmM8NMRoaZYcOsZKSbycw0k55hIjMjhsREA1qtBq0WdDqN/7r6uVarOXpbqIR9gNLS2YlXlno8DfadPbu5YVwRg5JTvvM+68rKuOv997jmrLFcNPyM3i3I5IW0FshpiIjtnIr6DnYcaWX5+mrWbK+n0ebirCFJ3PvDMzlvQhZjhyZjEi3BgaPh+GyIsVt9SNeH+OMWhIgmywpO57EsRkeHj44OSb3sPHbd4fDRZvdi92cx7PZjGY02e9dtPpxOH2azmrVQP/zX/ZmMrKwYBg+2YrXoiU8wkBBvICHBQEJ898+NxCfoSYg3HD1zJ9KF/f9FWWsruQmJPRqatqO2hvUV5Tx7+fzvvM+WqkrOfeF5Lj3zTP55yWW96gwiyQ6Dq9QW4jC3dncDzyw9xLK1Vbg9MjkZsdxx6VB+eG4BGUlmDHqtyJQEgk4BC2pGJN7fOaNVRDZEECKQLCs0NXvUzEWdi7o6J3X1LupqXdT6Mxp1dS4aG914PDKKomYvFFlBVtTvV7pdarUaUj6TxS8AACAASURBVFNNZGaayMqKITPDxKBBFjIz1ExG10dKqgmDXoNGq0GrUb9P843Lruv9SdgHKPvr6zkzPeN77ycrCn9c/RkTc3IZmnrig48ONTVy/VtvcHZ+Hk9cdEnPgxNrJ2Q1QpqtN0vvU/UtLrYebGbl5lq+2F5PaZ2DswYn8fMrh3PexGyKhiUTZw77v+7wo+NYJsTI8fUhJsREVUEIMZdLwuFQsxYOhxdHh0SHw4fDn8HoymTY7V7/h/96e7fr/tsdDh9Go4a4OD0Wix5LnJ44/6XFoic7K4YhQ9RMhjXeQHy8mrGIt+qJjzd0+1C/brXoQ7pFEunC/hVrX0M9E3O//zydA40NLNu/j0fPOx/NCcLM5s5OZj//LAMSElh5y60YtD0ITrSyeqjfgMawrTPZU2rjn+8c4o3PynB0eklPMnPrxYO58cJCctNj0WlFpqRXzP6OGau/TiSmWwAi/hwFoc+0tXmprXNSV+umttbpv+6its7/UeukttaF0ymhKAqo/6EooCiK/1K9DpCUZCIrS81kZGWaGZWfqH6eGaNmN7LMZKSbMZvV35ldryNd19XLY9eF4IuIAOXG8eO/937LDxzAK0nMHjz4W1/zShI3LXmTOKORV66+5vuDE60MyXZ1ponFeapLD4qaJifbDjXz2dZ61u1u4FClnTPzE7ntkiHMnZDJhOGpJFjEScHfqetcGZM/I2L2d810fYT9T4QghCevV8bhULMQ7e3+DEa7D4fDS7vDn93wf81u99Le7qO9Xc1ktNt96mW7D7tdvV2jQc1iWAxYLDqsFoP/cz1ZmWaGDLFgseiJtxqw+jMYVqv/8/iu29XrVosBg0FEFV1kRUEGZAUkxf+5gv82BZ8CHunYm/IBIWrkCetfxy1OJ1VtbT3a4nltxzauGzuOcdkDvvW1mc8/y5HmJmp/8/vvnyxr9MLQCkhwnOqyg2Ltrgb+tfQQb60pR5YVkq0mbv5BIa/+biqDc6yBPXU5mlgViJePXeoQmRBB6AWnU6K2Tq3DqKlRMxk1Nf4MRp3/tloXNpsHULMWXZRun3RdjYvTk51tVjMZWWaGD4snK8tMdpaaycjKNpOVGYPVqr48df/V1j07Ln7lqRTAK6tBhXqp4JX8lzJ4FeVbX+/KNvWUCFBOYHNFBWlxcVhNppPe77lNG6lua+PthTccd7usKPzk3bfZVl3Fylt+cvIXcaNXHbSW3Qh6KRDLPy2HKu18vV+tKfn6QBPVjU4mnJHCg9eNZPa4DMYOTSbRYgz1MkNLi39uCMdnQbp/Ln6JCf2MJClHsxft7V7a/VmL9vZjGYyuz7tfV7/mv63bda9XxmJRsxNWq16tv7Cq2YyMdDODCy3+rx27j8XS7fOu+/uvm839Z+ijQrfshAIyij9jod4ucez6cdkM//d13Vfi2GNIRx/vWNYjWoV1gLKpqoK0OAsW43cHKA0OB79a/iE/GH4GA7vNSlGAXy3/kJe2fM32/7mbMSc71TjBoWZNQtid01X5/e6XFTyz9DBrtteh1WgYlG3hjsuHcsP5g0hNOHmgFvUMitop05URiRMBiBA9lOPe0irfyESA16vQ0OjvKKl1UuOvwVCzGscyGU1NbiRJ+c7Mg/q5OisjI8NMdraaySgsjDua1cjOiiEzK4bsLDMpKaZ+na3o/tfStf3hlRV8spqh8J0gQ9H1uU9WepWpEI4X3gFKRQVplpNnUD46sB+n18vtk88+LkPyxFdf8Pe1X7FowVXfHZxYOtWMSYi6czxemd0lNtbtbmD11jq2HmxBkhUmjUjlX/dMZMKZKYwalNR/5pToOdYl881MiNF/9owgRAhFgc5OH/Z2H+12r7/eQr1u76q/sB+fwThaw+Hw+Ws21NqN9nYfLpdETIz+hPUWqSkmBhbEqZ0lVv3RjEdXzYbFomYvun8eG6uPqsDjm9kKqVu2onvW4WgG4xvZjK6ajBPfR/1+EWz0rbANUBxuN5VtNsZmDSDGcOJXJkVReGXbNi49cwQzBg46etvygwe4b/lHPD9/AT8qOkGBrVZWO3Py6oL5v3CC9aoH8jW1uXlrdRnPLzvM/nI7ep2GySNS+dMd47h27ilMtY0k3TtiYvwZka4ZImKkuxBi6va8f49eOXFHiKJAc4uH2lon9XUuamtd1NY5/ZdqdqNrXobXKx/X9XGijhCdTkNKiomsLDNZWWby82OPdppkZZnJzFQ7TNLTTBii5M3KCX/SvxEASMp3ZyW8ioKvK3sh+W9XxO+PaBO2AUqzsxO7y8WY7OzvvM8HB/azr6GOT2+97ehtf1/3Ffd++AF/vvAibpnw/9s78zApqvPff3qr3mbvWRjWQXaHVTbhEkEhIm5hvCAgbkHyuIVETXLVbD81XvXxmuAvJlGMXo16owkgwYiACm4gouAgm0R2EJitZ59ea7l/VK8zg0tkacn7eZ7ynDpV1V3dI32+9T3vec+Y9AssBviaTvnsnJZAlI921bN28zHe31bLlj0NFOW5GD+kiF9dN5Th/fIZ0DPnlN3PKSPhhpB0ReIxI4ohGVWFU0YopKXnvOgkB0ZzzOVobVNpa9WSOTTa5dNoa1NxOKzk5sZyXqTkwMjNcdCjuzvWbsZdxB0LrzeeT8OG12vGcHizbHg9dmzfsnWv4m5Fe4ciUdKxLe5IJOppsRXpDoa4FQJkskBpC9AUCjHiOAKlpq2VH7+ynPG9yhhQWISq6/xu3bv8cvUq/t/sucwZPjz9AlcE+nxuLu53ktF1g4iqc+BYG39ZtZfnV+2npjGES7FxybiuLP7NeUwe2eWk38dJJzVbqg1zpd2sFEfk2/WbK2QQcbdC15OlmZ0zva21VTUzfcZmmVRVJ92LePuxYyECARWLJbnGSDJLZ3pbbq4jlt3TTY8ebrp0cVNaaq5b0qWLi5Iu5tombnfmB3q2C2lJ2zfa1TSDDg5FPL5CjcdbxI6pMWEiCCebjBUoBxsbUHWdUd26d3r8iQ820BaJ8KvJU3DYbNy96jUefudtnp81J12cKFHo4ocSPyjqSb3nusYw722tYe3HVXywvY69R1vo2y2bOd8t44JzujC0Tx7dijwn9R5OGjZMB8SdEiOSWG8GGZ4RvhLRqGG6FynrkTS3W5ukqTlKS3M0ubZJu/VNUtuBhJORm7JGSU6OgxHD8xPrlOTk2PF6kuuceOLrnSTazP1MHEIxMF2IeCxEqmvRoY6BprdzKuiY5yJ+zEDcCiFzyViB8uHhw0wo602Oy9Xh2KYjn/N/3nmHRy+7nPKSLvxg6RJeqNzMuptvZVzPXuZJFsNMUd/vkOmenARUTScY1ti6t4GnV+zlH+8eJhTRKM53UXFeD56+exxD+3y1RQ5PO+1X03XGnJAsw5wx4xJH5D8Vc4XU9BVTdT3WEWpmPRTSqakNUV0dX5E1SFV1OH1V1uoQjY3RlLVFkmuMmKumJvfdbpu5EmsXF926uxMrssbLuJORm5sZkdPxDj4eBpHqUBgpJ5lig1gMRdKxUFPcioiR0h4TE4Lwn0jGCpT1B/bzP4cM7dBe1dLCzcuWctGA/lQMHsJNy5by962f8NJVV3NuXJx4g2acyUmanbPvaCvvVFaz+qOjfLKnger6ECMHFHDX1eWMH1xEee888rMzPEdJfJXdVEfEQXLdmcx3sIVvgK4btLSoiZVVGxsjZtkUTWkz4zNa21QCAZVAfOXWgFkGAqaTEQhoRKMG2dl2cnMd5OWZLkZerlkOLs/lf4wvJDfPkVhp1eOx4fGYq7V6Yk6GxxNvt522XBnt4ynMWIq4c5HiWOjtclh0Wo8NRcX3EbHxbaalMQoWyO5EFDf6I+QWKCdlVlQkrBMMqOTmf7U+RdMM/FUhCoqd2Ns5gtGITjikkZWT/hl03aDRH6GgKLNSWWSkQGkJh/nk2DEe+15Fh2OLNn7ArppafnPhRVzx3LPs9vv58NYfcXZJCdg0KPVDr2Mn9H5CEY22oMraj6v4y8p9rP7wGB6XjZ4lXq6b1oerppTRs8R7Qt/zG2PBDEK1xIJRPUZyfZkswC6/lN824k5GfEvuk2iLqjr1/gjVNSFqqsNUVweprglTXR1KltVh/P4wum4k3IvEZrVgtVmw2cBms6AoNgoLnZSUOOna1U1JidN0MIpNJ6O42ElxiQtfgXJKAj07dypiLkXKUIVBcmgkmuZQxMoUh0LcCuF4GAbUHA1y/4+2sGdnM4Zu0HtgDr/+w3BKe5jD9Q11EX7/6x0E21TGf7eEy6/ueULvob42zC/mb+KxJePwZB2/y1ajOm+/eow//uZTwiENm83C7Jv6MHN+bxSnFcOAZxZ+Ru/+2Xy3ohtqVOe3d2/nuxVdGTyqgPt/vIVbfzmIPmdnzoSNjBQo6w4cwOf14POkx2usP3iApzd9yF3nn89Db6+lqrWFJVdfw6CSEihsPOGzcyp317N2cxWrPzzGroPNtAVVLhhZwh9uH83Yswvp1z0brzsDvkILpgsSd0PcsbgQR0opwzMZS1ubSmNjNLZFaIw5Go2N0US9qdHMkxEIagTjDkZQIxDQCAZNFyMQ0AiHzVwZeXmmk5GX6yAvTyEvz8GA/tmMHVNAbp6DvFwlxcmw4XabjobHnb7vcllP2mqs6XEUplBoH2uhJdqSMRRGu1gKI3V2SKzdiL2+IHwTqj4PcPusjUy7sjt3/W4Yhm7w+tIj/OKGzfzxH+NRFCv33foxF8/uwZvLjqCfhOjh4q4u+pfn8tc/7eWGnw04rkuzaskRnvndZ9y9cBh9BuVw9GCA3969DTWqc91t/di3q4VX/3qY59+ayOsvH+Gd16pY/3oVky4tRXFauXhWDx791Q5++9exKM7MiMXKgN41Hd0wWL5zOz1z8yjwuBPtR5ubmb9kMVmKk/9e9x4lWdm8+YMb6V7igrL95uJ+3+R9dYPWkEpLW5Rl7x7m+df3s+WzenK8DsrPyuOeeUOpOK/H6Rm6iceFWGNuiAMzi2p8xoxHBMipJOFcqAZqzLlQ1Vip6WixelNTlOqaELU1YdPRqAlTk1Y3y0hEx25Puhjxut1mxWZPtuXnKxQXm/kyioudFBe7KImV5uaksNCJ8wT9uBjEOn8j3aloH2cRFwNaJ45EPD9FmoMROyb6Qch0PnqnjjyfwnW39Uu0zftpf7Zs9LP5vVqKu7r55MN6HvrLaN78x9HEOa/9/TAvPb6PSERn5g1lXH51L+x2C2/+4yh/fXwvABde0Y2sHAeXzU06Lvt2tfDEA7so7OJk/evVDD/Xx12/G8Y1P+rLf920mTk398Gb3Xm3/dpLh7jzkaGMmVgEgK/YyUPPjua2Kzdw3W39WLX4MBXXlZFboOBy2xg2Jp89O5oS159/aSlPPriLw/va6DMo+4R+j/8uGSdQjrU08+ae3fzkOxPxOEwxYBgGP/7ncqpbW1F1jQFFxTw3dwbdBweh5Mg3SlHvbw6zbmstqzceZfNn9ez9vIUcr4Mpo7pw99XllJflUVbqxWE/hYrSjumCxDeXYbogDswy4/5qZwbhsE5DzK1oaIjQ0BihsSFKQ2OEhsYojQ1m2dIcJRjUOmyBRF0lGNRwOKzk5Snk5zvIz1PIi5Vn9fYy8pz8mMuhkJ1tx+224XbbcbuteNzx/fTtmwyhxJ2IVNcitezMvUh1JuKuRVob4lYIZzYH97Qy+XsdU10MG+vjk431DB1TQI+zvDhTYqa2b2pg6dMH+MlDQ9BUgwdu34I7y87Q0QX89fG9LLi3HID7bq3ke9ekDweFQxofr6/jR/eWc/GVPfjNgkrefvUYU2d0o6EuQmtz9LgCpbYqxJDRBWltJd3cOBQrbS0qtcdCXDzLFC/nTTPTXKx/oyZxrs1moXtvL0cOiEA5Lp/W1FAfCDC9fDAAwWiU+UsXs2zHdhxWK1P69+XFG6eTNbAOPKGv/fqBkEpja5Qtu+v529qDvPr+52iaQV6WwpTRXbh33lAuGnv85HAnBGt8iwWjugzTEYm7Ik75tf8qGAaoqo6qGimlGYcRr6tRnUBAo7YuTG3MtaitC1FTE4nVwwlno7VVxeEw3Qq73RorU+tmmZVlp7jYjMkoKnJSXOSkqNgsi4tdFBY5KS5y4fV+tUDP1LgKI+FVxPdNVCCqJR0M050wZ9JEjaRboaXGW6Q4F4IgfH00Ve/0wcBqsxCNGBw9FKDPoPSYjVdfPMS4KcUMG2uKhfn/awDbPqynrVllzKQizhnvA2DGDWVEIx2X+ivp5mbSpV3IyVMoPyefmqNBrFYL2XkOwsHjL2RrtVo6NdItFguqalBXHaZn3y9elrh7by/1NV+/Xz1ZZJxAeerDjXzv7MGUZpsK7s6VK1i8bSsFbg//u+J8rrykhKxuR8zgz6+Ibhh8uNPPGx8dY83mKvYfa6UtqHLu4EL+6/tDObe8iN6lXoryOk5pPiG4DHMYxm2Am9i6MjEnxGFIRtV2qKpBY5PpXtTXm05GQ32EhoYI9Y3RRL2xyXQyQkGNUEgjGIqVQY1QSI+VGoaB6WLkK4mtIN9Bz54ehg3LS7Tl5jpwu2y43FZcLlusHitj7W7XF+fKiLsKmgFBVY85E527FqmuhulOGGkxFmn7huSsEIRTTa++2by78hhXfD99CZKdmxu4eFZ3qj8PdRAFwTYt7TciK9tONKITCetp7ceL7Yo/DMWJP184nTYsXxAPludT+Ne2poQwAvBXhwiHdbxZNqIR7UsjAewOC7ZTOVrwJWSUQNlTV8eruz5l6dXXEVJV7lq5gj9ueJ9uBVk8/8OLmHiBG6xfru5UTcffHOGYP8CStw7x97UHOVIXpCBHYehZ+fzq+iFM/06PE7c6sI2kG2LFdEG8etIRyZy/90nBMEDTdKJRg2hUJxpzLqLRmJsRq4dCGv6GCHU1YdPRqA1RWxuhtjZ9v7ExgtVqibkZVhwOCw6HFYfdij1Rt+BymzNMunV3U1TopKgotsXqhbH9vNzk9L/U2R5GSkyF0dmxmFCIOxVBA1pUHTWimcMiqTNCYvuauBWCcMYw8js+nvvv3bz2t8N856IuGAasf6OKIwfbGHt+MW+vOMbunenxj+OmFPPmsqM0NUTAgKXPHGTUd3wMHpXPogc+xV9ThqbqvPLCIabO6Pal9xBfByrQpuLy2GhpilJzNNjBubng8q48cNsWHn5uDEWlLpobI9x76xYmTivBYrWQk6dwcG8rJd3dx3knOHowwNhJxf/el3USyBiBouk6j21YT9ecHIaWduEXq1fyxMYPuHx0b363YBS9yxTM7uL4HKhqY9XGo/zj3UMcrGpj95EWRvYvYOYFvZgysgtndc2ma6H7m8WT2GIuiDvFFYm7IXbjjFpx1zCguTlKfYPpYNTXR6hviJUp9YaGiDmDJGQ6F6Gw6VyEQjrhlLqq6mRnOygoUMwt3yxLS12Un51Dfqw9L0/B47bhdJlOhssZK102XC4rTqdZdyjWlNke6XEU8bLVgKa2aCI9d9yZiMdNxB2KVHciHmeROsQiCMJ/Ht17e/n1n0aw6IFdLH56P7pmYLNZuOu3w3B77Zw1KIcj+9sIpQy9fHd6N7a872fBFRswDOjVL4tpV/YgO89B+ch8bpv1AR6vnYHDczsMH1ni/4k1W2PH66pC2BUrbo+N9a9X8/DPtrJm/8Vp1146pyfhoMbd8zaRlWMn0KoyckIhc27pi9VqoVf/LHZsbkgE0aa9J2bw/6G9bRQUZU4OL4thnJpHPovFwtMzrmTeqNGdHj/Y0MCkJx/ne2cP5vOmJl7ZtZ2rzu/Ds78e2+n5um7Q2BrlqD/Auk9qeHHNATbu9FOQrdCzxMOl47tz+YQeXz+Ta3xdGVvMEVFS4kO8RsZnVFU1g2hEN52MqE4kmtyPRHWiEYNIVKexMUJtXRh/bYTauhB1dRHq6kwno64uTG1tmPr6CLpu4HBYURSr6Vw4rCgOCw4lXreiOK3k5ysUFcZcC59CYZE5o8Tnc+IrVPAVOsnPV7DZLQmnQifpVMQFg+lWxF2JmPDQTXERFxniVgiCcKrx14SwWi3kFyadd001mDf1Pa6/vR/nX1qadn44pKFpBh6v6QO0NEXZurGeMZOK0FSDhb/YzojxPi6a2flyLnEMA/54705cHhvzfzaAqiNBnn74X/zi98M7PV+NGhw52EZpD0/adOGdHzdy++wPWPLR5E6Tzb3/ZjUvPLaHR/8+rsM043HFr3zxl3OSyBgHZcn2rbRGIizfsZ2DTY08+bOxXHVhWYfzWoMqb1dW8+Ib+9l5oIl9x1opyXcxcUQJd15VTt/u2XQv8uBxfcWPpgCe2FRdT0yA2DHFid3ImIyqgYCGvz5Mvd90LfwxF8PvDyf3/RFaW1XCYY1wOOZexEpzXycUMusejx2fz0FBgRNfgUKBT8HnU+jXLzuxX5Bv5spwuqwoig27YsGuWNM2m9OK3WFFJ5mvQouJi1Snog6obYumORMJx0IybAqCkOH4ijvGKNrsFu594hyee3Q3Ey/ukhZXEp/ZE3dqVeAvj+3hpUX7UKM6YdVg5k/60aDGsg2TzDqcdHgN/EdDbN7cwI+fHslnYY1jQZWxt5zF9qBqnpfyHomMxaVOPo9qGFHNnJGHQfQsN2WXdOH3K47Sc2pJ2ufQozpv/d8D9P9Zf/7WGoHW9M857jSN+px2B8UwDPbW1zPh8T9S3drCwF45LL7vPAafZTofbSGVwzUBPjvUzN/WHODldw+T7bHTrcjDpBElXDi6KxeOKcV2vOChVDfETvqMGU9seOYkoOsGkYievkWT9WisbGlVqasL4/dHYmU44WbUpbSFwzqKYjoZStzRiO/H6g6HlexsO75CZ0xwxNwLn0KBz3QzCgoVfAVO7Iol6VDEZn8kXQojEdwZdy/ErRCEbw/xf62pw5SpZbJuJM7reKzz1+j8uPEF70FKbNdXOW4k6vGOV4t32rRbTgDQSAaUa7H7ibel7uvt6vHOPHk+aBidd/jx/ePcQ7hFxZZlTzkveTzt76IatO5txapY8fTyfGHQa+o1WkjHnvXNn5YN1UCP6Ng86a9lGAZqi4ojp/MYhTeGr/nG7/3vcNodlOcrP+aXr6+iurWFeZf04Z55w+hR7OGjXX7+/M/dfLK7gQNVbWi6wcThJTx222jGDS6ki89NQbazY1a9uPCIb/H4EFus/IbDM5GIHnMuTPfCXx+O1VPa/BEamyJEwjrhWPR2OGI6F/G2cFgnEtGw2az4fAqFMeFgigmFnmVecgsc5OU7ySlw4PHasSlmkKjVYU3UbYoVW1ywOM2sn4mYClICQGNlIwb1oShkzkwyQcgYUp9c0zolI73Tad/ZpXaKaR1cpx1e+3oy/im+IrHR4ZrOOsn2pZHoxNMCv+mk8z+OIDm+KEkKkC8SLKliI7Ut2W4c/9pO7ulbg8f2lZIBWewWsgd8vRwjFrvlhIiT+GvZ7B1fy2KxHFecnE5Oi0CJahrbq6u4f+0aXt6+DbfTxsxJvZh5fi9+v3gXf/7nbqxWC8X5Ls49u5AFMwZywTld6FrkTg692AGHni5GvB3/BzEMU1SEg5pZhvVYqSXFQ9jMlVHfEO4gNEwRktw3c2XEnAtninvRbnO5bRT28JhDJfHgT59CXr5CToFCbr5CTr4Dp8fWIcjz3xnuUDHdDhkr+fbxxT/SRocf/q/zA5+81vjSa792R9XunlI73HhnG2/X4ufQ8emzs86/fadskHzKTT5RH0dEfImwSIiBlNdLFQmCIGQGp1ygBCIRfvraqyzdvo2aVnOgyzBgw45aVn54hDEDC/npVWdz2fjulBS78JU6cORaYjNmoon4EA2dhpYo/row/iPhtCGRxNBInTnTJBTSEkMq7Yda4htgZvosUMj3KeQXOMktUOh5dg6DCxzk5CtkFSh4c+woig1FSQaKxku7Yk6JtTusWO2WtB/3zggBoegXz0wSjk+88zMwEp1hoiNsb+928vQZv67TjjL1mg5PxSnHO+sAO7lGS3m6bf/krKd8ns5ESLxMFQ0d2lLPM4zjX/u13qOjqEm+R8c2QRCEE8kpjUERBEEQBOHbxSmSCR04w1OICYIgCILwbeSUDfFcdtll6LqOzZYh83YFQRAEQchYTtkQD5g2kQz1CIIgCILwZZzSIR4RJ4IgCIIgfBUkBkUQBEEQhIxDBIogCIIgCBmHCBRBEARBEDKO057qXhCEE4thGGzbtq3TY3l5efh8Pg4fPky/fv1kVp0gCBnLKZ3FIwjCyefIkSOUl5d3euzaa69l0qRJLFy4kFWrVuH1ek/x3XXk0KFDPPXUU8yfP5+ePXue7tsRBCFDEAdFEM4wNmzYgN1u57nnnuvQ4RcVFfHzn/+c/Px8FEU5TXeYzkcffcSDDz7IggULTvetCIKQQYhAEYQzjDVr1tC1a1fGjBlDYWFh2jFVVVm7di3Tp0/H4XAQCAR46aWXePPNNykrK+OWW26he/fuACxatIhBgwaxf/9+3nrrLcaNG8cNN9zA8uXLWbZsGX379uX2228nNzcXgPfff59nnnkGi8XCD37wA0aPHg3Ajh07WLduHeeeey5PPfUUkUiEu+66i969e/PEE0+wfPlyVFXlhRde4Ic//CE7duzgT3/6Ey0tLcyYMYOKigqsVgmXE4T/NORfvSCcQYTDYTZv3ozb7aampobdu3cnttbWVo4ePUprayujRo0iEAhQUVHBk08+SW5uLtu2bePCCy8kEAjQ1tbGTTfdxOzZs3n55Zdpa2tjwYIFTJw4kSeeeAJFUXjwwQd59tlniUQi3H///VRUVKCqKqFQiClTpvDiiy8C8NJLL3H33Xdzyy23EI1G2bRpE7NnzyYYDPLpp59SWVnJ2LFjqa6uZufOnVRUVKDrOk6nkxkzZvCHP/zhNH+rgiCcDsRBEYQziPr6ehoaGti/f3/CwYizfPly3G43wWCQ4cOH88ADD9DSY6U2BgAABNBJREFU0sLq1avJyclBVVXGjx/PmjVr6NGjBwDXX3899913H62trSxZsoS+ffvy5z//GbvdTk1NDU1NTezbt49HHnmEN954g5EjR2IYBtdeey2LFi1i5syZbNiwgT59+rB69Wq8Xi/Lli1j1qxZ6LrOwoULWbFiBQ899BDnnXcejz76KLm5uTz++OPYbDYGDhyIpmmn46sUBOE0IwJFEM4gamtr8fv9PPLIIx0EyogRI1iyZAl2u51u3bolnJObb745cc7nn3/Onj17aG5uxuFwMH/+fOx2O/v378fpdHLNNdegKAqaprF582bmzp3La6+9RjQaZeHChYnXqaysJDs7m6amJjZt2sTSpUvJysoCoLq6mrKyMrxeL1VVVVRXVzN48GCsViuzZ8/mxRdfZODAgcydO5drr72Wvn37npovTxCEjEIEiiCcQRw6dIiGhgbmzp1LUVFRh+M7duxg8uTJNDY2Eo1GueKKKxg1alTieEVFBaNHj2bRokXk5OTQu3dvALZu3YrL5WLAgAEA7N27l7a2Nnr37s2KFSu4+OKLqaioSHsdn8/Hnj17yMrKok+fPoljH3/8MZdeeikAb731Fv369cPtdgPQtWtX1q1bx8qVK7njjjt4+OGHqaysZNCgQSf+yxIEIaORGBRBOIPYuHEjAwYM6FScgCkOpk6ditPpxGKxUFhYyIwZM5gxYwZNTU289957lJWVsWfPHubOnYvFYsEwDCorKyksLKS0tBSATZs24fV66datGz6fD1VVueKKK5g5cybl5eUsXryYgoIC1q9fT3FxMXl5eYl72LBhA5MnTwZg5cqV9OjRA0VRqKys5LLLLqOqqorp06fzyiuvEA6H2bJly8n/4gRByDhEoAjCGcQ777zDZ599xogRI9K2OXPm0NzczPr165k4cSKlpaXMmjWLO++8kxtvvJEpU6Zw44034vP5ANi1axfTp08HQNM09u/fz9SpU7HbTdP13XffxePxUFpayrx581i9ejXjxo3j+uuvZ8iQIRw+fJghQ4awcuVKioqKyMnJAcwYmYMHDzJkyBAA/vWvf7FhwwauuuoqPB4Pa9euZdq0adx3333Mnz8fi8XC0KFDT8M3KQjC6cZ2zz333HO6b0IQhBNDTU0NEyZMYODAgWnbyJEjGTBgANnZ2UyePBlFUZg2bRr9+/envr6e0tJS7rjjDr7//e9jt9sTU3ztdjuGYRAMBrnkkksoLS1F13VCoRATJ05k2LBhFBcXM2HCBHRdx2azMWfOHB588EHcbjfhcJipU6fSv39/APx+P6WlpUyYMAFFURgzZgwul4uePXtSUVHBtGnTsNls1NTUMGzYMBYuXCgCRRD+Q5FMsoIgCIIgZBwyxCMIgiAIQsYhAkUQBEEQhIxDBIogCIIgCBmHCBRBEARBEDIOESiCIAiCIGQcIlAEQRAEQcg4RKAIgiAIgpBxiEARBEEQBCHjEIEiCIIgCELGIQJFEARBEISMQwSKIAiCIAgZhwgUQRAEQRAyDhEogiAIgiBkHCJQBEEQBEHIOESgCIIgCIKQcYhAEQRBEAQh4xCBIgiCIAhCxiECRRAEQRCEjEMEiiAIgiAIGYcIFEEQBEEQMg4RKIIgCIIgZBwiUARBEARByDj+P2rkit2mIl1iAAAAAElFTkSuQmCC;" vertex="1" parent="1">
                    <mxGeometry x="3" y="376" width="392.42" height="275.83" as="geometry"/>
                </mxCell>
            </root>
        </mxGraphModel>
    </diagram>
</mxfile>